<svg width="506" height="507" viewBox="0 0 506 507" fill="none" xmlns="http://www.w3.org/2000/svg">
<path d="M253 492.514C388.536 492.514 498.41 428.176 498.41 348.81C498.41 269.445 388.536 205.106 253 205.106C117.464 205.106 7.58997 269.445 7.58997 348.81C7.58997 428.176 117.464 492.514 253 492.514Z" fill="#FAFAFA"/>
<path d="M151.8 232.38L31.9792 301.57C29.4492 303.037 29.4492 305.405 31.9792 306.863L309.986 467.558C312.972 469.094 316.396 469.552 319.681 468.854C372.446 454.402 413.675 429.78 440.109 399.754C440.561 399.276 440.896 398.7 441.086 398.07C441.277 397.44 441.318 396.774 441.206 396.126C441.094 395.477 440.832 394.864 440.441 394.334C440.05 393.804 439.542 393.373 438.955 393.075L160.999 232.38C159.575 231.653 157.999 231.274 156.4 231.274C154.801 231.274 153.224 231.653 151.8 232.38Z" fill="#EBEBEB"/>
<path d="M115.115 401.991C134.749 401.991 150.666 392.802 150.666 381.467C150.666 370.133 134.749 360.944 115.115 360.944C95.4803 360.944 79.5634 370.133 79.5634 381.467C79.5634 392.802 95.4803 401.991 115.115 401.991Z" fill="#EBEBEB"/>
<path d="M401.673 278.8C388.517 286.39 388.517 298.696 401.673 306.286C414.829 313.876 436.081 313.876 449.237 306.286C462.393 298.696 462.393 286.39 449.237 278.8C436.081 271.21 414.809 271.21 401.673 278.8Z" fill="#EBEBEB"/>
<path d="M120.004 282.811C120.096 286.551 119.392 290.268 117.94 293.716C116.85 296.278 114.995 298.44 112.63 299.909L112.451 300.016L99.1596 307.676L93.7666 296.938L93.3967 296.222C90.3636 293.855 87.6557 291.099 85.3429 288.025C84.7464 287.273 84.1498 286.498 83.6487 285.698C80.3356 280.888 77.7542 275.612 75.9887 270.044C74.6159 265.834 73.8368 261.453 73.674 257.027L73.5785 256.848L72.2183 254.152L69.319 248.603L68.1259 246.217L79.9738 239.357L80.7732 238.891L81.1073 238.7C82.9257 237.67 84.9829 237.135 87.073 237.149C90.4997 237.265 93.8361 238.277 96.7494 240.084C109.612 247.565 120.004 266.668 120.004 282.811Z" fill="#263238"/>
<path d="M60.132 263.804C60.132 277.728 67.8635 293.848 78.2081 302.76C79.7874 304.126 81.4888 305.345 83.2909 306.399C96.1172 313.821 106.521 306.722 106.51 290.566C106.51 278.372 100.544 264.472 92.1918 255.225C92.1918 255.225 92.1918 255.225 92.1202 255.154C89.5793 252.31 86.6177 249.871 83.3386 247.923C70.4646 240.574 60.132 247.661 60.132 263.804Z" fill="#37474F"/>
<path d="M83.2786 257.719C75.1294 253.007 68.5074 257.91 68.5074 268.684C68.5074 279.459 75.1294 291.999 83.2786 296.711C91.4278 301.424 98.0617 296.509 98.0617 285.746C98.0617 274.984 91.4397 262.432 83.2786 257.719Z" fill="#455A64"/>
<path d="M60.132 263.804C60.132 277.728 67.8635 293.848 78.2081 302.761C71.0238 294.624 65.9656 284.835 63.4847 274.268C61.516 264.962 62.2916 251.599 70.2498 248.222C78.2081 244.845 88.7913 251.957 92.1202 255.202C89.5793 252.358 86.6178 249.919 83.3386 247.971C70.4646 240.574 60.132 247.661 60.132 263.804Z" fill="#455A64"/>
<path d="M83.2789 267.097C79.0432 264.651 75.6189 267.193 75.6189 272.788C75.6189 278.384 79.0432 284.887 83.2789 287.333C87.5146 289.779 90.9508 287.226 90.9508 281.642C90.9508 276.058 87.5742 269.543 83.2789 267.097Z" fill="#E0E0E0"/>
<path d="M80.8329 266.99C80.3079 266.684 79.7413 266.454 79.1506 266.31C77.0268 266.883 75.5712 269.209 75.5712 272.789C75.7077 277.032 77.2382 281.112 79.9261 284.398C80.2151 284.624 80.5179 284.831 80.8329 285.019C84.6033 287.19 87.6458 284.935 87.6458 279.96C87.6458 274.984 84.6033 269.174 80.8329 266.99Z" fill="#F5F5F5"/>
<path d="M67.0879 231.017V236.648L232.828 332.339V326.707L67.0879 231.017Z" fill="#455A64"/>
<path d="M118.238 266.191L109.182 260.953V291.724C109.182 293.383 110.375 294.051 111.771 293.215L118.93 289.099L118.25 288.693L118.238 266.191Z" fill="#92E3A9"/>
<path opacity="0.7" d="M118.238 266.191L109.182 260.953V291.724C109.182 293.383 110.375 294.051 111.771 293.215L118.93 289.099L118.25 288.693L118.238 266.191Z" fill="white"/>
<path d="M118.238 266.19V283.073L159.7 307.008V290.125L118.238 266.19Z" fill="#37474F"/>
<path d="M159.7 307.008L118.238 283.073L115.828 284.505L159.7 309.8V307.008Z" fill="#263238"/>
<path d="M115.84 287.321V284.517L159.7 309.8V312.64L115.84 287.321Z" fill="#455A64"/>
<path d="M159.7 284.494V318.272L193.824 337.97V304.192L159.7 284.494Z" fill="#37474F"/>
<path d="M193.824 304.192V337.97L227.948 357.669V323.903L193.824 304.192Z" fill="#37474F"/>
<path d="M227.948 357.669L237.696 352.037V323.891L232.828 326.707L227.948 323.903V357.669Z" fill="#263238"/>
<path d="M192.595 337.254V303.488L195.029 304.896V338.662L192.595 337.254Z" fill="#263238"/>
<path d="M209.657 324.595V318.963L212.091 320.371L212.103 326.003L209.657 324.595Z" fill="#E0E0E0"/>
<path d="M175.533 304.908V299.277L177.967 300.673L177.979 306.316L175.533 304.908Z" fill="#E0E0E0"/>
<path opacity="0.2" d="M157.206 283.05V305.576L154.832 306.996V309.824L159.7 312.64V284.493L157.206 283.05Z" fill="black"/>
<path d="M57.3398 225.397L232.828 326.707L232.84 315.491L57.3398 214.181V225.397Z" fill="#92E3A9"/>
<g opacity="0.6">
<path d="M57.3398 225.397L232.828 326.707L232.84 315.491L57.3398 214.181V225.397Z" fill="white"/>
</g>
<path d="M232.827 326.707L237.695 323.891V312.64L232.827 315.456V326.707Z" fill="#92E3A9"/>
<g opacity="0.5">
<path d="M232.827 326.707L237.695 323.891V312.64L232.827 315.456V326.707Z" fill="white"/>
</g>
<g opacity="0.1">
<path d="M232.827 326.707L237.695 323.891V312.64L232.827 315.456V326.707Z" fill="black"/>
</g>
<path d="M179.208 143.774L57.3398 214.181L232.828 315.455L354.696 245.096L179.208 143.774Z" fill="#92E3A9"/>
<g opacity="0.8">
<path d="M179.208 143.774L57.3398 214.181L232.828 315.455L354.696 245.096L179.208 143.774Z" fill="white"/>
</g>
<path d="M71.9558 76.2295L227.948 166.288L340.068 101.56L184.076 11.5013L71.9558 76.2295Z" fill="#455A64"/>
<path d="M227.947 307.008V166.288L71.9556 76.2293V216.949L227.947 307.008Z" fill="#37474F"/>
<path d="M227.948 307.008L340.068 242.279V101.56L227.948 166.288V307.008Z" fill="#263238"/>
<path d="M182.918 263.804C182.036 263.186 181.315 262.367 180.813 261.415C180.31 260.462 180.042 259.404 180.031 258.327V249.975L185.901 253.424L186.283 253.352V253.913V261.406C186.325 261.897 186.237 262.39 186.027 262.837C185.818 263.283 185.494 263.666 185.09 263.947C184.808 264.102 184.492 264.184 184.171 264.186C183.728 264.165 183.297 264.034 182.918 263.804ZM183.574 254.784L183.145 257.719H180.973V258.327C180.99 259.235 181.213 260.128 181.627 260.936C182.04 261.745 182.633 262.448 183.36 262.993C183.541 263.122 183.753 263.202 183.975 263.225C184.196 263.248 184.42 263.213 184.624 263.124C184.875 262.919 185.069 262.654 185.188 262.353C185.307 262.053 185.347 261.726 185.304 261.406V254.462L183.574 254.784ZM182.739 253.972L184.469 253.662L180.973 251.598V256.776H182.334L182.739 253.972Z" fill="#E0E0E0"/>
<path d="M183.157 270.163C183.219 270.163 183.281 270.151 183.338 270.127C183.395 270.103 183.447 270.067 183.49 270.023C183.534 269.978 183.568 269.926 183.59 269.868C183.613 269.81 183.624 269.748 183.622 269.686V263.398C183.622 263.275 183.573 263.156 183.486 263.069C183.399 262.982 183.28 262.933 183.157 262.933C183.034 262.933 182.915 262.982 182.828 263.069C182.741 263.156 182.692 263.275 182.692 263.398V269.686C182.69 269.748 182.701 269.81 182.724 269.868C182.746 269.926 182.78 269.978 182.824 270.023C182.867 270.067 182.919 270.103 182.976 270.127C183.033 270.151 183.095 270.163 183.157 270.163Z" fill="#E0E0E0"/>
<path d="M185.889 271.738C185.972 271.74 186.054 271.718 186.125 271.676C186.197 271.634 186.255 271.573 186.295 271.5C186.327 271.447 186.348 271.388 186.357 271.326C186.366 271.265 186.362 271.202 186.347 271.142C186.331 271.082 186.304 271.026 186.266 270.977C186.229 270.928 186.181 270.886 186.128 270.855L180.639 267.694C180.588 267.66 180.529 267.638 180.469 267.628C180.408 267.618 180.346 267.621 180.286 267.637C180.226 267.653 180.171 267.681 180.123 267.719C180.075 267.758 180.035 267.806 180.007 267.861C179.975 267.914 179.954 267.973 179.945 268.034C179.936 268.095 179.939 268.158 179.955 268.218C179.97 268.278 179.998 268.334 180.035 268.384C180.073 268.433 180.12 268.474 180.174 268.505L185.65 271.667C185.723 271.709 185.805 271.734 185.889 271.738Z" fill="#E0E0E0"/>
<path d="M202.295 281.463C202.475 281.467 202.652 281.422 202.808 281.331C202.998 281.214 203.151 281.045 203.251 280.845C203.35 280.645 203.391 280.42 203.368 280.198V278.909C203.351 278.797 203.293 278.695 203.207 278.621C203.121 278.548 203.011 278.507 202.897 278.507C202.784 278.507 202.674 278.548 202.587 278.621C202.501 278.695 202.444 278.797 202.426 278.909V280.198C202.426 280.389 202.426 280.496 202.33 280.52C202.224 280.533 202.117 280.503 202.032 280.436C201.74 280.165 201.511 279.833 201.358 279.465C201.206 279.096 201.135 278.699 201.149 278.301V269.949C201.151 269.887 201.14 269.825 201.117 269.767C201.095 269.709 201.061 269.656 201.017 269.612C200.974 269.567 200.922 269.532 200.865 269.508C200.808 269.484 200.746 269.471 200.684 269.471C200.557 269.471 200.436 269.522 200.346 269.611C200.257 269.701 200.207 269.822 200.207 269.949V278.301C200.182 278.862 200.291 279.422 200.523 279.934C200.755 280.446 201.104 280.896 201.543 281.248C201.771 281.383 202.03 281.457 202.295 281.463Z" fill="#E0E0E0"/>
<path d="M194.73 266.918V266.644C194.587 265.837 194.695 265.006 195.041 264.264C195.386 263.521 195.952 262.903 196.662 262.494C197.371 262.084 198.189 261.903 199.005 261.975C199.821 262.048 200.595 262.37 201.221 262.897C202.976 264.04 204.437 265.581 205.484 267.396C206.531 269.21 207.135 271.246 207.246 273.337V274.149L194.73 266.918ZM197.117 263.339C196.634 263.685 196.248 264.148 195.993 264.684C195.739 265.22 195.624 265.812 195.661 266.405L206.256 272.526C206.023 270.752 205.409 269.049 204.458 267.534C203.507 266.018 202.24 264.726 200.744 263.744C200.025 263.297 199.203 263.047 198.357 263.016C197.93 263.008 197.508 263.107 197.129 263.303L197.117 263.339Z" fill="#E0E0E0"/>
<path d="M221.206 292.033C221.268 292.033 221.33 292.021 221.387 291.997C221.444 291.973 221.496 291.937 221.539 291.893C221.583 291.849 221.617 291.796 221.639 291.738C221.662 291.68 221.673 291.618 221.671 291.556V275.532C221.673 275.47 221.662 275.408 221.639 275.351C221.617 275.293 221.583 275.24 221.539 275.196C221.496 275.151 221.444 275.116 221.387 275.092C221.33 275.067 221.268 275.055 221.206 275.055C221.079 275.055 220.958 275.105 220.868 275.195C220.779 275.284 220.729 275.406 220.729 275.532V291.556C220.729 291.683 220.779 291.804 220.868 291.894C220.958 291.983 221.079 292.033 221.206 292.033Z" fill="#E0E0E0"/>
<path d="M222.602 279.184C222.665 279.196 222.73 279.196 222.793 279.184C222.85 279.159 222.901 279.123 222.944 279.079C222.987 279.034 223.021 278.981 223.043 278.924C223.065 278.866 223.076 278.804 223.074 278.742C223.072 278.68 223.058 278.619 223.032 278.563L221.361 274.685L219.488 276.857C219.407 276.952 219.368 277.075 219.378 277.199C219.388 277.323 219.447 277.438 219.542 277.519C219.637 277.6 219.76 277.64 219.884 277.629C220.008 277.619 220.123 277.56 220.204 277.465L221.087 276.439L222.173 278.933C222.213 279.011 222.275 279.076 222.351 279.121C222.427 279.165 222.514 279.187 222.602 279.184Z" fill="#E0E0E0"/>
<path d="M216.875 289.552C217 289.549 217.118 289.497 217.205 289.408C217.292 289.319 217.341 289.199 217.341 289.075V273.051C217.351 272.983 217.347 272.913 217.329 272.847C217.31 272.78 217.277 272.718 217.232 272.666C217.188 272.613 217.132 272.571 217.069 272.542C217.006 272.513 216.938 272.498 216.869 272.498C216.8 272.498 216.732 272.513 216.669 272.542C216.607 272.571 216.551 272.613 216.506 272.666C216.461 272.718 216.428 272.78 216.41 272.847C216.391 272.913 216.387 272.983 216.398 273.051V289.075C216.398 289.201 216.448 289.323 216.538 289.412C216.627 289.502 216.749 289.552 216.875 289.552Z" fill="#E0E0E0"/>
<path d="M218.247 276.702C218.31 276.713 218.375 276.713 218.438 276.702C218.495 276.677 218.546 276.642 218.589 276.597C218.632 276.552 218.665 276.5 218.687 276.442C218.71 276.384 218.72 276.322 218.718 276.26C218.716 276.199 218.702 276.138 218.676 276.081L217.006 272.204L215.133 274.363C215.068 274.46 215.041 274.577 215.056 274.692C215.071 274.808 215.128 274.914 215.216 274.99C215.304 275.066 215.417 275.108 215.534 275.107C215.65 275.105 215.762 275.062 215.849 274.984L216.732 273.958L217.817 276.451C217.858 276.529 217.92 276.594 217.996 276.639C218.072 276.683 218.159 276.705 218.247 276.702Z" fill="#E0E0E0"/>
<path d="M122.258 207.129V232.937C122.258 233.928 121.554 234.333 120.695 233.832L80.4147 210.566C79.9587 210.273 79.5792 209.875 79.3074 209.406C79.0355 208.937 78.8793 208.411 78.8517 207.869V182.05C78.8517 181.047 79.5556 180.654 80.4147 181.143L120.707 204.457C121.156 204.751 121.53 205.146 121.799 205.61C122.068 206.074 122.225 206.594 122.258 207.129Z" fill="#FAFAFA"/>
<path d="M81.3456 184.842L82.6461 185.593V209.05L81.3456 208.299V184.842Z" fill="#455A64"/>
<path d="M86.6429 187.896L88.8861 189.221V212.678L86.6429 211.365V187.896Z" fill="#455A64"/>
<path d="M91.941 190.95L93.2416 191.702V215.171L91.941 214.419V190.95Z" fill="#455A64"/>
<path d="M95.938 193.217L98.539 194.768V218.225L95.938 216.686V193.217Z" fill="#455A64"/>
<path d="M102.536 197.071L103.836 197.823V221.28L102.536 220.529V197.071Z" fill="#455A64"/>
<path d="M106.342 199.219L109.134 200.877V224.334L106.342 222.688V199.219Z" fill="#455A64"/>
<path d="M113.131 203.18L114.432 203.932L114.42 227.401L113.131 226.637V203.18Z" fill="#455A64"/>
<path d="M116.15 204.898L116.794 205.28V228.737L116.15 228.368V204.898Z" fill="#455A64"/>
<path d="M110.709 201.904L111.365 202.274V225.743L110.709 225.361V201.904Z" fill="#455A64"/>
<path d="M100.042 195.651L100.698 196.033V219.49L100.042 219.12V195.651Z" fill="#455A64"/>
<path d="M94.1959 192.298L94.8521 192.68V216.137L94.1959 215.768V192.298Z" fill="#455A64"/>
<path d="M90.0077 189.984L90.652 190.366V213.823L89.9957 213.441L90.0077 189.984Z" fill="#455A64"/>
<path d="M84.3167 186.524L84.961 186.905V210.363L84.3167 209.993V186.524Z" fill="#455A64"/>
<path d="M118.429 206.234L119.717 206.986V230.455L118.417 229.704L118.429 206.234Z" fill="#455A64"/>
<path d="M462.46 220.409L471.432 215.195C471.732 214.977 472.085 214.843 472.454 214.807C472.824 214.771 473.196 214.835 473.532 214.992C474.057 215.302 475.119 215.947 475.644 216.185C475.95 216.397 476.193 216.687 476.348 217.025C476.504 217.363 476.565 217.736 476.527 218.106V239.655C476.471 240.679 476.174 241.675 475.66 242.563C475.146 243.45 474.429 244.204 473.568 244.761L464.607 250.035C464.309 250.252 463.959 250.386 463.592 250.424C463.226 250.461 462.855 250.401 462.519 250.25C461.982 249.939 460.921 249.283 460.384 248.985C460.081 248.771 459.841 248.48 459.688 248.143C459.535 247.805 459.474 247.433 459.513 247.064V225.516C459.567 224.493 459.862 223.497 460.374 222.609C460.886 221.722 461.601 220.968 462.46 220.409Z" fill="#FAFAFA"/>
<path d="M459.501 225.516V247.064C459.461 247.433 459.521 247.805 459.674 248.143C459.827 248.481 460.068 248.772 460.372 248.985C460.897 249.271 461.696 249.784 462.448 250.178C462.169 249.957 461.95 249.67 461.81 249.343C461.671 249.016 461.615 248.659 461.648 248.305V226.78C461.681 225.756 461.977 224.758 462.507 223.881L460.372 222.616C459.837 223.492 459.537 224.49 459.501 225.516Z" fill="#E0E0E0"/>
<path d="M473.568 244.821L464.607 250.035C462.973 250.977 461.66 250.214 461.66 248.341V226.78C461.716 225.757 462.011 224.762 462.523 223.875C463.035 222.987 463.749 222.233 464.607 221.674L473.58 216.46C475.215 215.517 476.539 216.281 476.539 218.166V239.714C476.482 240.739 476.183 241.737 475.667 242.624C475.151 243.512 474.431 244.265 473.568 244.821Z" fill="#F0F0F0"/>
<path d="M461.936 262.73C461.804 262.727 461.676 262.691 461.563 262.624C461.45 262.557 461.357 262.462 461.291 262.348C461.242 262.264 461.21 262.171 461.198 262.074C461.185 261.977 461.192 261.878 461.217 261.784C461.243 261.69 461.287 261.602 461.346 261.524C461.406 261.447 461.481 261.382 461.566 261.334L467.818 257.755C467.931 257.69 468.024 257.596 468.089 257.482C468.154 257.369 468.188 257.241 468.188 257.11V233.474C468.174 233.368 468.183 233.261 468.215 233.159C468.246 233.057 468.299 232.963 468.369 232.883C468.44 232.803 468.527 232.739 468.624 232.695C468.721 232.651 468.827 232.628 468.933 232.628C469.04 232.628 469.145 232.651 469.243 232.695C469.34 232.739 469.427 232.803 469.497 232.883C469.568 232.963 469.62 233.057 469.652 233.159C469.683 233.261 469.692 233.368 469.679 233.474V257.075C469.678 257.469 469.574 257.855 469.377 258.197C469.181 258.538 468.898 258.822 468.557 259.02L462.305 262.599C462.197 262.677 462.069 262.722 461.936 262.73Z" fill="#263238"/>
<path d="M275.9 384.908L301.254 373.192C301.254 373.192 299.274 349.329 282.534 355.044C265.794 360.759 275.9 384.908 275.9 384.908Z" fill="#92E3A9"/>
<g opacity="0.5">
<path d="M275.9 384.908L301.254 373.192C301.254 373.192 299.274 349.329 282.534 355.044C265.794 360.759 275.9 384.908 275.9 384.908Z" fill="black"/>
</g>
<path d="M289.848 381.925L284.443 371.092L297.425 363.575C301.565 361.189 307.053 361.475 313.091 364.959C325.917 372.368 336.309 391.459 336.309 407.614C336.309 416.061 333.458 422.039 328.9 424.747L328.709 424.855L315.405 432.539L309.642 421.108C298.677 412.78 290.266 396.339 289.848 381.925Z" fill="#263238"/>
<path d="M276.306 388.595C276.306 402.519 284.037 418.639 294.394 427.552C295.979 428.922 297.684 430.148 299.489 431.214C312.315 438.612 322.719 431.525 322.707 415.369C322.707 403.176 316.742 389.275 308.389 380.029L308.318 379.957C305.78 377.109 302.818 374.67 299.536 372.726C286.698 365.365 276.306 372.452 276.306 388.595Z" fill="#37474F"/>
<path d="M299.525 382.51C291.363 377.738 284.753 382.701 284.753 393.475C284.753 404.249 291.363 416.789 299.525 421.502C307.686 426.215 314.296 421.299 314.296 410.537C314.296 399.775 307.686 387.223 299.525 382.51Z" fill="#455A64"/>
<path d="M299.524 391.888C295.289 389.502 291.864 391.984 291.864 397.58C291.864 403.175 295.289 409.678 299.524 412.124C303.76 414.57 307.196 412.017 307.196 406.433C307.196 400.849 303.76 394.334 299.524 391.888Z" fill="#E0E0E0"/>
<path d="M297.078 391.781C296.552 391.476 295.986 391.247 295.396 391.101C293.272 391.673 291.816 394 291.816 397.58C291.952 401.798 293.46 405.858 296.112 409.141C296.407 409.364 296.713 409.571 297.03 409.762C300.801 411.933 303.843 409.678 303.843 404.703C303.843 399.727 300.849 393.952 297.078 391.781Z" fill="#F5F5F5"/>
<path d="M276.306 388.595C276.306 402.519 284.037 418.639 294.394 427.551C287.21 419.415 282.151 409.626 279.67 399.059C277.702 389.752 278.477 376.389 286.436 373.013C294.394 369.636 304.977 376.747 308.306 379.993C305.768 377.145 302.806 374.706 299.524 372.762C286.698 365.365 276.306 372.452 276.306 388.595Z" fill="#455A64"/>
<path d="M365.959 436.87L342.991 423.602L339.972 421.86L334.185 418.496L331.441 416.897C331.539 416.638 331.579 416.361 331.56 416.085C331.655 415.667 331.691 415.237 331.668 414.809C331.668 397.043 319.199 375.435 303.736 366.558C302.285 365.716 300.773 364.982 299.214 364.363C298.534 364.1 297.89 363.873 297.245 363.682C285.028 359.984 275.924 367.405 275.924 382.606V384.908L237.743 362.847V188.803L285.195 216.245L326.621 246.754L345.401 338.089L359.969 359.494L360.745 360.628L369.645 373.681L372.533 409.201L373.249 416.968L373.559 420.166L374.275 427.85L374.609 431.429C374.698 432.481 374.496 433.536 374.026 434.481C373.555 435.425 372.834 436.222 371.94 436.784C371.047 437.345 370.017 437.651 368.962 437.666C367.907 437.681 366.868 437.406 365.959 436.87Z" fill="#92E3A9"/>
<g opacity="0.15">
<path d="M365.959 436.87L342.991 423.602L339.972 421.86L334.185 418.496L331.441 416.897C331.539 416.638 331.579 416.361 331.56 416.085C331.655 415.667 331.691 415.237 331.668 414.809C331.668 397.043 319.199 375.435 303.736 366.558C302.285 365.716 300.773 364.982 299.214 364.363C298.534 364.1 297.89 363.873 297.245 363.682C285.028 359.984 275.924 367.405 275.924 382.606V384.908L237.743 362.847V188.803L285.195 216.245L326.621 246.754L345.401 338.089L359.969 359.494L360.745 360.628L369.645 373.681L372.533 409.201L373.249 416.968L373.559 420.166L374.275 427.85L374.609 431.429C374.698 432.481 374.496 433.536 374.026 434.481C373.555 435.425 372.834 436.222 371.94 436.784C371.047 437.345 370.017 437.651 368.962 437.666C367.907 437.681 366.868 437.406 365.959 436.87Z" fill="black"/>
</g>
<path d="M303.772 249.57V305.875C303.772 307.951 302.328 308.786 300.539 307.748L253.839 280.819C252.894 280.204 252.107 279.374 251.543 278.398C250.979 277.421 250.654 276.325 250.594 275.199V215.935C250.594 213.871 252.037 213.036 253.839 214.062L281.914 230.277C283.703 231.315 286.507 233.141 288.166 234.369L300.753 243.616C301.642 244.345 302.369 245.251 302.889 246.276C303.409 247.301 303.71 248.423 303.772 249.57Z" fill="#455A64"/>
<path d="M318.782 318.236C317.209 317.211 315.899 315.831 314.96 314.205C314.021 312.58 313.478 310.756 313.377 308.881V259.091C313.377 255.643 314.654 253.806 316.229 254.987L319.08 257.123C321.203 258.897 322.707 261.299 323.376 263.983L334.877 323.76C335.343 326.146 334.03 327.041 331.966 325.836L318.782 318.236Z" fill="#455A64"/>
<g opacity="0.15">
<path d="M306.146 240.931L287.282 227.186C285.875 226.16 283.5 224.609 281.997 223.75L248.529 204.457C248.165 204.198 247.737 204.043 247.291 204.01C246.845 203.976 246.399 204.065 246 204.266C245.627 204.514 245.327 204.857 245.132 205.26C244.937 205.663 244.853 206.111 244.89 206.557V358.373C244.939 359.421 245.239 360.443 245.764 361.352C246.289 362.262 247.025 363.032 247.909 363.599L269.874 376.27C270.332 376.558 270.861 376.714 271.402 376.723C271.731 376.728 272.057 376.659 272.356 376.52C272.76 376.332 273.103 376.034 273.346 375.661C273.613 375.258 273.792 374.802 273.871 374.325C274.659 370.316 277.093 363.133 284.61 360.115C288.551 358.667 292.856 358.541 296.875 359.757C298.991 360.317 301.046 361.089 303.008 362.059C303.867 362.477 304.655 362.895 305.394 363.252C305.756 363.514 306.182 363.674 306.627 363.716C307.071 363.758 307.519 363.68 307.924 363.491C308.172 363.339 308.38 363.13 308.532 362.883C308.828 362.395 308.973 361.83 308.95 361.26V246.396C308.897 245.338 308.619 244.304 308.136 243.362C307.652 242.42 306.974 241.591 306.146 240.931ZM307.041 362.489C306.746 362.525 306.448 362.462 306.194 362.31L305.991 362.214C302.81 360.349 299.355 358.996 295.754 358.205C291.9 357.3 287.864 357.557 284.156 358.945C276.926 361.857 274.098 368.276 273 372.643C272.857 373.156 272.75 373.609 272.666 374.062C272.642 374.329 272.554 374.586 272.411 374.812C272.268 375.038 272.073 375.227 271.843 375.363C271.621 375.44 271.383 375.461 271.15 375.426C270.917 375.391 270.697 375.299 270.507 375.16L248.529 362.501C247.838 362.042 247.263 361.43 246.849 360.712C246.435 359.993 246.193 359.188 246.143 358.361V206.533C246.119 206.31 246.15 206.085 246.233 205.877C246.316 205.669 246.449 205.485 246.62 205.34C246.745 205.273 246.884 205.24 247.026 205.244C247.34 205.261 247.644 205.36 247.909 205.531L281.376 224.86C282.856 225.707 285.171 227.246 286.543 228.212L305.418 241.969C306.082 242.515 306.625 243.193 307.015 243.958C307.405 244.724 307.633 245.562 307.685 246.42V361.308C307.722 361.525 307.704 361.747 307.633 361.956C307.563 362.164 307.441 362.351 307.28 362.501C307.216 362.533 307.147 362.553 307.077 362.56L307.041 362.489Z" fill="black"/>
</g>
<path d="M494.663 358.218C494.663 358.218 477.351 382.152 439.588 404.75C408.244 423.483 374.084 427.861 374.084 427.861L369.622 373.669L490.201 304.037L494.663 358.218Z" fill="#92E3A9"/>
<g opacity="0.3">
<path d="M494.663 358.218C494.663 358.218 477.351 382.152 439.588 404.75C408.244 423.483 374.084 427.861 374.084 427.861L369.622 373.669L490.201 304.037L494.663 358.218Z" fill="black"/>
</g>
<path d="M490.201 304.013C490.201 304.013 472.889 327.96 435.126 350.546C403.782 369.278 369.622 373.657 369.622 373.657L345.449 338.09L466.052 268.469L490.201 304.013Z" fill="#92E3A9"/>
<path d="M496.823 350.236C496.608 350.009 496.417 350.045 496.19 350.427C496.19 350.427 478.878 374.361 441.103 396.959C409.723 415.644 375.587 420.059 375.587 420.059C360.935 421.395 342.99 405.92 342.99 405.92L345.46 404.118C345.46 404.118 362.475 417.004 371.125 417.004C378.582 417.004 405.237 413.616 441.401 393.141C477.565 372.667 493.9 347.909 493.9 347.909C494.546 348.012 495.155 348.28 495.667 348.688C496.18 349.095 496.578 349.629 496.823 350.236Z" fill="#37474F"/>
<path d="M496.178 350.427C496.178 350.427 478.854 374.361 441.091 396.959C409.759 415.692 375.587 420.071 375.587 420.071C360.935 421.407 342.99 405.956 342.99 405.956V426.621C342.99 426.621 360.888 442.132 375.587 440.748C375.587 440.748 409.759 436.357 441.091 417.637C478.854 395.062 496.178 371.104 496.178 371.104C499.209 365.985 497.92 347.36 496.178 350.427Z" fill="#455A64"/>
<path d="M385.586 384.491C390.979 383.214 395.859 386.877 396.479 392.64C396.757 395.47 396.021 398.308 394.401 400.646C392.782 402.984 390.385 404.671 387.638 405.407C386.375 405.724 385.057 405.755 383.78 405.498C382.503 405.241 381.3 404.703 380.258 403.922C379.215 403.141 378.36 402.138 377.754 400.985C377.149 399.832 376.808 398.559 376.757 397.257C376.243 391.483 380.193 385.815 385.586 384.491Z" fill="white"/>
<path d="M481.539 329.57C478.258 332.84 476.158 339.844 476.838 345.225C477.518 350.606 480.596 352.3 483.698 349.007C486.801 345.714 488.901 338.71 488.399 333.353C487.898 327.996 484.808 326.301 481.539 329.57Z" fill="white"/>
<path d="M405.703 377.463C416.13 374.18 426.14 369.695 435.531 364.1C437.023 363.229 438.216 363.909 438.216 365.627V367.81C438.173 368.752 437.907 369.67 437.44 370.49C436.973 371.309 436.319 372.006 435.531 372.523C426.14 378.119 416.13 382.603 405.703 385.887C405.351 386.018 404.972 386.059 404.6 386.005C404.229 385.952 403.876 385.805 403.577 385.579C403.277 385.353 403.039 385.055 402.885 384.712C402.731 384.37 402.666 383.994 402.696 383.62V381.436C402.734 380.547 403.042 379.69 403.579 378.98C404.116 378.27 404.857 377.741 405.703 377.463Z" fill="#37474F"/>
<path d="M470.573 341.979V344.162C470.471 346.12 469.616 347.963 468.187 349.305C461.051 355.28 453.591 360.857 445.84 366.009C444.408 366.952 443.227 366.307 443.227 364.589V362.43C443.29 361.492 443.557 360.58 444.008 359.756C444.459 358.932 445.084 358.215 445.84 357.657C453.589 352.502 461.049 346.925 468.187 340.953C469.547 339.772 470.573 340.261 470.573 341.979Z" fill="#37474F"/>
<path d="M405.702 392.712C416.129 389.432 426.139 384.952 435.531 379.36C437.022 378.489 438.216 379.158 438.216 380.888V383.071C438.167 384.012 437.898 384.928 437.432 385.746C436.966 386.564 436.315 387.262 435.531 387.784C426.137 393.371 416.127 397.851 405.702 401.135C405.351 401.27 404.971 401.314 404.598 401.261C404.225 401.209 403.871 401.063 403.57 400.836C403.269 400.609 403.031 400.309 402.878 399.965C402.725 399.621 402.662 399.244 402.696 398.868V396.685C402.738 395.797 403.048 394.943 403.585 394.234C404.121 393.525 404.859 392.994 405.702 392.712Z" fill="#37474F"/>
<path d="M470.573 357.287V359.47C470.468 361.424 469.613 363.262 468.187 364.601C461.051 370.576 453.591 376.153 445.84 381.305C444.408 382.26 443.227 381.615 443.227 379.885V377.702C443.29 376.764 443.557 375.852 444.008 375.028C444.459 374.204 445.084 373.488 445.84 372.929C453.583 367.766 461.043 362.19 468.187 356.225C469.547 355.068 470.573 355.557 470.573 357.287Z" fill="#37474F"/>
<g opacity="0.15">
<path d="M410.189 316.088C394.15 324.758 377.544 332.332 360.482 338.758C360.123 338.874 359.797 339.074 359.531 339.34C359.264 339.606 359.065 339.932 358.948 340.291C358.832 340.649 358.802 341.03 358.861 341.403C358.92 341.775 359.067 342.128 359.289 342.433L359.372 342.552C359.91 343.289 360.639 343.864 361.48 344.215C362.322 344.566 363.243 344.68 364.145 344.545C371.471 342.946 391.277 337.791 415.892 324.559C416.244 324.377 416.553 324.121 416.798 323.808C417.043 323.496 417.217 323.134 417.31 322.748C417.403 322.363 417.412 321.961 417.336 321.572C417.26 321.182 417.101 320.813 416.87 320.491L414.639 317.174C414.154 316.485 413.435 315.996 412.617 315.797C411.799 315.597 410.936 315.7 410.189 316.088Z" fill="black"/>
</g>
<g opacity="0.15">
<path d="M461.685 280.389C448.876 291.42 435.153 301.342 420.665 310.05C420.317 310.252 420.014 310.524 419.777 310.848C419.54 311.173 419.373 311.543 419.286 311.936C419.2 312.329 419.196 312.735 419.275 313.13C419.354 313.524 419.515 313.897 419.746 314.226L422.001 317.567C422.483 318.258 423.206 318.742 424.027 318.926C424.849 319.109 425.71 318.978 426.439 318.557C448.751 305.111 460.683 293.275 466.147 286.832C466.691 286.119 467.004 285.257 467.044 284.361C467.085 283.466 466.851 282.579 466.374 281.82L465.765 280.914C465.557 280.58 465.277 280.297 464.945 280.085C464.614 279.872 464.24 279.736 463.849 279.686C463.459 279.636 463.062 279.673 462.688 279.794C462.314 279.916 461.971 280.119 461.685 280.389Z" fill="black"/>
</g>
<path d="M466.052 268.41C466.052 268.41 446.126 288.442 413.291 307.557C380.456 326.671 345.461 338.018 345.461 338.018L326.609 246.658L401.968 203.168L436.629 183.171L447.2 177.038L466.052 268.41Z" fill="#455A64"/>
<path d="M447.2 177.015L436.629 183.136L401.968 203.169L326.609 246.659L345.461 338.018L346.749 337.588L347.012 337.505L348.324 337.051L348.873 336.896H348.992H349.112L350.006 336.574L351.402 336.085L352.786 335.584L353.693 335.25L354.886 334.808L358.919 333.281L359.826 332.935C363.059 331.682 366.722 330.227 370.696 328.568L374.609 326.91L375.242 326.635L375.957 326.337C376.781 325.955 377.64 325.597 378.499 325.215L379.239 324.893L380.957 324.118L382.925 323.235C384.357 322.59 385.813 321.91 387.28 321.218C388.748 320.526 390.227 319.822 391.719 319.107C392.84 318.558 393.962 318.009 395.084 317.436L397.804 316.076L398.09 315.933L400.87 314.489L401.097 314.37L403.543 313.081L405.5 312.031C407.091 311.18 408.638 310.321 410.141 309.454L413.231 307.688L416.047 305.875C416.846 305.409 417.634 304.92 418.433 304.443C418.732 304.264 419.042 304.085 419.328 303.894C420.223 303.357 421.13 302.796 422.001 302.247L422.323 302.045L423.6 301.233C424.16 300.875 424.697 300.517 425.258 300.171L426.845 299.121L428.42 298.095C429.076 297.666 429.732 297.236 430.365 296.795C431.665 295.912 432.93 295.053 434.171 294.182L434.422 294.003L435.853 293.012C437.738 291.676 439.552 290.364 441.27 289.099L442.559 288.132L443.752 287.202L444.945 286.271C445.756 285.663 446.532 285.078 447.331 284.47L447.427 284.398L448.393 283.646L450.601 281.88L451.997 280.771C452.283 280.532 452.557 280.294 452.832 280.079C453.106 279.864 453.381 279.613 453.643 279.411L454.443 278.754C454.44 278.735 454.44 278.715 454.443 278.695L456.256 277.239C458.487 275.354 460.36 273.66 461.84 272.347C462.027 272.155 462.226 271.976 462.437 271.81L462.556 271.691L463.176 271.118C464.93 269.507 465.885 268.553 466.016 268.422L447.2 177.015ZM406.573 304.681C406.579 304.705 406.579 304.729 406.573 304.753C406.549 304.938 406.513 305.121 406.466 305.302V305.457C406.406 305.6 406.359 305.755 406.299 305.898C406.276 305.964 406.248 306.028 406.216 306.089C406.153 306.268 406.073 306.44 405.977 306.602C405.659 307.179 405.229 307.686 404.712 308.094C404.543 308.23 404.359 308.346 404.163 308.44C399.725 310.826 395.286 313.141 390.955 315.253L388.676 316.374C386.855 317.241 385.053 318.084 383.271 318.904L380.79 320.097L376.542 321.982C375.838 322.304 375.146 322.602 374.466 322.889L372.45 323.76C369.777 324.953 367.224 325.955 364.813 326.934C363.537 327.459 362.284 327.948 361.091 328.425L359.337 329.105C356.461 330.215 353.932 331.169 351.796 331.945C351.106 332.225 350.339 332.248 349.633 332.009C348.928 331.771 348.332 331.286 347.954 330.644C347.772 330.307 347.639 329.945 347.561 329.57L335.963 271.798C335.796 270.744 335.939 269.663 336.376 268.688C336.812 267.714 337.523 266.887 338.421 266.31L387.34 238.068C387.708 237.817 388.134 237.663 388.577 237.621C389.021 237.579 389.468 237.65 389.877 237.828C390.286 238.005 390.643 238.283 390.915 238.636C391.187 238.989 391.365 239.405 391.432 239.846L403.018 288.216L406.526 302.868L406.585 303.106V303.285C406.598 303.352 406.598 303.421 406.585 303.488C406.592 303.556 406.592 303.624 406.585 303.691C406.598 303.834 406.598 303.978 406.585 304.121C406.597 304.308 406.593 304.495 406.573 304.681ZM449.67 277.859L448.811 278.587C445.959 280.89 442.714 283.36 439.146 286.068C437.953 286.975 436.677 287.882 435.376 288.813L433.98 289.827C432.083 291.187 430.114 292.547 428.014 293.943L425.986 295.303C425.306 295.769 424.602 296.222 423.898 296.675C423.194 297.129 422.478 297.618 421.762 298.071C419.197 299.73 416.536 301.388 413.792 303.023C413.431 303.279 413.011 303.438 412.571 303.485C412.131 303.531 411.686 303.464 411.28 303.289C410.874 303.114 410.519 302.837 410.251 302.486C409.982 302.134 409.809 301.719 409.747 301.281L409.664 300.923L406.144 286.319L394.666 238.068C394.465 237.018 394.585 235.931 395.011 234.95C395.436 233.969 396.148 233.139 397.052 232.568L406.323 227.234L444.062 205.4L445.744 204.445L445.888 204.374C446.248 204.152 446.658 204.024 447.08 204.004C447.503 203.983 447.924 204.07 448.304 204.255C448.684 204.441 449.01 204.72 449.253 205.066C449.496 205.412 449.648 205.815 449.694 206.235L461.232 263.506C461.495 265.267 461.1 267.064 460.122 268.553C459.991 268.756 459.847 268.959 459.704 269.138C459.562 269.301 459.411 269.457 459.251 269.603L458.642 270.152C458.368 270.414 458.082 270.665 457.795 270.915L455.218 273.158C454.299 273.958 453.285 274.817 452.211 275.712L449.956 277.573L449.682 277.788L449.67 277.859Z" fill="#92E3A9"/>
<g opacity="0.3">
<path d="M447.2 177.015L436.629 183.136L401.968 203.169L326.609 246.659L345.461 338.018L346.749 337.588L347.012 337.505L348.324 337.051L348.873 336.896H348.992H349.112L350.006 336.574L351.402 336.085L352.786 335.584L353.693 335.25L354.886 334.808L358.919 333.281L359.826 332.935C363.059 331.682 366.722 330.227 370.696 328.568L374.609 326.91L375.242 326.635L375.957 326.337C376.781 325.955 377.64 325.597 378.499 325.215L379.239 324.893L380.957 324.118L382.925 323.235C384.357 322.59 385.813 321.91 387.28 321.218C388.748 320.526 390.227 319.822 391.719 319.107C392.84 318.558 393.962 318.009 395.084 317.436L397.804 316.076L398.09 315.933L400.87 314.489L401.097 314.37L403.543 313.081L405.5 312.031C407.091 311.18 408.638 310.321 410.141 309.454L413.231 307.688L416.047 305.875C416.846 305.409 417.634 304.92 418.433 304.443C418.732 304.264 419.042 304.085 419.328 303.894C420.223 303.357 421.13 302.796 422.001 302.247L422.323 302.045L423.6 301.233C424.16 300.875 424.697 300.517 425.258 300.171L426.845 299.121L428.42 298.095C429.076 297.666 429.732 297.236 430.365 296.795C431.665 295.912 432.93 295.053 434.171 294.182L434.422 294.003L435.853 293.012C437.738 291.676 439.552 290.364 441.27 289.099L442.559 288.132L443.752 287.202L444.945 286.271C445.756 285.663 446.532 285.078 447.331 284.47L447.427 284.398L448.393 283.646L450.601 281.88L451.997 280.771C452.283 280.532 452.557 280.294 452.832 280.079C453.106 279.864 453.381 279.613 453.643 279.411L454.443 278.754C454.44 278.735 454.44 278.715 454.443 278.695L456.256 277.239C458.487 275.354 460.36 273.66 461.84 272.347C462.027 272.155 462.226 271.976 462.437 271.81L462.556 271.691L463.176 271.118C464.93 269.507 465.885 268.553 466.016 268.422L447.2 177.015ZM406.573 304.681C406.579 304.705 406.579 304.729 406.573 304.753C406.549 304.938 406.513 305.121 406.466 305.302V305.457C406.406 305.6 406.359 305.755 406.299 305.898C406.276 305.964 406.248 306.028 406.216 306.089C406.153 306.268 406.073 306.44 405.977 306.602C405.659 307.179 405.229 307.686 404.712 308.094C404.543 308.23 404.359 308.346 404.163 308.44C399.725 310.826 395.286 313.141 390.955 315.253L388.676 316.374C386.855 317.241 385.053 318.084 383.271 318.904L380.79 320.097L376.542 321.982C375.838 322.304 375.146 322.602 374.466 322.889L372.45 323.76C369.777 324.953 367.224 325.955 364.813 326.934C363.537 327.459 362.284 327.948 361.091 328.425L359.337 329.105C356.461 330.215 353.932 331.169 351.796 331.945C351.106 332.225 350.339 332.248 349.633 332.009C348.928 331.771 348.332 331.286 347.954 330.644C347.772 330.307 347.639 329.945 347.561 329.57L335.963 271.798C335.796 270.744 335.939 269.663 336.376 268.688C336.812 267.714 337.523 266.887 338.421 266.31L387.34 238.068C387.708 237.817 388.134 237.663 388.577 237.621C389.021 237.579 389.468 237.65 389.877 237.828C390.286 238.005 390.643 238.283 390.915 238.636C391.187 238.989 391.365 239.405 391.432 239.846L403.018 288.216L406.526 302.868L406.585 303.106V303.285C406.598 303.352 406.598 303.421 406.585 303.488C406.592 303.556 406.592 303.624 406.585 303.691C406.598 303.834 406.598 303.978 406.585 304.121C406.597 304.308 406.593 304.495 406.573 304.681ZM449.67 277.859L448.811 278.587C445.959 280.89 442.714 283.36 439.146 286.068C437.953 286.975 436.677 287.882 435.376 288.813L433.98 289.827C432.083 291.187 430.114 292.547 428.014 293.943L425.986 295.303C425.306 295.769 424.602 296.222 423.898 296.675C423.194 297.129 422.478 297.618 421.762 298.071C419.197 299.73 416.536 301.388 413.792 303.023C413.431 303.279 413.011 303.438 412.571 303.485C412.131 303.531 411.686 303.464 411.28 303.289C410.874 303.114 410.519 302.837 410.251 302.486C409.982 302.134 409.809 301.719 409.747 301.281L409.664 300.923L406.144 286.319L394.666 238.068C394.465 237.018 394.585 235.931 395.011 234.95C395.436 233.969 396.148 233.139 397.052 232.568L406.323 227.234L444.062 205.4L445.744 204.445L445.888 204.374C446.248 204.152 446.658 204.024 447.08 204.004C447.503 203.983 447.924 204.07 448.304 204.255C448.684 204.441 449.01 204.72 449.253 205.066C449.496 205.412 449.648 205.815 449.694 206.235L461.232 263.506C461.495 265.267 461.1 267.064 460.122 268.553C459.991 268.756 459.847 268.959 459.704 269.138C459.562 269.301 459.411 269.457 459.251 269.603L458.642 270.152C458.368 270.414 458.082 270.665 457.795 270.915L455.218 273.158C454.299 273.958 453.285 274.817 452.211 275.712L449.956 277.573L449.682 277.788L449.67 277.859Z" fill="black"/>
</g>
<path d="M336.596 261.442L445.399 198.599C446.1 198.151 446.656 197.509 446.999 196.75C447.342 195.992 447.458 195.15 447.331 194.327L445.351 184.508C445.316 184.169 445.193 183.845 444.994 183.569C444.795 183.292 444.527 183.073 444.216 182.933C443.906 182.793 443.564 182.737 443.225 182.77C442.886 182.804 442.562 182.926 442.285 183.124L333.493 245.967C332.789 246.415 332.231 247.059 331.887 247.82C331.544 248.581 331.43 249.426 331.561 250.25L333.529 260.058C333.564 260.397 333.687 260.721 333.886 260.997C334.085 261.273 334.353 261.493 334.664 261.633C334.974 261.773 335.316 261.829 335.655 261.796C335.994 261.762 336.319 261.64 336.596 261.442Z" fill="#455A64"/>
<path d="M406.502 303.058C406.711 304.092 406.594 305.165 406.167 306.13C405.739 307.094 405.022 307.901 404.115 308.44C387.238 317.499 369.734 325.338 351.736 331.897C351.303 332.071 350.837 332.146 350.371 332.115C349.905 332.085 349.452 331.95 349.045 331.721C348.639 331.492 348.289 331.174 348.021 330.792C347.754 330.409 347.576 329.971 347.501 329.51L346.737 325.704C357.308 318.021 382.985 299.682 402.696 288.299C402.772 288.247 402.852 288.199 402.934 288.156L406.502 303.058Z" fill="#37474F"/>
<path d="M460.17 268.588C459.92 268.991 459.614 269.357 459.263 269.674C445.184 282.202 429.965 293.387 413.804 303.082C413.443 303.338 413.023 303.498 412.583 303.544C412.143 303.591 411.698 303.523 411.292 303.348C410.885 303.173 410.531 302.897 410.263 302.545C409.994 302.193 409.821 301.778 409.759 301.34L406.18 286.342C421.536 277.873 437.52 270.594 453.989 264.567L460.17 268.588Z" fill="#37474F"/>
<path opacity="0.1" d="M452.581 256.192L439.396 248.603C437.822 247.578 436.511 246.195 435.572 244.568C434.633 242.94 434.091 241.114 433.991 239.237V211.258L444.097 205.411L445.768 204.445C445.816 204.41 445.868 204.382 445.923 204.361L455.468 254.104C455.957 256.454 454.645 257.385 452.581 256.192Z" fill="white"/>
<path opacity="0.1" d="M424.387 216.806V236.183C424.387 238.259 422.943 239.094 421.142 238.056L404.378 228.379L406.37 227.186L424.387 216.806Z" fill="white"/>
<path d="M447.2 177.026L326.609 246.646L285.159 216.185L237.708 188.791L358.299 119.183L405.75 146.577L447.2 177.026Z" fill="#92E3A9"/>
<path d="M314.272 304.741L323.256 299.527C323.554 299.309 323.905 299.175 324.272 299.139C324.64 299.103 325.01 299.167 325.344 299.324L327.468 300.589C327.772 300.8 328.013 301.088 328.166 301.424C328.319 301.76 328.379 302.131 328.339 302.498V324.046C328.285 325.07 327.99 326.066 327.478 326.953C326.966 327.84 326.251 328.594 325.392 329.153L316.408 334.367C316.111 334.586 315.76 334.722 315.393 334.76C315.026 334.797 314.655 334.736 314.32 334.582C313.795 334.272 312.721 333.615 312.196 333.317C311.892 333.104 311.651 332.813 311.498 332.476C311.345 332.138 311.285 331.765 311.325 331.396V309.848C311.38 308.825 311.676 307.829 312.188 306.942C312.7 306.055 313.414 305.301 314.272 304.741Z" fill="#FAFAFA"/>
<path d="M311.289 309.848V331.408C311.25 331.775 311.31 332.146 311.464 332.482C311.617 332.818 311.857 333.106 312.16 333.317C312.673 333.604 313.484 334.117 314.224 334.51C313.945 334.29 313.726 334.002 313.587 333.675C313.447 333.348 313.391 332.991 313.424 332.637V311.113C313.464 310.107 313.755 309.126 314.272 308.261L312.124 306.997C311.613 307.863 311.326 308.843 311.289 309.848Z" fill="#E0E0E0"/>
<path d="M325.356 329.153L316.372 334.367C314.749 335.31 313.425 334.546 313.425 332.673V311.125C313.481 310.1 313.777 309.103 314.288 308.214C314.8 307.325 315.514 306.569 316.372 306.006L325.356 300.792C326.979 299.861 328.303 300.613 328.303 302.498V324.046C328.249 325.07 327.954 326.066 327.442 326.953C326.929 327.84 326.215 328.594 325.356 329.153Z" fill="#F0F0F0"/>
<path d="M333.362 332.732C334.243 333.308 334.975 334.084 335.499 334.996C336.024 335.908 336.326 336.931 336.381 337.982C336.381 339.915 335.033 340.702 333.362 339.736C332.48 339.161 331.747 338.386 331.223 337.473C330.698 336.561 330.397 335.537 330.344 334.486C330.344 332.553 331.692 331.766 333.362 332.732Z" fill="#37474F"/>
<path d="M322.743 342.862C322.348 342.857 321.962 342.75 321.621 342.552C321.281 342.358 320.998 342.076 320.803 341.737C320.608 341.397 320.507 341.011 320.512 340.619V318.76C320.498 318.655 320.507 318.547 320.539 318.445C320.57 318.343 320.623 318.249 320.693 318.169C320.764 318.089 320.851 318.025 320.948 317.981C321.045 317.937 321.151 317.914 321.257 317.914C321.364 317.914 321.469 317.937 321.567 317.981C321.664 318.025 321.751 318.089 321.821 318.169C321.892 318.249 321.944 318.343 321.976 318.445C322.007 318.547 322.016 318.655 322.003 318.76V340.643C321.998 340.774 322.031 340.904 322.096 341.018C322.161 341.131 322.257 341.225 322.373 341.287C322.485 341.354 322.612 341.39 322.743 341.39C322.873 341.39 323.001 341.354 323.113 341.287L332.992 335.584C333.076 335.535 333.17 335.503 333.267 335.49C333.363 335.478 333.462 335.484 333.556 335.51C333.65 335.535 333.739 335.579 333.816 335.639C333.893 335.699 333.958 335.773 334.006 335.858C334.102 336.031 334.128 336.235 334.076 336.427C334.025 336.618 333.902 336.782 333.732 336.884L323.817 342.576C323.488 342.758 323.119 342.857 322.743 342.862Z" fill="#263238"/>
<path d="M75.1861 356.254C74.4846 357.781 74.2054 359.468 74.3773 361.14C74.9783 363.305 75.251 365.549 75.1861 367.795C74.9165 371.165 74.192 372.193 73.9393 374.534C73.5715 376.881 74.0814 379.28 75.3714 381.274C76.8204 383.447 80.0553 385.183 86.0028 384.745C90.8215 384.391 92.8601 381.695 92.8601 378.848L75.1861 356.254Z" fill="#263238"/>
<path d="M77.5787 353.406C80.6114 355.091 85.5649 353.12 89.2547 351.149L93.1299 328.235L76.3656 324.511L77.5787 353.406Z" fill="#FFA8A7"/>
<path d="M76.332 349.329C76.2053 349.95 76.132 350.582 76.1129 351.216C75.9781 352.328 75.6749 353.406 75.4558 354.585C75.4558 354.872 75.3379 355.175 75.2873 355.462C75.1441 357.71 75.2174 359.967 75.5064 362.201C75.4268 364.872 75.0596 367.527 74.4112 370.12C73.5014 374.854 73.5183 377.803 77.7809 380.886C79.9272 382.305 82.5013 382.931 85.0595 382.655C87.1318 382.655 89.9961 382.099 91.0407 380.97C91.9091 380.233 92.5028 379.223 92.7255 378.106C92.7255 373.051 90.6869 367.407 90.1477 362.454C89.9551 361.12 89.8706 359.774 89.895 358.427C90.0129 356.742 90.5184 355.057 90.6363 353.372C90.7491 352.751 90.6481 352.11 90.3499 351.553C90.0581 351.252 89.7064 351.015 89.3175 350.858C88.9286 350.702 88.5112 350.628 88.0922 350.643C85.9019 350.441 83.7116 350.306 81.5044 350.222C81.2451 350.181 80.9801 350.192 80.7254 350.256C80.4706 350.32 80.2313 350.434 80.0218 350.592C79.6174 350.98 79.6343 351.637 79.5332 352.193C79.4321 352.749 79.0446 353.406 78.4886 353.322C78.3068 353.275 78.1434 353.175 78.0201 353.033C77.8967 352.892 77.8192 352.716 77.7978 352.53C77.7978 352.159 77.4608 349.278 77.4608 348.908C77.3597 348.941 76.5847 348.84 76.332 349.329Z" fill="#37474F"/>
<path d="M93.1128 377.247C93.1097 376.194 92.8309 375.16 92.3041 374.248C89.8611 369.867 77.5954 370.17 73.9224 374.77C73.8196 375.996 74.0541 377.226 74.6006 378.328C75.147 379.43 75.9846 380.361 77.0225 381.021C79.1454 382.604 82.4983 382.823 85.2446 382.706C87.3848 382.705 89.475 382.059 91.2427 380.852C91.8388 380.463 92.3242 379.927 92.6519 379.295C92.9796 378.664 93.1384 377.958 93.1128 377.247Z" fill="#455A64"/>
<path d="M109.119 354.08C111.68 359.624 115.706 357.45 120.913 353.844L123.457 320.67L107.383 325.017L109.119 354.08Z" fill="#FFA8A7"/>
<path d="M142.108 366.733C142.409 367.629 142.355 368.606 141.957 369.463C141.569 370.255 137.391 372.613 131.763 372.243C127.579 371.941 123.55 370.534 120.087 368.165C117.915 366.889 115.428 366.247 112.91 366.312C110.113 366.16 106.457 364.762 105.833 363.448C105.52 362.278 105.555 361.043 105.934 359.893L142.108 366.733Z" fill="#263238"/>
<path d="M122.379 349.161C122.583 349.571 122.763 349.993 122.918 350.424C123.546 351.984 124.561 353.358 125.867 354.417C127.758 355.848 129.804 357.063 131.966 358.04C133.314 358.714 134.763 358.95 136.144 359.489C137.714 360.065 139.221 360.799 140.643 361.679C141.192 362.053 141.641 362.556 141.952 363.143C142.262 363.73 142.424 364.385 142.424 365.049C142.424 365.713 142.262 366.367 141.952 366.955C141.641 367.542 141.192 368.045 140.643 368.419C136.277 370.406 131.34 370.748 126.743 369.379C123.474 368.452 119.852 364.965 115.555 364.628C112.826 364.409 107.67 363.65 105.918 361.578C105.362 358.562 106.137 357.737 106.845 355.226C107.226 353.805 107.458 352.348 107.535 350.879C107.535 350.104 107.148 347.863 108.782 347.661V349.346C108.782 349.346 109.069 349.919 110.753 350.29C111.293 350.408 111.697 351.132 111.967 351.806C112.236 352.48 112.388 352.968 112.927 352.985C113.116 352.972 113.298 352.907 113.453 352.797C113.608 352.687 113.729 352.537 113.803 352.362C113.946 352.011 114.064 351.651 114.157 351.284C114.4 350.712 114.764 350.199 115.224 349.781C115.683 349.362 116.227 349.047 116.819 348.857C117.801 348.572 118.813 348.402 119.835 348.352C120.627 348.268 121.267 347.964 121.941 348.638C122.11 348.792 122.257 348.968 122.379 349.161Z" fill="#37474F"/>
<path d="M107.215 353.44C107.097 354.063 106.979 354.67 106.811 355.276C106.103 357.787 105.328 358.646 105.884 361.628C107.232 363.212 110.585 364.038 113.297 364.425C114.224 359.269 111.006 355.411 107.215 353.44Z" fill="#455A64"/>
<path d="M78.775 221.736C78.0673 243.217 78.3706 251.827 78.4548 291.337C76.628 297.395 75.6526 303.678 75.5569 310.005C75.2873 319.895 76.3319 340.332 76.3319 340.332C76.3319 340.332 84.5203 345.387 91.4956 341.377C91.4956 341.377 97.0556 311.302 99.1954 297.571C101.066 285.457 102.986 267.732 102.986 267.732L105.665 292.921C104.902 299.271 104.749 305.681 105.21 312.06C105.665 318.53 107.434 341.343 107.434 341.343C107.434 341.343 114.848 346.516 122.598 342.371C122.598 342.371 126.237 296.981 126.355 291.101C126.473 284.361 123.862 216.277 123.862 216.277L78.775 221.736Z" fill="#455A64"/>
<path d="M102.936 267.681L106.996 244.228C106.996 244.228 115.808 243.453 120.694 238.533C120.694 238.533 119.818 243.369 108.732 246.25L104.671 269.838L105.615 292.802L102.936 267.681Z" fill="#263238"/>
<path d="M140.744 361.544C139.475 360.858 138.143 360.293 136.767 359.859C134.292 360.045 131.983 361.178 130.323 363.024C128.662 364.87 127.778 367.285 127.855 369.766C132.122 370.944 136.67 370.556 140.676 368.671C141.241 368.267 141.702 367.735 142.022 367.118C142.342 366.502 142.512 365.819 142.519 365.125C142.526 364.43 142.368 363.744 142.06 363.122C141.751 362.5 141.3 361.959 140.744 361.544Z" fill="#455A64"/>
<path d="M109.793 166.691C113.584 166.59 120.661 166.506 125.58 172.874C129.051 177.356 138.537 188.156 143.878 195.249C147.669 191.492 156.834 182.394 158.368 179.698C159.811 177.173 160.996 174.508 161.906 171.746C162.498 170.135 162.932 168.47 163.203 166.775C163.552 164.688 163.654 162.568 163.506 160.457C163.506 158.57 166.303 159.598 167.314 162.63C167.813 164.308 168.046 166.053 168.005 167.803L172.604 165.697C174.289 164.972 179.563 163.254 180.001 166.219C179.952 166.891 179.997 167.565 180.136 168.224C180.296 168.499 180.482 168.759 180.692 168.999C181.04 169.481 181.255 170.047 181.314 170.639C181.374 171.231 181.275 171.827 181.029 172.369C180.764 172.84 180.652 173.382 180.709 173.919C180.816 174.475 180.816 175.047 180.709 175.604C180.518 176.029 180.287 176.436 180.018 176.817C179.752 177.345 179.581 177.915 179.512 178.502C179.448 179.081 179.3 179.649 179.074 180.187C178.468 181.484 176.884 181.754 175.705 182.158C173.83 182.738 171.985 183.413 170.178 184.18C167.213 186.05 159.008 200.102 150.819 209.048C148.006 212.115 145.512 214.018 142.917 213.614C140.811 213.53 138.267 211.559 135.824 209.335C128.023 202.292 115.421 189.116 115.421 189.116C110.164 182.731 109.086 171.021 109.793 166.691Z" fill="#FFA8A7"/>
<path d="M109.793 166.691C113.442 166.192 117.157 166.778 120.475 168.376C123.845 170.061 124.519 171.122 127.703 174.863C130.887 178.603 135.319 184.23 135.319 184.23C135.319 184.23 132.808 194.879 122.446 197.524L108.799 181.67L109.793 166.691Z" fill="#455A64"/>
<path d="M170.06 168.19C168.375 168.713 167.988 169.875 168.055 172.167C168.055 173.565 167.701 176.16 166.185 177.221C166.915 177.135 167.603 176.83 168.156 176.345C168.881 175.604 169.066 175.519 169.47 175.941C169.777 176.213 170.139 176.414 170.532 176.53C170.275 176.828 170.122 177.2 170.095 177.592C170.067 177.984 170.167 178.374 170.38 178.704C171.121 179.9 174.39 179.9 177.12 178.485C177.12 178.485 172.773 179.883 171.745 178.485C170.717 177.086 173.025 175.351 174.744 174.862C174.744 174.862 170.532 175.907 169.875 174.542C169.218 173.177 170.953 172.099 173.43 171.442C173.43 171.442 169.959 172.099 169.352 170.937C169.115 170.471 169.056 169.935 169.186 169.429C169.316 168.924 169.627 168.483 170.06 168.19Z" fill="#F28F8F"/>
<path d="M123.07 183.101C122.126 176.21 121.216 166.944 110.534 166.522L96.6511 165.865C93.2814 166.741 78.1177 171.139 78.1177 171.139V193.042C78.1177 193.042 78.6232 202.191 79.2466 213.732C79.2466 213.732 77.9998 227.211 78.1177 232.451C87.991 238.701 114.19 236.915 124.603 230.631C125.091 221.112 124.064 189.925 123.07 183.101Z" fill="#92E3A9"/>
<path d="M106.036 143.98L84.3179 142.851C80.19 146.119 72.5239 152.96 72.5239 154.83V156.127C72.5094 156.177 72.5094 156.229 72.5239 156.279C73.3158 157.728 76.1127 158.57 80.4259 158.553C85.4805 158.553 93.4835 157.896 95.5896 156.06C98.6728 153.28 106.052 145.209 106.052 145.209H104.957L106.036 143.98Z" fill="#92E3A9"/>
<path opacity="0.2" d="M106.036 143.98L84.3179 142.851C80.19 146.119 72.5239 152.96 72.5239 154.83V156.127C72.5094 156.177 72.5094 156.229 72.5239 156.279C73.3158 157.728 76.1127 158.57 80.4259 158.553C85.4805 158.553 93.4835 157.896 95.5896 156.06C98.6728 153.28 106.052 145.209 106.052 145.209H104.957L106.036 143.98Z" fill="black"/>
<path d="M84.3183 144.064C79.9882 147.433 71.7999 154.83 72.6086 156.279C73.4173 157.728 76.1973 158.57 80.5105 158.553C85.5651 158.553 93.5681 157.896 95.6742 156.06C98.7575 153.28 106.137 145.209 106.137 145.209L84.3183 144.064Z" fill="#92E3A9"/>
<path opacity="0.4" d="M84.3183 144.064C79.9882 147.433 71.7999 154.83 72.6086 156.279C73.4173 157.728 76.1973 158.57 80.5105 158.553C85.5651 158.553 93.5681 157.896 95.6742 156.06C98.7575 153.28 106.137 145.209 106.137 145.209L84.3183 144.064Z" fill="black"/>
<path d="M84.318 144.064C84.318 144.704 86.5083 145.968 86.5083 145.968L85.8007 142.16L84.318 144.064Z" fill="#92E3A9"/>
<path opacity="0.3" d="M84.318 144.064C84.318 144.704 86.5083 145.968 86.5083 145.968L85.8007 142.16L84.318 144.064Z" fill="black"/>
<path d="M118.605 129.81C117.548 127.856 116.047 126.177 114.224 124.907C111.006 122.683 106.844 122.329 102.936 122.481C100.442 122.525 97.9654 122.905 95.5728 123.61C93.3046 124.302 91.2352 125.527 89.5379 127.183C87.8406 128.84 86.5649 130.878 85.8175 133.129C84.9034 135.915 84.6123 138.869 84.9645 141.78C85.3168 144.691 86.3039 147.49 87.8562 149.978C89.2209 152.117 90.097 154.442 91.2259 156.717C92.1863 158.587 92.9107 160.087 92.9107 160.087L92.5906 154.173L98.218 153.684C99.8371 153.411 101.482 153.32 103.121 153.415C104.662 153.489 106.18 153.011 107.4 152.067C110.063 150.372 112.602 148.491 114.999 146.439C116.561 145.19 117.94 143.726 119.093 142.092C119.361 141.713 119.598 141.313 119.801 140.896C120.173 140.191 120.424 139.427 120.542 138.638C120.738 137.527 120.789 136.394 120.694 135.269C120.49 134.112 120.156 132.982 119.7 131.899C119.373 131.183 119.008 130.486 118.605 129.81Z" fill="#263238"/>
<path d="M103.997 134.696C102.718 134.526 101.452 134.273 100.206 133.938H99.8522C99.3921 135.343 98.5737 136.605 97.4775 137.597C96.3814 138.59 95.0455 139.28 93.6014 139.599C94.0526 141.954 94.1095 144.368 93.7699 146.743C93.6765 147.254 93.494 147.744 93.2307 148.192C93.0896 148.407 92.9036 148.589 92.6855 148.726C92.4674 148.862 92.2224 148.95 91.9671 148.984C91.2763 148.984 90.9899 148.613 90.7709 148.074C90.473 147.38 90.1239 146.71 89.7263 146.069C89.5612 145.783 89.357 145.523 89.1197 145.294C88.726 144.877 88.2325 144.567 87.6859 144.395C87.1392 144.222 86.5575 144.191 85.9957 144.306C85.434 144.421 84.9108 144.677 84.4757 145.05C84.0406 145.423 83.7079 145.902 83.5091 146.439C82.9704 148.095 83.0549 149.891 83.7468 151.488C84.4386 153.086 85.6902 154.376 87.2664 155.116C91.5964 156.313 92.5231 153.432 92.5231 153.432L93.3655 168.848C95.7075 171.291 104.603 174.661 107.164 177.559C108.31 175.587 111.596 170.735 107.266 167.989L107.097 163.288C109.014 163.527 110.952 163.561 112.876 163.389C116.01 162.799 117.56 160.154 118.402 156.65C119.75 151.123 119.582 140.61 119.161 136.431C119.043 134.941 118.824 133.46 118.504 132C118.638 132.421 115.538 133.685 115.134 133.685C113.736 134.155 112.289 134.461 110.821 134.595C109.141 134.763 107.453 134.825 105.766 134.78C105.175 134.786 104.585 134.757 103.997 134.696Z" fill="#FFA8A7"/>
<path d="M107.097 163.153C103.842 162.638 100.639 161.832 97.5274 160.743C96.0618 160.032 94.8416 158.9 94.0229 157.491C94.4445 158.912 95.1431 160.235 96.0785 161.383C97.9487 163.624 107.148 164.635 107.148 164.635L107.097 163.153Z" fill="#F28F8F"/>
<path d="M104.082 144.872C104.082 145.131 104.005 145.383 103.862 145.599C103.719 145.814 103.516 145.982 103.278 146.083C103.04 146.183 102.777 146.211 102.523 146.163C102.269 146.115 102.035 145.993 101.85 145.813C101.665 145.632 101.537 145.401 101.483 145.149C101.428 144.896 101.45 144.633 101.544 144.392C101.638 144.152 101.801 143.944 102.013 143.796C102.225 143.647 102.475 143.565 102.734 143.558C102.909 143.554 103.084 143.584 103.247 143.648C103.41 143.712 103.559 143.808 103.685 143.931C103.81 144.053 103.91 144.2 103.978 144.361C104.047 144.523 104.082 144.697 104.082 144.872Z" fill="#263238"/>
<path d="M102.312 138.419L98.9426 139.413C98.8158 138.966 98.8681 138.488 99.0882 138.079C99.3084 137.67 99.6792 137.363 100.122 137.223C100.344 137.146 100.58 137.116 100.814 137.135C101.048 137.155 101.276 137.223 101.482 137.336C101.688 137.448 101.869 137.603 102.012 137.79C102.155 137.976 102.257 138.19 102.312 138.419Z" fill="#263238"/>
<path d="M104.536 154.038L109.389 155.723C109.293 156.046 109.133 156.347 108.919 156.607C108.705 156.868 108.441 157.083 108.143 157.24C107.845 157.397 107.518 157.492 107.182 157.521C106.846 157.55 106.508 157.511 106.187 157.408C105.523 157.178 104.976 156.694 104.667 156.063C104.358 155.432 104.311 154.704 104.536 154.038Z" fill="#B16668"/>
<path d="M105.109 155.049C104.897 155.048 104.687 155.082 104.486 155.15C104.533 155.638 104.715 156.104 105.013 156.494C105.311 156.884 105.712 157.183 106.171 157.357C106.516 157.479 106.885 157.519 107.249 157.475C107.257 157.413 107.257 157.351 107.249 157.29C107.254 156.711 107.033 156.154 106.634 155.735C106.234 155.317 105.687 155.071 105.109 155.049Z" fill="#F28F8F"/>
<path d="M118.015 139.144L114.864 137.947C115.026 137.545 115.338 137.22 115.733 137.041C116.129 136.862 116.578 136.843 116.987 136.987C117.197 137.061 117.39 137.175 117.555 137.323C117.72 137.472 117.854 137.651 117.949 137.852C118.045 138.052 118.1 138.269 118.111 138.491C118.122 138.713 118.09 138.934 118.015 139.144Z" fill="#263238"/>
<path d="M97.561 140.391L86.5253 144.182C87.1414 144.184 87.7485 144.329 88.2984 144.607C88.8483 144.885 89.3258 145.287 89.6928 145.782L97.5105 142.817L97.561 140.391Z" fill="#37474F"/>
<path d="M116.128 144.653C116.125 144.91 116.046 145.161 115.902 145.373C115.757 145.586 115.554 145.752 115.316 145.85C115.079 145.948 114.818 145.975 114.566 145.926C114.313 145.877 114.081 145.756 113.897 145.576C113.713 145.397 113.585 145.167 113.53 144.916C113.475 144.665 113.495 144.404 113.588 144.164C113.68 143.924 113.84 143.716 114.049 143.567C114.258 143.417 114.507 143.332 114.764 143.322C114.941 143.32 115.116 143.353 115.281 143.418C115.445 143.484 115.595 143.582 115.722 143.705C115.848 143.829 115.949 143.976 116.019 144.139C116.089 144.301 116.126 144.476 116.128 144.653Z" fill="#263238"/>
<path d="M122.059 139.851L121.351 139.767C118.938 139.482 116.494 139.607 114.123 140.138C111.815 140.896 110.989 141.705 109.709 141.739C108.428 141.772 107.501 140.98 105.058 140.306C102.509 139.889 99.9083 139.889 97.3586 140.306C97.089 140.306 96.8195 140.306 96.5836 140.407C96.3085 140.494 96.0707 140.671 95.9086 140.909C95.7466 141.148 95.6697 141.434 95.6906 141.722C95.77 142.285 96.0233 142.809 96.4151 143.221C96.524 143.41 96.6035 143.615 96.651 143.828C96.8207 145.236 97.1081 146.629 97.5103 147.989C97.7434 148.54 98.0681 149.047 98.4706 149.489C98.6278 149.642 98.7968 149.783 98.9761 149.91L99.2625 150.112C99.534 150.277 99.822 150.412 100.122 150.517H100.257H100.492H100.728C100.978 150.569 101.232 150.603 101.487 150.618H102.228C103.337 150.687 104.442 150.416 105.393 149.841C106.345 149.266 107.098 148.414 107.552 147.4C108.378 145.799 108.209 143.575 109.675 143.541H109.944C111.006 143.777 110.837 145.833 111.495 147.299C111.744 147.882 112.085 148.423 112.505 148.899C112.575 148.986 112.655 149.065 112.741 149.135L112.876 149.253C112.913 149.301 112.959 149.341 113.011 149.371L113.129 149.455L113.264 149.556H113.365H113.449C113.84 149.775 114.26 149.939 114.696 150.045H114.814C115.317 150.153 115.832 150.199 116.347 150.18C117.319 150.219 118.28 149.953 119.093 149.418C119.906 148.883 120.531 148.106 120.879 147.197C121.317 145.822 121.644 144.413 121.856 142.985C121.906 142.78 122.004 142.589 122.143 142.429C122.52 141.991 122.76 141.452 122.834 140.879C122.884 140.492 122.463 139.885 122.059 139.851ZM106.76 146.052C106.58 146.877 106.191 147.643 105.631 148.276C105.179 148.729 104.636 149.083 104.038 149.312C103.44 149.541 102.8 149.642 102.16 149.607C101.512 149.667 100.859 149.556 100.268 149.284C99.6762 149.011 99.1668 148.588 98.7907 148.057L98.6896 147.888C98.6056 147.736 98.6056 147.736 98.5213 147.585C98.5156 147.546 98.5156 147.506 98.5212 147.467V147.349C98.517 147.321 98.517 147.293 98.5212 147.265C98.5145 147.209 98.5145 147.152 98.5212 147.096C98.5212 146.945 98.4032 146.793 98.3527 146.641C98.3527 146.641 98.3527 146.456 98.3527 146.372C98.3065 146.223 98.2727 146.071 98.2516 145.917V145.748C98.0157 144.653 97.7798 142.48 98.2516 141.974C99.5567 141.176 101.107 140.877 102.615 141.132H102.868C103.222 141.132 103.576 141.233 103.93 141.3L104.351 141.402C104.706 141.486 105.054 141.592 105.395 141.722L105.715 141.856L106.052 142.025H106.187C106.454 142.168 106.688 142.363 106.878 142.598C107.246 143.727 107.204 144.95 106.76 146.052ZM120.525 145.327C120.427 146.056 120.172 146.755 119.776 147.375C119.38 147.994 118.854 148.52 118.234 148.916C117.705 149.165 117.133 149.308 116.549 149.337C115.868 149.409 115.181 149.29 114.565 148.992C113.949 148.694 113.428 148.23 113.061 147.652V147.551V147.433C113.04 147.369 113.012 147.306 112.977 147.248V147.046V146.945C112.977 146.945 112.977 146.945 112.977 146.86C112.884 146.598 112.816 146.327 112.775 146.052C112.455 144.943 112.502 143.761 112.91 142.682C113.987 141.719 115.346 141.129 116.785 140.997L117.88 140.896H118.824H119.127L119.666 140.98H119.784H119.885H120.003H120.155L120.424 141.081C120.637 141.167 120.832 141.293 120.997 141.452C121.098 142.025 120.778 144.215 120.525 145.294V145.327Z" fill="#263238"/>
<path d="M109.27 143.743L109.523 152.926L114.578 151.443L109.86 143.608C109.656 143.607 109.454 143.653 109.27 143.743Z" fill="#F28F8F"/>
<path d="M83.2564 138.807C83.3366 140.64 83.6887 142.452 84.301 144.182C84.648 143.604 85.0796 143.081 85.5815 142.632C88.4407 140.148 91.7142 138.186 95.2526 136.836C103.302 133.424 112.282 132.895 120.677 135.336C120.514 133.765 120.14 132.224 119.565 130.753C116.616 123.542 110.888 119.852 101.891 120.964C91.3437 122.295 82.751 128.344 83.2564 138.807Z" fill="#92E3A9"/>
<path d="M102.464 131.95C105.88 130.956 109.455 130.63 112.994 130.989C113.838 130.255 114.565 129.397 115.151 128.445C115.977 127.08 115.657 125.362 114.831 125.075C114.005 124.789 113.988 125.8 110.905 127.4C111.298 126.397 111.369 125.295 111.107 124.25C110.568 123.003 109.54 125.294 107.266 126.811C104.991 128.327 102.7 129.136 102.464 131.95Z" fill="#263238"/>
<path d="M107.165 177.424C105.48 176.362 101.739 174.526 99.8186 176.564C97.8979 178.603 96.887 179.193 95.6233 178.822C94.3597 178.451 90.3666 174.34 88.8839 172.083C87.1991 169.505 87.6034 168.46 87.6034 168.46L90.7541 164.316C91.6302 163.153 91.9167 163.018 93.0287 162.934L93.1803 166C93.3084 166.755 93.5841 167.477 93.9918 168.124C94.3995 168.772 94.931 169.333 95.5559 169.774C98.6898 171.914 104.856 172.487 107.165 177.424Z" fill="#455A64"/>
<path d="M107.165 177.424C108.192 176.463 110.534 174.054 112.219 174.576C113.904 175.099 114.679 176.076 114.713 175.166C114.172 172.973 113.23 170.899 111.933 169.05C110.803 167.268 109.166 165.866 107.232 165.023L107.333 167.854C107.333 167.854 109.355 170.415 109.119 171.948C108.883 173.481 107.367 175.924 107.165 177.424Z" fill="#455A64"/>
<path d="M151.106 203.707L114.528 209.975L100.072 253.393L134.914 246.519L151.106 203.707Z" fill="#263238"/>
<path opacity="0.15" d="M119.97 235.922C119.575 237.357 118.807 238.661 117.745 239.703C116.682 240.744 115.363 241.486 113.921 241.853C110.661 242.467 107.296 242.188 104.182 241.044L105.396 237.421L119.97 235.922Z" fill="black"/>
<path opacity="0.15" d="M140.07 209.2L140.491 207.869C140.71 207.127 138.621 206.908 135.807 207.38L130.416 208.29C127.602 208.762 125.142 209.739 124.906 210.48L124.502 211.811L140.07 209.2Z" fill="black"/>
<path d="M143.001 204.264C143.136 203.809 142.31 203.607 141.131 203.826L138.991 204.213C138.991 204.213 139.867 201.315 135.15 201.939C133.896 202.012 132.683 202.409 131.629 203.091C130.575 203.773 129.715 204.717 129.135 205.831L126.844 206.269C125.851 206.355 124.924 206.798 124.232 207.515L123.895 208.341L142.732 205.123C142.732 205.123 142.85 204.735 143.001 204.264Z" fill="#92E3A9"/>
<path opacity="0.3" d="M143.001 204.264C143.136 203.809 142.31 203.607 141.131 203.826L138.991 204.213C138.991 204.213 139.867 201.315 135.15 201.939C133.896 202.012 132.683 202.409 131.629 203.091C130.575 203.773 129.715 204.717 129.135 205.831L126.844 206.269C125.851 206.355 124.924 206.798 124.232 207.515L123.895 208.341L142.732 205.123C142.732 205.123 142.85 204.735 143.001 204.264Z" fill="black"/>
<path d="M125.125 210.615C125.311 210.009 127.063 209.234 129.253 208.712V208.509C129.438 207.852 129.253 207.448 127.855 207.667V207.145L140.895 205.005L140.323 205.527C138.638 205.797 137.88 205.948 137.526 207.094L137.441 207.347C139.48 207.161 140.811 207.347 140.676 208.021L140.255 209.352L124.755 211.963L125.125 210.615Z" fill="#92E3A9"/>
<path opacity="0.4" d="M125.125 210.615C125.311 210.009 127.063 209.234 129.253 208.712V208.509C129.438 207.852 129.253 207.448 127.855 207.667V207.145L140.895 205.005L140.323 205.527C138.638 205.797 137.88 205.948 137.526 207.094L137.441 207.347C139.48 207.161 140.811 207.347 140.676 208.021L140.255 209.352L124.755 211.963L125.125 210.615Z" fill="black"/>
<path d="M108.058 229.418C112.472 231.019 117.442 230.615 122.076 230.766C122.514 230.766 123.053 230.766 123.238 231.255C123.286 231.449 123.273 231.654 123.2 231.841C123.128 232.028 123 232.188 122.834 232.3C122.497 232.522 122.191 232.789 121.924 233.091C121.57 233.614 121.705 234.305 121.604 234.928C121.361 235.829 120.856 236.638 120.155 237.253C119.484 238.057 118.701 238.761 117.83 239.342C114.584 240.891 110.917 241.323 107.401 240.572C105.223 240.097 103.096 239.414 101.049 238.533C99.0942 237.758 87.2497 233.951 85.885 233.479C75.4389 229.553 61.0503 224.701 60.3089 219.697C59.5676 214.693 63.8977 198.215 66.088 185.562C68.1772 173.549 72.642 172.083 79.4151 170.853C81.7686 174.229 83.1553 178.184 83.4255 182.29C83.6957 186.397 82.8392 190.499 80.9484 194.155L76.5509 213.682C83.4101 218.109 90.5024 222.164 97.7969 225.83C99.1973 226.066 100.635 225.944 101.975 225.476C104.459 224.734 107.073 224.533 109.641 224.886" fill="#FFA8A7"/>
<path d="M79.668 170.701C72.5243 171.51 69.1546 173.262 67.4697 178.991C65.7849 184.719 63.0386 198.333 63.0386 198.333C67.6888 202.629 74.0069 203.387 79.2974 203.488L81.673 193.935C83.4253 190.111 86.6265 179.075 79.668 170.701Z" fill="#455A64"/>
</svg>
