<svg width="500" height="501" viewBox="0 0 500 501" fill="none" xmlns="http://www.w3.org/2000/svg">
<path d="M252.29 493.05C381.486 493.05 486.22 432.582 486.22 357.99C486.22 283.398 381.486 222.93 252.29 222.93C123.094 222.93 18.3601 283.398 18.3601 357.99C18.3601 432.582 123.094 493.05 252.29 493.05Z" fill="#FAFAFA"/>
<path d="M474.19 223.24L471.52 224.83L416.76 193.21L419.43 191.62L474.19 223.24Z" fill="#FAFAFA"/>
<path d="M419.43 191.62L471.52 221.69V98.14L419.43 68.09V191.62Z" fill="white"/>
<path d="M411.73 196.12L476.56 233.55V95.23L411.73 57.8V196.12ZM416.73 66.53L471.49 98.14V224.83L416.73 193.21V66.53Z" fill="#F0F0F0"/>
<path d="M416.76 193.21L419.43 191.62V68.09L416.76 66.53V193.21Z" fill="#E0E0E0"/>
<path d="M411.73 57.8L414.44 56.25L479.27 93.68L476.56 95.23L411.73 57.8Z" fill="#FAFAFA"/>
<path d="M479.27 93.68L476.56 95.23V233.55L479.27 232V93.68Z" fill="#E0E0E0"/>
<path d="M423.34 188.5L467.61 214.07V102.85L423.34 77.29V188.5Z" fill="#F0F0F0"/>
<path d="M423.34 188.5L467.61 214.07V102.85L423.34 77.29V188.5Z" fill="#F0F0F0"/>
<path d="M467.61 169.88C465.503 170.04 463.387 170.04 461.28 169.88C453.911 169.319 446.656 167.74 439.72 165.19C434.36 163.19 429.01 160.64 423.34 160.49V188.5L429.34 191.97C431.682 189.821 434.498 188.255 437.56 187.4C446.09 185.16 454.84 189.4 463.61 190.4C464.938 190.541 466.274 190.608 467.61 190.6V169.88Z" fill="#FAFAFA"/>
<path d="M467.61 145.9C457.71 142.97 447.54 140.54 440.47 133.27C434.78 127.41 432.09 119.27 430.22 111.34C428.35 103.41 427.06 95.17 423.45 87.84C423.45 87.76 423.37 87.7 423.34 87.62V133.62C423.89 134.45 424.45 135.28 425.04 136.08C431.54 144.9 441.13 152.26 452.04 152.83C457.18 153.09 462.49 151.89 467.58 151.91L467.61 145.9Z" fill="#FAFAFA"/>
<path d="M467.61 127.15C460 120.5 456 109.7 457.8 99.68C457.94 98.94 458.11 98.21 458.3 97.47L441.3 87.64C441.373 88.76 441.423 89.88 441.45 91C441.63 97.5 441.45 104.09 442.85 110.43C444.096 115.752 446.469 120.744 449.811 125.069C453.153 129.395 457.385 132.952 462.22 135.5C463.954 136.392 465.757 137.144 467.61 137.75V127.15Z" fill="#FAFAFA"/>
<path d="M394.83 103.42L392.54 104.78L345.65 77.71L347.93 76.34L394.83 103.42Z" fill="#FAFAFA"/>
<path d="M347.93 76.34L392.54 102.09V64.16L347.93 38.43V76.34Z" fill="white"/>
<path d="M341.34 80.2L396.85 112.25V61.67L341.34 29.67V80.2ZM345.65 37.09L392.54 64.16V104.78L345.65 77.71V37.09Z" fill="#F0F0F0"/>
<path d="M345.65 77.71L347.93 76.34V38.43L345.65 37.09V77.71Z" fill="#E0E0E0"/>
<path d="M341.34 29.62L343.66 28.29L399.17 60.34L396.85 61.67L341.34 29.62Z" fill="#FAFAFA"/>
<path d="M399.17 60.34L396.85 61.67V112.25L399.17 110.92V60.34Z" fill="#E0E0E0"/>
<path d="M349.68 74.95L390.8 98.69V95.6L380.52 71.86L374.11 77.79L375 83.3L362.22 57.38L349.68 71.86V74.95Z" fill="#F0F0F0"/>
<path d="M374.5 60.39C375.378 60.9718 376.107 61.7519 376.628 62.6673C377.149 63.5828 377.448 64.6079 377.5 65.66C377.5 67.6 376.14 68.39 374.5 67.42C373.622 66.8381 372.893 66.058 372.372 65.1426C371.851 64.2272 371.552 63.2021 371.5 62.15C371.46 60.21 372.82 59.42 374.5 60.39Z" fill="#F0F0F0"/>
<path d="M394.83 174.68L392.54 176.05L345.65 148.97L347.93 147.61L394.83 174.68Z" fill="#FAFAFA"/>
<path d="M347.93 147.61L392.54 173.36V135.43L347.93 109.69V147.61Z" fill="white"/>
<path d="M341.34 151.5L396.85 183.5V132.94L341.34 100.94V151.5ZM345.65 108.39L392.54 135.47V176.09L345.65 149.01V108.39Z" fill="#F0F0F0"/>
<path d="M345.65 148.97L347.93 147.61V109.69L345.65 108.36V148.97Z" fill="#E0E0E0"/>
<path d="M341.34 100.89L343.66 99.56L399.17 131.61L396.85 132.94L341.34 100.89Z" fill="#FAFAFA"/>
<path d="M399.17 131.61L396.85 132.94V183.51L399.17 182.19V131.61Z" fill="#E0E0E0"/>
<path d="M349.68 146.21L390.8 169.96V166.87L380.52 143.12L374.11 149.06L375 154.56L362.22 128.64L349.68 143.12V146.21Z" fill="#F0F0F0"/>
<path d="M374.5 131.66C375.378 132.242 376.107 133.022 376.628 133.937C377.149 134.853 377.448 135.878 377.5 136.93C377.5 138.87 376.14 139.65 374.5 138.68C373.623 138.1 372.894 137.321 372.373 136.408C371.852 135.494 371.553 134.471 371.5 133.42C371.46 131.5 372.82 130.69 374.5 131.66Z" fill="#F0F0F0"/>
<path d="M147.96 42.14L150.77 43.71V167.05L147.96 165.48V42.14Z" fill="#FAFAFA"/>
<path d="M147.96 165.48L147.95 45.33L35.1699 110.45L35.1899 230.59L147.96 165.48Z" fill="white"/>
<path d="M156 170.06V34.68L30 107.44V242.82L156 170.06ZM35.17 233.79V110.5L150.77 43.76V167.05L35.17 233.79Z" fill="#F0F0F0"/>
<path d="M150.77 167.05L147.96 165.48L35.1899 230.59L35.1699 233.79L150.77 167.05Z" fill="#E0E0E0"/>
<path d="M119.28 61.8899L122.09 60.2599V183.6L119.28 182.04V61.8899Z" fill="#FAFAFA"/>
<path d="M55.9299 98.47L58.7399 96.84V220.18L55.9299 218.62V98.47Z" fill="#FAFAFA"/>
<path d="M29.9499 242.82L27.1599 241.2V105.81L29.9499 107.44V242.82Z" fill="#E0E0E0"/>
<path d="M27.1599 105.81L29.9499 107.44L155.98 34.68L153.19 33.05L27.1599 105.81Z" fill="#FAFAFA"/>
<path d="M35.1699 166.68V169.92L150.78 103.17L147.98 101.54L35.1699 166.68Z" fill="#E0E0E0"/>
<path d="M35.1799 175.93L35.1699 169.92L150.78 103.17L150.77 109.2L35.1799 175.93Z" fill="#F0F0F0"/>
<path d="M58.74 226.21L63.95 223.2V87.81L58.74 90.82V226.21Z" fill="#F0F0F0"/>
<path d="M122.08 189.63L127.29 186.63V51.24L122.08 54.25V189.63Z" fill="#F0F0F0"/>
<path d="M58.7399 156.31L55.9299 154.69V98.47L58.7399 96.84V156.31Z" fill="#FAFAFA"/>
<path d="M122.07 119.75L119.26 118.13V61.9L122.07 60.28V119.75Z" fill="#FAFAFA"/>
<path d="M78.5099 454.38C78.1813 455.971 77.5314 457.479 76.5999 458.81C74.7349 461.453 72.2846 463.63 69.4399 465.17C57.0499 472.32 36.9599 472.32 24.5699 465.17C21.7275 463.627 19.2778 461.45 17.4099 458.81C16.4882 457.476 15.8454 455.969 15.5199 454.38C14.4099 449 17.4399 443.38 24.5799 439.27C36.9699 432.11 57.0599 432.11 69.4499 439.27C76.5799 443.4 79.6099 449 78.5099 454.38Z" fill="#EBEBEB"/>
<path d="M469.73 437.4C469.029 440.781 467.652 443.985 465.68 446.82C462.42 451.74 457.34 456.35 450.48 460.32C424.18 475.5 381.48 475.5 355.23 460.32C348.38 456.32 343.3 451.74 340.03 446.82C338.078 443.98 336.718 440.777 336.03 437.4C333.68 425.99 340.11 414.09 355.27 405.34C381.57 390.14 424.22 390.14 450.52 405.34C465.64 414.09 472.07 425.99 469.73 437.4Z" fill="#EBEBEB"/>
<path d="M101 444.78L14.1 395.11C12.83 394.38 12.83 393.2 14.1 392.47L290.85 232.69C291.56 232.33 292.344 232.142 293.14 232.142C293.936 232.142 294.72 232.33 295.43 232.69L382.34 282.36C382.616 282.454 382.857 282.633 383.027 282.87C383.197 283.108 383.288 283.393 383.288 283.685C383.288 283.977 383.197 284.262 383.027 284.5C382.857 284.737 382.616 284.916 382.34 285.01L105.59 444.78C104.879 445.142 104.093 445.33 103.295 445.33C102.497 445.33 101.711 445.142 101 444.78Z" fill="#EBEBEB"/>
<path d="M355.93 383.81L344.1 376.98C342.753 376.291 341.256 375.949 339.743 375.986C338.231 376.022 336.752 376.436 335.44 377.19L274.36 416.58C262.44 409.58 245.97 405.32 227.78 405.32C191.4 405.32 161.9 422.54 161.9 443.78C161.9 465.02 191.4 482.25 227.78 482.25C264.16 482.25 293.67 465.03 293.67 443.78C293.67 436.99 290.67 430.62 285.35 425.08L355.82 388.67C358.31 387.39 358.36 385.21 355.93 383.81Z" fill="#EBEBEB"/>
<path d="M284.91 417.7C284.353 417.956 283.739 418.059 283.129 417.999C282.519 417.939 281.937 417.719 281.44 417.36C280.009 416.435 278.817 415.184 277.962 413.71C277.107 412.237 276.613 410.581 276.52 408.88C276.457 408.266 276.561 407.646 276.821 407.086C277.082 406.526 277.489 406.047 278 405.7L339 367.09C340.25 366.25 342 366.3 344 367.44C346 368.736 347.667 370.485 348.864 372.546C350.061 374.606 350.755 376.92 350.89 379.3C350.89 381.6 350.05 383.17 348.7 383.84L284.91 417.7Z" fill="#455A64"/>
<path d="M276.52 408.88C276.52 405.75 278.7 404.47 281.42 406.03C282.849 406.96 284.039 408.213 284.894 409.688C285.748 411.163 286.244 412.818 286.34 414.52C286.34 417.65 284.15 418.92 281.44 417.36C280.009 416.435 278.817 415.184 277.962 413.71C277.107 412.237 276.613 410.581 276.52 408.88Z" fill="#37474F"/>
<path d="M269.3 422.18C268.43 421.623 267.705 420.867 267.184 419.975C266.662 419.084 266.359 418.081 266.3 417.05C266.251 416.682 266.305 416.307 266.457 415.968C266.609 415.629 266.853 415.339 267.16 415.13L279.29 408.07C279.626 407.914 279.998 407.85 280.367 407.886C280.736 407.921 281.089 408.053 281.39 408.27C282.258 408.829 282.982 409.585 283.503 410.476C284.024 411.368 284.328 412.369 284.39 413.4C284.43 413.77 284.37 414.144 284.218 414.483C284.065 414.823 283.824 415.115 283.52 415.33L271.39 422.38C271.056 422.536 270.685 422.6 270.318 422.565C269.95 422.529 269.599 422.397 269.3 422.18Z" fill="#F1371C"/>
<path opacity="0.2" d="M269.3 422.18C268.43 421.623 267.705 420.867 267.184 419.975C266.662 419.084 266.359 418.081 266.3 417.05C266.251 416.682 266.305 416.307 266.457 415.968C266.609 415.629 266.853 415.339 267.16 415.13L279.29 408.07C279.626 407.914 279.998 407.85 280.367 407.886C280.736 407.921 281.089 408.053 281.39 408.27C282.258 408.829 282.982 409.585 283.503 410.476C284.024 411.368 284.328 412.369 284.39 413.4C284.43 413.77 284.37 414.144 284.218 414.483C284.065 414.823 283.824 415.115 283.52 415.33L271.39 422.38C271.056 422.536 270.685 422.6 270.318 422.565C269.95 422.529 269.599 422.397 269.3 422.18Z" fill="black"/>
<path opacity="0.2" d="M275 412.41C274.56 412.07 274.1 411.737 273.62 411.41L267.23 415.12C269.821 416.68 272.209 418.554 274.34 420.7L280.2 417.3L279.72 416.74C278.27 415.167 276.692 413.719 275 412.41Z" fill="black"/>
<path opacity="0.15" d="M283.72 408.03L346.53 369.44C345.789 368.662 344.944 367.989 344.02 367.44C342.02 366.3 340.25 366.25 339.02 367.1L278.02 405.7C278.576 405.442 279.191 405.338 279.801 405.398C280.411 405.458 280.994 405.679 281.49 406.04C282.338 406.576 283.091 407.249 283.72 408.03Z" fill="black"/>
<path d="M283 433.11C283 432.86 283 432.66 283 432.52C283 432.38 283 432.05 283 431.81C283 431.23 282.91 430.66 282.83 430.09C282.83 429.88 282.76 429.68 282.72 429.46C282.575 428.665 282.382 427.881 282.14 427.11L281.93 426.47C281.72 425.9 281.5 425.32 281.25 424.76C281.16 424.56 281.07 424.37 280.97 424.17L280.7 423.63C280.57 423.38 280.44 423.13 280.29 422.88C280.14 422.63 280.01 422.38 279.85 422.13L279.38 421.4C278.542 420.115 277.591 418.907 276.54 417.79C275.17 416.297 273.671 414.928 272.06 413.7C270.27 412.32 268.385 411.067 266.42 409.95C244.42 397.37 208.84 397.37 187.06 409.95C186.51 410.27 185.98 410.59 185.46 410.95C183.513 412.156 181.664 413.514 179.93 415.01C179.44 415.45 178.93 415.89 178.5 416.34C177.357 417.451 176.301 418.648 175.34 419.92C175.17 420.14 175.01 420.37 174.85 420.6C174.69 420.83 174.43 421.21 174.24 421.52C174.05 421.83 173.71 422.37 173.47 422.8C173.23 423.23 172.96 423.8 172.73 424.24C172.63 424.45 172.53 424.65 172.45 424.86C172.37 425.07 172.2 425.44 172.09 425.74C171.98 426.04 171.92 426.18 171.85 426.4C171.328 427.917 170.993 429.492 170.85 431.09C170.85 431.26 170.85 431.43 170.85 431.6C170.85 431.97 170.85 432.34 170.85 432.69C170.85 434.06 170.85 440.23 170.85 441.37C170.85 449.69 176.33 458.04 187.37 464.37C209.28 477.02 244.82 477.02 266.73 464.37C277.8 457.99 283.25 449.61 283.1 441.26C283 440.31 283.06 435.13 283 433.11ZM190.17 415.42C199.77 409.88 212.71 406.83 226.6 406.83C240.49 406.83 253.54 409.88 263.26 415.43C271.91 420.36 276.67 426.54 276.69 432.83C276.71 439.12 272.01 445.24 263.47 450.17C253.82 455.75 240.85 458.81 226.94 458.81C213.03 458.81 200.08 455.75 190.42 450.17C181.81 445.17 177.06 438.98 177.06 432.66C177.06 426.34 181.77 420.3 190.21 415.42H190.17Z" fill="#F1371C"/>
<path opacity="0.25" d="M283 433.11C283 432.86 283 432.66 283 432.52C283 432.38 283 432.05 283 431.81C283 431.23 282.91 430.66 282.83 430.09C282.83 429.88 282.76 429.68 282.72 429.46C282.575 428.665 282.382 427.881 282.14 427.11L281.93 426.47C281.72 425.9 281.5 425.32 281.25 424.76C281.16 424.56 281.07 424.37 280.97 424.17L280.7 423.63C280.57 423.38 280.44 423.13 280.29 422.88C280.14 422.63 280.01 422.38 279.85 422.13L279.38 421.4C278.542 420.115 277.591 418.907 276.54 417.79C275.17 416.297 273.671 414.928 272.06 413.7C270.27 412.32 268.385 411.067 266.42 409.95C244.42 397.37 208.84 397.37 187.06 409.95C186.51 410.27 185.98 410.59 185.46 410.95C183.513 412.156 181.664 413.514 179.93 415.01C179.44 415.45 178.93 415.89 178.5 416.34C177.357 417.451 176.301 418.648 175.34 419.92C175.17 420.14 175.01 420.37 174.85 420.6C174.69 420.83 174.43 421.21 174.24 421.52C174.05 421.83 173.71 422.37 173.47 422.8C173.23 423.23 172.96 423.8 172.73 424.24C172.63 424.45 172.53 424.65 172.45 424.86C172.37 425.07 172.2 425.44 172.09 425.74C171.98 426.04 171.92 426.18 171.85 426.4C171.328 427.917 170.993 429.492 170.85 431.09C170.85 431.26 170.85 431.43 170.85 431.6C170.85 431.97 170.85 432.34 170.85 432.69C170.85 434.06 170.85 440.23 170.85 441.37C170.85 449.69 176.33 458.04 187.37 464.37C209.28 477.02 244.82 477.02 266.73 464.37C277.8 457.99 283.25 449.61 283.1 441.26C283 440.31 283.06 435.13 283 433.11ZM190.17 415.42C199.77 409.88 212.71 406.83 226.6 406.83C240.49 406.83 253.54 409.88 263.26 415.43C271.91 420.36 276.67 426.54 276.69 432.83C276.71 439.12 272.01 445.24 263.47 450.17C253.82 455.75 240.85 458.81 226.94 458.81C213.03 458.81 200.08 455.75 190.42 450.17C181.81 445.17 177.06 438.98 177.06 432.66C177.06 426.34 181.77 420.3 190.21 415.42H190.17Z" fill="white"/>
<path d="M283 433.11H276.69C276.69 439.36 272.01 445.24 263.47 450.17C254.11 455.58 241.62 458.62 228.18 458.8V473.85C242.13 473.68 255.99 470.53 266.63 464.38C277.7 458 283.15 449.62 283 441.27C283 440.31 283.06 435.13 283 433.11Z" fill="#F1371C"/>
<path d="M283 432.5C283 432.27 283 432.03 283 431.79C283 431.21 282.91 430.64 282.83 430.07C282.83 429.86 282.76 429.66 282.72 429.44C282.575 428.645 282.382 427.861 282.14 427.09L281.93 426.45C281.72 425.88 281.5 425.3 281.25 424.74C281.16 424.54 281.07 424.35 280.97 424.15L280.7 423.61C280.57 423.36 280.44 423.11 280.29 422.86C280.14 422.61 280.01 422.36 279.85 422.11L279.38 421.38C278.542 420.095 277.591 418.887 276.54 417.77C275.165 416.282 273.667 414.914 272.06 413.68C270.27 412.3 268.385 411.047 266.42 409.93C244.42 397.35 208.84 397.35 187.06 409.93C186.51 410.25 185.98 410.57 185.46 410.93C183.513 412.136 181.664 413.494 179.93 414.99C179.44 415.43 178.93 415.87 178.5 416.32C177.357 417.431 176.301 418.628 175.34 419.9C175.17 420.12 175.01 420.35 174.85 420.58C174.69 420.81 174.43 421.19 174.24 421.5C174.05 421.81 173.71 422.35 173.47 422.78C173.23 423.21 172.96 423.78 172.73 424.22C172.63 424.43 172.53 424.63 172.45 424.84C172.37 425.05 172.2 425.42 172.09 425.72C171.98 426.02 171.92 426.16 171.85 426.38C171.328 427.897 170.993 429.472 170.85 431.07C170.85 431.24 170.85 431.41 170.85 431.58C170.85 431.95 170.85 432.32 170.85 432.67C170.85 440.98 176.36 449.3 187.37 455.67C209.28 468.32 244.82 468.32 266.73 455.67C277.54 449.43 283 441.3 283.1 433.14C283.05 432.86 283 432.66 283 432.5ZM263.47 450.15C253.82 455.73 240.85 458.79 226.94 458.79C213.03 458.79 200.08 455.73 190.42 450.15C181.81 445.15 177.06 438.96 177.06 432.64C177.06 426.32 181.73 420.28 190.17 415.4C199.77 409.86 212.71 406.81 226.6 406.81C240.49 406.81 253.54 409.86 263.26 415.41C271.91 420.34 276.67 426.52 276.69 432.81C276.71 439.1 272.05 445.24 263.51 450.17L263.47 450.15Z" fill="#F1371C"/>
<path opacity="0.45" d="M283 432.5C283 432.27 283 432.03 283 431.79C283 431.21 282.91 430.64 282.83 430.07C282.83 429.86 282.76 429.66 282.72 429.44C282.575 428.645 282.382 427.861 282.14 427.09L281.93 426.45C281.72 425.88 281.5 425.3 281.25 424.74C281.16 424.54 281.07 424.35 280.97 424.15L280.7 423.61C280.57 423.36 280.44 423.11 280.29 422.86C280.14 422.61 280.01 422.36 279.85 422.11L279.38 421.38C278.542 420.095 277.591 418.887 276.54 417.77C275.165 416.282 273.667 414.914 272.06 413.68C270.27 412.3 268.385 411.047 266.42 409.93C244.42 397.35 208.84 397.35 187.06 409.93C186.51 410.25 185.98 410.57 185.46 410.93C183.513 412.136 181.664 413.494 179.93 414.99C179.44 415.43 178.93 415.87 178.5 416.32C177.357 417.431 176.301 418.628 175.34 419.9C175.17 420.12 175.01 420.35 174.85 420.58C174.69 420.81 174.43 421.19 174.24 421.5C174.05 421.81 173.71 422.35 173.47 422.78C173.23 423.21 172.96 423.78 172.73 424.22C172.63 424.43 172.53 424.63 172.45 424.84C172.37 425.05 172.2 425.42 172.09 425.72C171.98 426.02 171.92 426.16 171.85 426.38C171.328 427.897 170.993 429.472 170.85 431.07C170.85 431.24 170.85 431.41 170.85 431.58C170.85 431.95 170.85 432.32 170.85 432.67C170.85 440.98 176.36 449.3 187.37 455.67C209.28 468.32 244.82 468.32 266.73 455.67C277.54 449.43 283 441.3 283.1 433.14C283.05 432.86 283 432.66 283 432.5ZM263.47 450.15C253.82 455.73 240.85 458.79 226.94 458.79C213.03 458.79 200.08 455.73 190.42 450.15C181.81 445.15 177.06 438.96 177.06 432.64C177.06 426.32 181.73 420.28 190.17 415.4C199.77 409.86 212.71 406.81 226.6 406.81C240.49 406.81 253.54 409.86 263.26 415.41C271.91 420.34 276.67 426.52 276.69 432.81C276.71 439.1 272.05 445.24 263.51 450.17L263.47 450.15Z" fill="white"/>
<path d="M276.73 432.83C276.731 433.903 276.596 434.971 276.33 436.01C275.02 430.82 270.51 425.85 263.33 421.75C253.61 416.2 240.59 413.15 226.67 413.15C212.75 413.15 199.84 416.2 190.24 421.74C183.24 425.74 178.82 430.69 177.53 435.81C177.263 434.781 177.129 433.723 177.13 432.66C177.13 426.42 181.8 420.3 190.24 415.42C199.84 409.88 212.78 406.83 226.67 406.83C240.56 406.83 253.61 409.88 263.33 415.43C272 420.36 276.71 426.5 276.73 432.83Z" fill="#F1371C"/>
<path opacity="0.25" d="M276.73 432.83C276.731 433.903 276.596 434.971 276.33 436.01C275.02 430.82 270.51 425.85 263.33 421.75C253.61 416.2 240.59 413.15 226.67 413.15C212.75 413.15 199.84 416.2 190.24 421.74C183.24 425.74 178.82 430.69 177.53 435.81C177.263 434.781 177.129 433.723 177.13 432.66C177.13 426.42 181.8 420.3 190.24 415.42C199.84 409.88 212.78 406.83 226.67 406.83C240.56 406.83 253.61 409.88 263.33 415.43C272 420.36 276.71 426.5 276.73 432.83Z" fill="white"/>
<path opacity="0.55" d="M276.63 434.5C275.89 440.17 271.3 445.69 263.51 450.19C253.86 455.77 240.89 458.83 226.98 458.83C213.07 458.83 200.12 455.77 190.46 450.19C182.57 445.63 177.93 440.04 177.2 434.28C177.93 428.59 182.48 423.09 190.2 418.63C199.8 413.09 212.74 410.04 226.63 410.04C240.52 410.04 253.57 413.09 263.29 418.64C271.24 423.14 275.91 428.72 276.63 434.5Z" fill="white"/>
<path d="M292.06 244.14L297.06 241.23C297.06 241.23 323.77 154.07 326.26 149.02C328.75 143.97 324.26 141.39 319.44 144.17L68.6699 288.79C63.8599 291.56 62.3399 295.38 58.0599 303.7C53.7799 312.02 29.6599 392.1 29.6599 392.1C29.4844 393.01 29.5972 393.952 29.9827 394.794C30.3681 395.637 31.0069 396.338 31.8099 396.8L88.9099 429.87L351.24 278.42L292.06 244.14Z" fill="#F1371C"/>
<path opacity="0.35" d="M292.06 244.14L297.06 241.23C297.06 241.23 323.77 154.07 326.26 149.02C328.75 143.97 324.26 141.39 319.44 144.17L68.6699 288.79C63.8599 291.56 62.3399 295.38 58.0599 303.7C53.7799 312.02 29.6599 392.1 29.6599 392.1C29.4844 393.01 29.5972 393.952 29.9827 394.794C30.3681 395.637 31.0069 396.338 31.8099 396.8L88.9099 429.87L351.24 278.42L292.06 244.14Z" fill="white"/>
<path d="M61.2098 305.71C57.9998 312.01 32.8398 393.8 32.8398 393.8L300.26 239.4C300.26 239.4 326.79 156.27 329.44 151.03C332.09 145.79 327.44 143.41 322.62 146.18L71.8098 290.8C66.9998 293.58 64.4698 299.41 61.2098 305.71Z" fill="#F1371C"/>
<path opacity="0.25" d="M61.2098 305.71C57.9998 312.01 32.8398 393.8 32.8398 393.8L300.26 239.4C300.26 239.4 326.79 156.27 329.44 151.03C332.09 145.79 327.44 143.41 322.62 146.18L71.8098 290.8C66.9998 293.58 64.4698 299.41 61.2098 305.71Z" fill="black"/>
<path d="M295.17 242.35L32.8398 393.8L90.9298 427.35L353.26 275.9L295.17 242.35Z" fill="#F1371C"/>
<path opacity="0.15" d="M295.17 242.35L32.8398 393.8L90.9298 427.35L353.26 275.9L295.17 242.35Z" fill="black"/>
<path d="M313.44 51.34L60.7 196.99C55.15 200.19 53.42 205.37 54.4 212.2L84.3099 422.1C85.3099 428.92 90.7199 432.92 96.3099 429.72L346.81 285.15C352.36 281.95 356.06 273.82 355.08 267L325.24 57.9C324.26 51.08 319 48.14 313.44 51.34Z" fill="#F1371C"/>
<path opacity="0.35" d="M313.44 51.34L60.7 196.99C55.15 200.19 53.42 205.37 54.4 212.2L84.3099 422.1C85.3099 428.92 90.7199 432.92 96.3099 429.72L346.81 285.15C352.36 281.95 356.06 273.82 355.08 267L325.24 57.9C324.26 51.08 319 48.14 313.44 51.34Z" fill="white"/>
<path d="M330.47 55.7999C329.346 55.4115 328.148 55.2853 326.968 55.4309C325.787 55.5765 324.656 55.99 323.66 56.6399L73.1499 201.22C70.3422 202.981 68.116 205.53 66.7499 208.55L58.6699 205.13C60.4399 201.25 63.5499 199.83 66.1999 198.28L316.69 53.7099C317.724 53.0268 318.908 52.6036 320.14 52.4765C321.373 52.3494 322.618 52.5221 323.77 52.9799L330.47 55.7999Z" fill="#455A64"/>
<path d="M92.4298 431.83C89.9498 430.83 88.0998 428.24 87.5698 424.49L57.9298 216.49C57.3198 212.23 57.1198 208.4 58.6698 205.18L66.7598 208.61C66.5398 209.06 66.3498 209.51 66.1498 209.98C65.9498 210.45 65.8698 210.73 65.7598 211.11C65.7341 211.164 65.7172 211.221 65.7098 211.28C65.5543 211.708 65.4273 212.145 65.3298 212.59C65.206 213.041 65.1059 213.498 65.0298 213.96C64.9607 214.29 64.9139 214.624 64.8898 214.96C64.6798 216.432 64.6798 217.927 64.8898 219.4L94.6798 428.5C95.2198 432.29 97.0998 434.89 99.6098 435.89L92.4298 431.83Z" fill="#263238"/>
<path d="M323.65 56.6499L70.9097 202.31C65.3697 205.51 63.6397 210.69 64.6197 217.51L94.6697 428.5C95.6697 435.32 100.94 438.26 106.48 435.06L357 290.5C362.54 287.3 366.24 279.17 365.27 272.34L335.46 63.2199C334.48 56.3899 329.19 53.4999 323.65 56.6499Z" fill="#37474F"/>
<path d="M341.6 289.5L118 418.5C115.13 420.16 112.39 418.63 111.88 415.1L82.3897 208.21C81.8797 204.67 83.7997 200.46 86.6697 198.8L310.27 69.7999C313.14 68.1399 315.88 69.6599 316.39 73.1999L345.88 280.1C346.39 283.63 344.47 287.85 341.6 289.5Z" fill="#263238"/>
<path d="M82.3897 208.21L111.88 415.14C111.88 415.28 111.93 415.41 111.96 415.54L335.56 286.54C338.43 284.88 340.35 280.67 339.84 277.13L310.27 69.7699L86.6697 198.77C83.7997 200.5 81.8797 204.67 82.3897 208.21Z" fill="#FAFAFA"/>
<path d="M93.7897 336.34C93.8991 337.25 93.7565 338.172 93.3773 339.006C92.9982 339.84 92.3971 340.554 91.6397 341.07C90.1897 341.9 88.8197 341.14 88.5597 339.36C88.4513 338.449 88.5955 337.526 88.9765 336.692C89.3574 335.858 89.9605 335.144 90.7197 334.63C92.1597 333.79 93.5397 334.56 93.7897 336.34Z" fill="#263238"/>
<path d="M83.9998 287.89C83.411 288.289 82.9437 288.843 82.6491 289.49C82.3544 290.138 82.244 290.854 82.3298 291.56L87.2198 325.63C87.4198 327.02 88.4898 327.63 89.6098 326.97C90.1977 326.568 90.6642 326.012 90.9586 325.363C91.253 324.714 91.3641 323.997 91.2798 323.29L86.3998 289.22C86.2098 287.83 85.1398 287.24 83.9998 287.89Z" fill="#263238"/>
<path d="M191.93 185.2L213.48 168.58L208.69 135.2L148.5 169.93L180.5 187.84L191.93 185.2ZM320.93 181.58L311.93 118.58L267.86 140.74L276.86 203.74L320.93 181.58ZM204.76 274.92L219.76 262.08C220.915 258.372 222.863 254.959 225.47 252.08L214.3 174.39L192.76 191.03L181.37 193.65L193.37 277.26L204.76 274.92ZM311 112.72L306.15 78.89L262.51 104.11L267 134.9L311 112.72ZM237.84 149.24L259.84 138.18L255.53 108.18L217.22 130.31L221.72 161.75L237.84 149.24ZM328.37 234.04L321.69 187.35L277.62 209.5L280.12 227.02L328.37 234.04ZM109 231.71L131.8 226.44L125.61 183.16L87.23 205.31L92.53 242.31L109 231.71ZM187.6 278.37L175.66 194.99L138.53 175.7L132.19 179.36L147.55 286.71L187.6 278.37ZM113.17 260.9L135.97 255.63L132.61 232.29L109.81 237.5L93.38 248.14L96.7 271.5L113.17 260.9ZM154.39 384.29L149.39 349.29L145.1 389.63L154.39 384.29ZM199.06 358.5L192.6 313.4L156.46 348.88L161 380.5L199.06 358.5ZM335 280.02L329.26 239.87L281 232.87L266.27 287.22L270.56 317.22L335 280.02ZM109.28 359.02L116 406.42L139.58 392.82L146.74 331.04L141.21 292.38L118.32 297.06L108.42 302.31C106.953 305.786 104.926 308.999 102.42 311.82L108.42 353.22L124.86 342.5L125.68 348.34L109.28 359.02ZM117.53 291.28L140.44 286.58L136.79 261.5L114 266.73L97.55 277.32L97.86 279.55C104.32 278.12 109.52 281.61 110.58 288.96C110.844 291.027 110.814 293.121 110.49 295.18L117.53 291.28ZM191.8 307.52L188.45 284.17L148.45 292.45L155.69 343L191.8 307.52ZM232.93 271.82C237.49 269.18 240.62 263.13 239.93 258.31C239.24 253.49 234.93 251.68 230.39 254.31C225.85 256.94 222.68 262.99 223.39 267.83C224.1 272.67 228.33 274.5 232.9 271.85L232.93 271.82ZM262.61 321.82L258 289.5L263.89 265.55L252.89 262.7L243.3 270.57L238 275.34L246 331.34L262.61 321.82ZM237.5 336.32L229.31 279.03C224.06 279.62 219.82 276.45 218.95 270.42C218.844 269.645 218.794 268.863 218.8 268.08L205.55 280.19L194.16 282.87L204.53 355.36L237.5 336.32ZM247.75 217.96L269.75 206.96L260.75 144.04L238.75 155.11L222.59 167.5L231.59 230.41L247.75 217.96ZM253.19 255.96L265.46 259.17L272.89 228.82L270.59 212.82L248.59 223.88L232.47 236.34L234 247.14C239.24 246.56 243.43 249.76 244.3 255.81C244.616 258.28 244.439 260.788 243.78 263.19L253.19 255.96Z" fill="#F0F0F0"/>
<path d="M257.9 268.43L254.52 267.56L247 273.72L243.3 277.06L250 323.71L257.22 319.54L252.85 289.02L257.9 268.43ZM271.36 287.77L274.48 309.57L329.61 277.74L324.71 243.5L284.91 237.72L271.36 287.77ZM247.5 250.04L261.5 253.73L267.74 228.31L266.54 219.96L251.83 227.35L237.75 238.23L238.46 243.23C240.112 243.62 241.682 244.297 243.1 245.23C244.925 246.465 246.432 248.113 247.5 250.04ZM284.65 223.37L322.65 228.88L317.7 194.5L283 211.97L284.65 223.37ZM132.55 267L116.35 270.74L107.35 276.57C107.67 276.73 107.98 276.9 108.29 277.08C110.104 278.185 111.665 279.66 112.871 281.409C114.078 283.158 114.902 285.141 115.29 287.23L121.82 285.97L134.82 283.25L132.55 267ZM220.08 280.93C218.528 279.874 217.208 278.513 216.2 276.93L208.47 284.02L199.64 286.1L208.45 347.65L232.11 333.99L224.8 282.99C223.116 282.591 221.517 281.893 220.08 280.93ZM120.4 301.2L112.65 305.32C112.43 305.8 112.2 306.27 111.96 306.74C110.775 309.042 109.358 311.217 107.73 313.23L112.3 345.09L128.73 334.41L131 350.5L114.6 361.18L120 398.77L134.81 390.22L141.7 330.76L136.98 297.76L120.4 301.2ZM184.15 289.59L153.91 295.85L159.19 332.72L186.49 305.92L184.15 289.59ZM280.81 196.5L315.49 179.12L307.85 125.73L273.17 143.18L280.81 196.5ZM201.94 271L215.15 259.66C215.608 258.354 216.156 257.081 216.79 255.85C217.739 254.005 218.872 252.259 220.17 250.64L210.53 183.33L195.44 194.97L186.87 196.97L197.6 271.9L201.94 271ZM126.28 223.17L121.64 190.83L92.6399 207.59L96.4499 234.18L106.26 227.8L126.28 223.17ZM305.63 110.28L302.24 86.5599L267.9 106.38L271 127.71L305.63 110.28ZM234.76 145.62L254.48 135.71L251.63 115.78L222.63 132.53L225.52 152.76L234.76 145.62ZM208.14 166.62L204.74 142.83L157.62 170.04L181.06 183.15L189.15 181.28L208.14 166.62ZM182.06 275L171 197.42L139 180.81L137.57 181.64L151.84 281.3L182.06 275Z" fill="#E0E0E0"/>
<path d="M193.7 356.21L189 323.7L161.73 350.5L164.93 372.84L193.7 356.21ZM232.31 267.77C233.542 267.027 234.546 265.96 235.213 264.685C235.88 263.41 236.183 261.976 236.09 260.54C235.7 257.93 233.42 256.98 230.96 258.38C229.731 259.135 228.732 260.211 228.07 261.492C227.407 262.773 227.106 264.211 227.2 265.65C227.57 268.23 229.87 269.2 232.31 267.77ZM244.61 214.34L264.32 204.5L256.7 151.23L242 158.57L227.9 169.5L235.36 221.5L244.61 214.34ZM109.91 257.34L130.45 252.34L128.38 237.79L112.18 241.53L98.73 250.26L100.6 263.33L109.91 257.34Z" fill="#F1371C"/>
<path opacity="0.6" d="M193.7 356.21L189 323.7L161.73 350.5L164.93 372.84L193.7 356.21ZM232.31 267.77C233.542 267.027 234.546 265.96 235.213 264.685C235.88 263.41 236.183 261.976 236.09 260.54C235.7 257.93 233.42 256.98 230.96 258.38C229.731 259.135 228.732 260.211 228.07 261.492C227.407 262.773 227.106 264.211 227.2 265.65C227.57 268.23 229.87 269.2 232.31 267.77ZM244.61 214.34L264.32 204.5L256.7 151.23L242 158.57L227.9 169.5L235.36 221.5L244.61 214.34ZM109.91 257.34L130.45 252.34L128.38 237.79L112.18 241.53L98.73 250.26L100.6 263.33L109.91 257.34Z" fill="white"/>
<path d="M126.79 201.03C126.79 195.72 123.29 193.43 118.98 195.92C114.67 198.41 111.17 204.73 111.17 210.04V211.25C111.17 215.34 115.8 220.08 117.93 222.05C118.051 222.16 118.196 222.24 118.353 222.285C118.511 222.329 118.676 222.337 118.837 222.307C118.998 222.277 119.149 222.21 119.28 222.112C119.411 222.013 119.517 221.886 119.59 221.74C121.43 217.97 126.79 206.63 126.79 202.23V201.03ZM119 209.72C116.71 211.05 114.85 209.97 114.85 207.33C114.929 205.891 115.346 204.491 116.067 203.244C116.788 201.997 117.793 200.937 119 200.15C121.29 198.83 123.14 199.9 123.14 202.55C123.063 203.987 122.648 205.385 121.928 206.631C121.209 207.877 120.206 208.935 119 209.72Z" fill="#F1371C"/>
<path d="M199.64 184.42C199.64 179.11 196.14 176.83 191.83 179.32C187.52 181.81 184 188.13 184 193.44V194.65C184 198.73 188.63 203.48 190.76 205.44C190.875 205.563 191.019 205.655 191.179 205.708C191.339 205.761 191.51 205.772 191.675 205.741C191.841 205.71 191.996 205.638 192.126 205.531C192.256 205.424 192.357 205.286 192.42 205.13C194.26 201.37 199.62 190.03 199.62 185.63L199.64 184.42ZM191.83 193.12C189.54 194.44 187.68 193.37 187.68 190.73C187.757 189.291 188.174 187.891 188.895 186.643C189.616 185.395 190.622 184.335 191.83 183.55C194.12 182.23 195.97 183.3 195.97 185.94C195.894 187.378 195.48 188.778 194.761 190.026C194.041 191.274 193.037 192.334 191.83 193.12Z" fill="#F1371C"/>
<path d="M220.17 201.63C220.17 196.32 216.67 194.03 212.36 196.52C208.05 199.01 204.55 205.33 204.55 210.64V211.85C204.55 215.94 209.18 220.68 211.31 222.65C211.43 222.762 211.575 222.844 211.733 222.89C211.89 222.936 212.057 222.944 212.218 222.914C212.379 222.883 212.532 222.816 212.662 222.716C212.793 222.617 212.898 222.488 212.97 222.34C214.81 218.57 220.17 207.23 220.17 202.83V201.63ZM212.36 210.32C210.07 211.65 208.22 210.57 208.22 207.93C208.297 206.492 208.712 205.092 209.431 203.845C210.151 202.597 211.154 201.537 212.36 200.75C214.65 199.43 216.5 200.5 216.5 203.15C216.423 204.587 216.008 205.985 215.288 207.231C214.569 208.477 213.565 209.535 212.36 210.32Z" fill="#F1371C"/>
<path d="M145.37 308.62C145.37 303.31 141.87 301.03 137.56 303.52C133.25 306.01 129.75 312.33 129.75 317.64V318.85C129.75 322.94 134.38 327.68 136.51 329.64C136.625 329.763 136.769 329.855 136.929 329.908C137.089 329.961 137.26 329.972 137.425 329.941C137.591 329.91 137.746 329.838 137.876 329.731C138.006 329.624 138.107 329.486 138.17 329.33C140.01 325.57 145.37 314.23 145.37 309.83V308.62ZM137.56 317.32C135.27 318.64 133.41 317.57 133.41 314.93C133.489 313.491 133.906 312.091 134.627 310.844C135.348 309.597 136.353 308.537 137.56 307.75C139.84 306.43 141.7 307.5 141.7 310.14C141.622 311.578 141.207 312.977 140.487 314.224C139.768 315.472 138.765 316.532 137.56 317.32Z" fill="#F1371C"/>
<path d="M285.43 266.5C285.43 261.19 281.93 258.91 277.62 261.4C273.31 263.89 269.81 270.21 269.81 275.51V276.72C269.81 280.81 274.44 285.55 276.57 287.52C276.69 287.632 276.835 287.714 276.993 287.76C277.15 287.806 277.317 287.814 277.478 287.784C277.639 287.753 277.792 287.686 277.922 287.586C278.053 287.487 278.158 287.358 278.23 287.21C280.07 283.44 285.43 272.1 285.43 267.71V266.5ZM277.62 275.2C275.33 276.52 273.48 275.45 273.48 272.8C273.557 271.363 273.972 269.965 274.691 268.719C275.411 267.473 276.414 266.415 277.62 265.63C279.91 264.3 281.76 265.38 281.76 268.02C281.68 269.454 281.263 270.85 280.544 272.094C279.825 273.338 278.823 274.395 277.62 275.18V275.2Z" fill="#F1371C"/>
<path d="M291.66 169.85C291.66 164.54 288.17 162.26 283.85 164.75C279.53 167.24 276.05 173.56 276.05 178.87V180.08C276.05 184.16 280.68 188.91 282.81 190.87C282.925 190.993 283.069 191.085 283.229 191.138C283.389 191.191 283.559 191.202 283.725 191.171C283.891 191.14 284.046 191.068 284.176 190.961C284.306 190.854 284.407 190.716 284.47 190.56C286.31 186.8 291.66 175.46 291.66 171.06V169.85ZM283.85 178.55C281.56 179.87 279.71 178.8 279.71 176.16C279.785 174.722 280.2 173.321 280.919 172.074C281.639 170.826 282.643 169.766 283.85 168.98C286.14 167.66 288 168.73 288 171.37C287.921 172.809 287.504 174.208 286.783 175.456C286.062 176.703 285.057 177.763 283.85 178.55Z" fill="#F1371C"/>
<path d="M261.34 15.98C259.84 15.11 257.76 15.24 255.46 16.56L69.9999 123.64C65.4099 126.3 61.6799 132.74 61.6799 138.04V156.38C61.6799 159.03 62.6099 160.9 64.1199 161.77L72.2399 166.5C73.7399 167.37 75.8199 167.24 78.1099 165.92L263.6 58.8C268.19 56.15 271.91 49.7 271.91 44.4V26.06C271.91 23.41 270.98 21.55 269.49 20.68L261.34 15.98Z" fill="#F1371C"/>
<path opacity="0.35" d="M261.34 15.98C259.84 15.11 257.76 15.24 255.46 16.56L69.9999 123.64C65.4099 126.3 61.6799 132.74 61.6799 138.04V156.38C61.6799 159.03 62.6099 160.9 64.1199 161.77L72.2399 166.5C73.7399 167.37 75.8199 167.24 78.1099 165.92L263.6 58.8C268.19 56.15 271.91 49.7 271.91 44.4V26.06C271.91 23.41 270.98 21.55 269.49 20.68L261.34 15.98Z" fill="white"/>
<path d="M61.6599 138.04V156.38C61.6599 159.03 62.5899 160.9 64.0999 161.77L72.2399 166.5C73.6799 167.33 75.6599 167.24 77.8399 166.06V137.87L64.0999 129.87C62.6033 132.341 61.7634 135.153 61.6599 138.04Z" fill="#F1371C"/>
<path d="M271.91 26.0599C271.91 20.7599 268.19 18.61 263.6 21.26L78.1098 128.34C73.5198 130.99 69.7998 137.44 69.7998 142.74V161.08C69.7998 166.38 73.5198 168.53 78.1098 165.88L263.6 58.7999C268.19 56.1499 271.91 49.7 271.91 44.4V26.0599Z" fill="#F1371C"/>
<path opacity="0.15" d="M271.91 26.0599C271.91 20.7599 268.19 18.61 263.6 21.26L78.1098 128.34C73.5198 130.99 69.7998 137.44 69.7998 142.74V161.08C69.7998 166.38 73.5198 168.53 78.1098 165.88L263.6 58.7999C268.19 56.1499 271.91 49.7 271.91 44.4V26.0599Z" fill="white"/>
<path d="M79.7899 132.79C78.1631 133.856 76.8091 135.289 75.8365 136.974C74.864 138.659 74.3 140.548 74.1899 142.49V158.18C74.1899 160.72 75.9799 161.75 78.1899 160.49L238.08 68.1V41.33L79.7899 132.79Z" fill="#FAFAFA"/>
<path d="M265.47 49.5L262.14 46.98C261.7 46.65 261.08 46.85 260.53 47.41L260.59 47.29L259.42 46.41C260.34 44.392 260.836 42.2072 260.88 39.99C260.88 34.99 257.88 32.74 254.13 34.89C250.38 37.04 247.38 42.82 247.38 47.79C247.38 52.76 250.38 55.04 254.13 52.89C255.852 51.7955 257.283 50.2993 258.3 48.53L259.48 49.42L259.54 49.3C259.43 49.6263 259.407 49.9754 259.471 50.3136C259.536 50.6517 259.687 50.9673 259.91 51.23L263.24 53.75C263.404 53.8596 263.597 53.9181 263.795 53.9181C263.992 53.9181 264.186 53.8596 264.35 53.75C264.833 53.4463 265.221 53.0132 265.47 52.5C266.08 51.31 266.08 49.98 265.47 49.5ZM254.13 50.09C251.56 51.57 249.47 49.99 249.47 46.57C249.47 43.15 251.56 39.17 254.13 37.69C256.7 36.21 258.78 37.78 258.78 41.2C258.78 44.62 256.69 48.63 254.13 50.11V50.09Z" fill="#E6E6E6"/>
<path d="M447.57 407.57C446.52 393.11 448.14 382.03 446.94 359.46C446.83 353.67 446.62 347.46 446.24 341.97C444.93 323.44 442.07 317.11 441.81 313.53C441.81 313.53 441.32 284.71 440.11 244.17C439.54 225.1 434.01 219.32 429.6 209.17H377.11C371.25 234.17 369.58 288.62 369.76 314.36C369.85 327.48 375.14 397.69 375.25 399.31C375.62 405.04 375.12 407.31 372.88 409.71C368.18 414.71 361.36 419.55 355.47 423.95C356.32 426.21 363.41 426.12 366.92 424.41C371.512 422.022 375.888 419.242 380 416.1C384.84 412.52 391 409.64 391.1 404.19C391.126 403.852 391.183 403.517 391.27 403.19C391.36 400.01 398.78 353.04 399.4 342.19C399.93 332.82 398.79 316.91 398.79 316.91L404.79 277.22C404.79 277.22 408.51 300.68 412.28 316.7C415.35 329.7 420.41 351.99 423.87 368.04C427.19 386.53 432.06 399.68 432.87 408.94C433.13 411.15 435.63 432.83 436.66 437.8C437.69 442.77 448.52 442.9 449.22 434.36C449.76 428.65 447.77 410.29 447.57 407.57Z" fill="#FBD2C0"/>
<path d="M345.44 429.75C345.14 429.75 344.65 433.04 346.27 434.46C348.13 436.1 353.61 438.82 360.91 437.96C368.21 437.1 372.18 434.88 375.12 432.47C378.06 430.06 382.18 426.67 385.49 425.97C388.56 425.33 391.9 423.97 392.89 423.04C393.88 422.11 393.79 417.9 393.79 417.9L345.44 429.75Z" fill="#263238"/>
<path d="M391.42 401.67C391.42 401.67 391.97 401.67 392.15 402.67C392.36 403.83 392.56 407.21 393.03 409.12C393.67 411.77 394.03 417.19 393.63 419.35C393.23 421.51 388.2 422.94 385 424.12C381.23 425.714 377.721 427.864 374.59 430.5C371.14 433.28 363.91 436.04 359.16 436.06C351.91 436.06 347.23 434.06 345.81 431.45C344.05 428.21 345.48 426.35 353.81 422.58C355.39 421.87 360.97 418.65 362.87 417.48C364.889 416.255 366.803 414.864 368.59 413.32C369.493 412.539 370.351 411.708 371.16 410.83C372.003 410.055 372.722 409.154 373.29 408.16C373.39 407.94 373.46 407.68 373.55 407.46C373.79 406.826 373.977 406.174 374.11 405.51C374.25 404.82 374.35 403.81 375.01 403.4C375.962 403.02 377 402.909 378.01 403.08C379.091 403.163 380.164 403.326 381.22 403.57C382.44 403.86 383.86 403.98 384.58 405.14C385.045 406.07 385.269 407.101 385.23 408.14C385.23 408.62 385.23 409.14 385.23 409.6C385.23 409.81 385.14 410.18 385.43 410.1C385.72 410.02 386.02 409.3 386.13 409.05C386.37 408.51 386.52 407.93 386.78 407.39C387.065 406.768 387.42 406.18 387.84 405.64C388.232 405.148 388.678 404.702 389.17 404.31C389.667 404.034 390.147 403.73 390.61 403.4C391.041 402.913 391.322 402.313 391.42 401.67Z" fill="#37474F"/>
<path d="M352.5 423.24C362.99 424.08 366.22 430.6 366.63 434.61C364.232 435.491 361.712 435.994 359.16 436.1C351.91 436.1 346.93 434.1 345.51 431.49C343.85 428.43 345 425.99 352.5 423.24Z" fill="#FAFAFA"/>
<path d="M368.23 423.5C368.349 423.499 368.464 423.46 368.56 423.39C368.613 423.348 368.657 423.296 368.689 423.237C368.722 423.178 368.743 423.114 368.75 423.047C368.757 422.98 368.752 422.912 368.733 422.847C368.714 422.783 368.682 422.722 368.64 422.67C367.431 421.391 365.962 420.386 364.332 419.722C362.702 419.057 360.949 418.75 359.19 418.82C359.123 418.826 359.058 418.846 358.998 418.877C358.939 418.909 358.886 418.952 358.843 419.004C358.8 419.056 358.768 419.116 358.749 419.181C358.73 419.245 358.723 419.313 358.73 419.38C358.735 419.448 358.753 419.513 358.785 419.574C358.816 419.634 358.859 419.687 358.911 419.73C358.964 419.773 359.024 419.805 359.089 419.824C359.154 419.843 359.223 419.848 359.29 419.84C360.878 419.794 362.458 420.079 363.93 420.676C365.402 421.274 366.733 422.171 367.84 423.31C367.887 423.368 367.946 423.416 368.014 423.449C368.081 423.481 368.155 423.499 368.23 423.5Z" fill="#F0F0F0"/>
<path d="M372.78 420.93C372.899 420.933 373.016 420.894 373.11 420.82C373.214 420.734 373.281 420.611 373.296 420.476C373.311 420.342 373.273 420.207 373.19 420.1C371.982 418.821 370.513 417.816 368.882 417.153C367.252 416.491 365.498 416.186 363.74 416.26C363.624 416.292 363.524 416.364 363.456 416.463C363.388 416.563 363.357 416.682 363.369 416.802C363.381 416.922 363.435 417.033 363.521 417.117C363.607 417.201 363.72 417.251 363.84 417.26C365.427 417.21 367.008 417.493 368.48 418.088C369.952 418.684 371.284 419.58 372.39 420.72C372.433 420.784 372.491 420.836 372.559 420.873C372.627 420.909 372.703 420.929 372.78 420.93Z" fill="#F0F0F0"/>
<path d="M377 417.97C377.119 417.973 377.236 417.934 377.33 417.86C377.434 417.774 377.501 417.651 377.516 417.516C377.531 417.382 377.493 417.247 377.41 417.14C376.199 415.863 374.73 414.859 373.1 414.195C371.471 413.531 369.718 413.223 367.96 413.29C367.893 413.296 367.828 413.316 367.768 413.347C367.709 413.379 367.656 413.422 367.613 413.474C367.57 413.526 367.538 413.586 367.519 413.651C367.5 413.715 367.493 413.783 367.5 413.85C367.505 413.918 367.524 413.983 367.555 414.044C367.586 414.104 367.629 414.157 367.681 414.2C367.734 414.243 367.794 414.275 367.859 414.294C367.924 414.313 367.993 414.318 368.06 414.31C369.648 414.264 371.228 414.549 372.7 415.146C374.172 415.744 375.503 416.641 376.61 417.78C376.657 417.838 376.716 417.886 376.784 417.919C376.851 417.951 376.925 417.969 377 417.97Z" fill="#F0F0F0"/>
<path d="M381.14 415.01C381.255 415.007 381.367 414.969 381.46 414.9C381.566 414.815 381.635 414.693 381.651 414.558C381.668 414.424 381.632 414.288 381.55 414.18C379.55 411.62 375.04 409.9 371.23 410.27C371.094 410.283 370.968 410.349 370.88 410.453C370.792 410.558 370.749 410.694 370.76 410.83C370.775 410.964 370.842 411.088 370.947 411.174C371.051 411.26 371.185 411.301 371.32 411.29C374.76 410.96 378.98 412.54 380.74 414.81C380.789 414.87 380.849 414.919 380.918 414.953C380.987 414.988 381.063 415.007 381.14 415.01Z" fill="#F0F0F0"/>
<path d="M433.34 441.65C433.63 446.65 434.4 449.89 436.16 452.79C437.92 455.69 441.23 456.6 444.58 455.79C447.93 454.98 452.24 452.67 453.2 448.4C454.16 444.13 454.72 441.2 453.96 436.61L433.34 441.65Z" fill="#263238"/>
<path d="M447.45 405.8C448.83 405.91 449.24 412.56 450.04 419.21C450.89 426.35 453.04 429.3 453.79 435.15C454.66 441.83 453.55 444.82 451.21 448.86C448.87 452.9 440.58 456.86 436.5 451.08C433.17 446.36 433.03 441.13 433.33 434.45C433.507 428.81 433.36 423.164 432.89 417.54C432.62 412.54 431.51 407.49 432.71 406.94C432.8 407.67 432.89 408.6 432.99 409.32C433.039 410.224 433.19 411.12 433.44 411.99C433.58 412.36 433.89 412.76 434.01 412.15C434.08 411.74 434.08 411.32 434.01 410.91C433.81 409.06 434.74 408.91 435.24 408.77C437.359 408.353 439.499 408.05 441.65 407.86C442.71 407.79 446.36 407.63 446.83 408.23C447.141 408.826 447.302 409.488 447.3 410.16C447.41 411.16 447.65 411.91 447.68 411.59C447.74 410.87 447.6 409 447.58 408.59C447.56 408.18 447.5 407.59 447.49 407.13C447.48 406.67 447.48 406.23 447.45 405.8Z" fill="#37474F"/>
<path d="M454.17 439.02C454.423 442.596 453.518 446.158 451.59 449.18C449.24 453.18 440.29 457.18 436.2 451.41C434.2 448.53 433.62 445.12 433.34 441.65C435.79 437.19 450.31 435.22 454.17 439.02Z" fill="#FAFAFA"/>
<path d="M436.36 434.38C436.416 434.39 436.474 434.39 436.53 434.38C436.59 434.38 442.99 431.7 449.21 433.15C449.344 433.177 449.483 433.152 449.598 433.079C449.714 433.007 449.797 432.892 449.83 432.76C449.86 432.626 449.836 432.486 449.763 432.37C449.69 432.254 449.574 432.171 449.44 432.14C442.86 430.62 436.33 433.34 436.09 433.45C435.957 433.486 435.844 433.573 435.776 433.692C435.707 433.811 435.689 433.952 435.725 434.085C435.761 434.218 435.848 434.331 435.967 434.399C436.086 434.467 436.227 434.486 436.36 434.45V434.38Z" fill="#F0F0F0"/>
<path d="M448.9 428.12C449.021 428.115 449.137 428.067 449.226 427.985C449.315 427.903 449.372 427.792 449.386 427.671C449.401 427.551 449.372 427.429 449.305 427.328C449.237 427.227 449.137 427.153 449.02 427.12C442.82 425.02 435.94 428.17 435.68 428.31C435.62 428.341 435.567 428.383 435.523 428.434C435.48 428.486 435.447 428.545 435.426 428.609C435.406 428.673 435.398 428.741 435.404 428.808C435.41 428.875 435.429 428.94 435.46 429C435.526 429.12 435.636 429.209 435.767 429.249C435.898 429.288 436.039 429.274 436.16 429.21C436.16 429.21 442.92 426.13 448.69 428.09C448.757 428.115 448.829 428.125 448.9 428.12Z" fill="#F0F0F0"/>
<path d="M448.69 423.43C448.786 423.419 448.877 423.381 448.953 423.321C449.029 423.261 449.087 423.181 449.12 423.09C449.162 422.961 449.154 422.821 449.096 422.698C449.039 422.575 448.936 422.479 448.81 422.43C441.99 419.99 435.46 423.43 435.22 423.58C435.162 423.615 435.112 423.661 435.072 423.715C435.032 423.769 435.003 423.831 434.986 423.896C434.97 423.962 434.967 424.03 434.977 424.096C434.987 424.163 435.01 424.227 435.045 424.285C435.08 424.343 435.125 424.393 435.18 424.433C435.234 424.473 435.296 424.502 435.361 424.519C435.427 424.535 435.495 424.538 435.561 424.528C435.628 424.518 435.692 424.495 435.75 424.46C435.8 424.46 442.11 421.13 448.46 423.4C448.534 423.425 448.612 423.435 448.69 423.43Z" fill="#F0F0F0"/>
<path d="M448.35 418.8C448.472 418.797 448.589 418.751 448.68 418.67C448.77 418.588 448.829 418.477 448.845 418.356C448.86 418.235 448.832 418.112 448.765 418.01C448.698 417.908 448.597 417.834 448.48 417.8C442.09 415.41 435.06 418.94 434.79 419.1C434.673 419.169 434.588 419.281 434.553 419.411C434.517 419.542 434.534 419.682 434.6 419.8C434.634 419.858 434.679 419.908 434.733 419.949C434.786 419.989 434.848 420.019 434.913 420.035C434.978 420.052 435.045 420.056 435.112 420.046C435.178 420.037 435.242 420.014 435.3 419.98C435.37 419.98 442.18 416.54 448.12 418.76C448.192 418.793 448.271 418.807 448.35 418.8Z" fill="#EBEBEB"/>
<path d="M431 209.37C437.22 220.71 441.84 229.98 442.46 263.69C443.08 297.4 442.99 306.85 443.12 310.91C443.25 314.97 445.62 322.25 447.7 342.27C449.78 362.29 447.32 386.16 447.32 386.16C447.32 386.16 445.89 389.38 438.23 390.07C431.16 390.7 427.67 388.07 427.67 388.07C427.67 388.07 417.98 349.07 415.3 337.01C412.62 324.95 404.84 285.29 404.84 285.29L400.22 317.45C400.22 317.45 402.37 328.51 400.22 346.07C398.07 363.63 394.22 381.62 394.22 381.62C390.733 382.831 387.062 383.43 383.37 383.39C380.029 383.446 376.736 382.585 373.85 380.9C373.85 380.9 367.85 328.65 367.85 308.75C367.85 288.85 369.53 239.08 375.79 209.61L431 209.37Z" fill="#F1371C"/>
<path opacity="0.6" d="M431 209.37C437.22 220.71 441.84 229.98 442.46 263.69C443.08 297.4 442.99 306.85 443.12 310.91C443.25 314.97 445.62 322.25 447.7 342.27C449.78 362.29 447.32 386.16 447.32 386.16C447.32 386.16 445.89 389.38 438.23 390.07C431.16 390.7 427.67 388.07 427.67 388.07C427.67 388.07 417.98 349.07 415.3 337.01C412.62 324.95 404.84 285.29 404.84 285.29L400.22 317.45C400.22 317.45 402.37 328.51 400.22 346.07C398.07 363.63 394.22 381.62 394.22 381.62C390.733 382.831 387.062 383.43 383.37 383.39C380.029 383.446 376.736 382.585 373.85 380.9C373.85 380.9 367.85 328.65 367.85 308.75C367.85 288.85 369.53 239.08 375.79 209.61L431 209.37Z" fill="white"/>
<path d="M435.26 314.5C435.26 314.5 431.38 310.45 423.91 311.35C416.44 312.25 413.4 316.64 413.4 316.64C421.4 313.03 435.26 314.5 435.26 314.5ZM417.68 318.08C422.08 318.96 426.47 319.35 436.1 317.44C431.53 316.32 417.68 318.07 417.68 318.07V318.08Z" fill="#FBD2C0"/>
<path d="M387.35 314.56C384.6 312.98 374.35 310.9 367.93 311.76L368 313.92C374.455 313.47 380.939 313.684 387.35 314.56ZM368.11 316.72L368.22 318.72C368.22 318.72 378.48 318.2 382.78 317.04C375.45 316.5 368.11 316.72 368.11 316.72Z" fill="#FBD2C0"/>
<path opacity="0.3" d="M441.36 326.5C441.11 325.34 440.87 324.24 440.65 323.2C438.7 313.88 438.72 301.7 438.76 286.28C438.76 281.62 438.76 276.8 438.76 271.68C438.58 251.6 437.04 229.11 426.88 214.61L426.06 215.19C432.89 224.94 435.76 238.43 436.96 252.35C426.88 251.01 424.67 241.05 421.66 227.35C421.25 225.48 420.83 223.54 420.37 221.55L419.37 221.78C419.83 223.78 420.26 225.7 420.67 227.57C423.67 241.25 426.05 252.08 437.02 253.39C437.51 259.52 437.69 265.72 437.74 271.7C437.74 276.82 437.74 281.63 437.74 286.29C437.74 301.77 437.68 314 439.65 323.41C439.87 324.46 440.11 325.56 440.36 326.72C442.97 338.72 446.88 356.83 444.93 388.3C445.297 388.104 445.648 387.88 445.98 387.63C447.85 356.44 444 338.5 441.36 326.5ZM377.82 238.3C379.23 244.93 389.82 250.51 394.6 251.66L395.82 258.4C395.58 261.98 395.32 265.74 395.06 269.63C393.6 291.04 392.06 313.18 393.18 318.18C396.06 331.33 395.18 339.67 393.66 354.81C393.5 356.35 393.34 357.97 393.17 359.67C392.29 368.46 391.32 377.08 390.68 382.61L391.68 382.37C392.32 376.83 393.27 368.37 394.12 359.77C394.29 358.07 394.46 356.45 394.62 354.91C396.18 339.67 397.03 331.27 394.11 317.91C393.05 313.06 394.63 290 396.02 269.65C396.18 267.18 396.35 264.76 396.51 262.41L400.79 286.14L400.18 317.38L404.8 285.22L398.49 246.94C398.49 246.94 385.22 246.04 377.82 238.3Z" fill="#F1371C"/>
<path d="M425.67 119.9C425.67 119.9 428.24 135.46 429.84 139.09C431.44 142.72 434.34 145.69 431.37 145.72C430.546 145.742 429.738 145.487 429.077 144.996C428.415 144.505 427.937 143.805 427.72 143.01L428.36 155.38L390 157.58V119.82L425.67 119.9Z" fill="#263238"/>
<path d="M387.47 151.58C379.47 153.5 375.47 154.58 370.47 162.05C365.4 169.69 360.27 178.2 352.64 189.9L332.64 180.57L324.64 194.49C324.64 194.49 345.1 206.2 354.08 210.33C359.77 212.96 363.96 211.08 368.35 206.49C373.24 201.39 385.06 184.03 385.06 184.03L387.47 151.58Z" fill="#37474F"/>
<path d="M352.68 189.9C356.06 191.05 359.68 194.26 360.27 196.18C358.33 190.28 355.27 189.18 353.65 188.42L352.68 189.9Z" fill="#9A4A4D"/>
<path d="M440.74 234.56C439.42 224.71 434.11 205.92 433.81 203.65C432.03 190.45 434.38 183.75 435.24 177.97C437.12 165.39 433.52 154.85 430.59 152.37C430.59 152.37 427.26 151.55 424.47 151.05C422.26 150.65 420.55 150.39 417.63 149.68C410.37 147.92 402.43 149.68 399.63 149.93C397.731 149.883 395.832 150.021 393.96 150.34C391.96 150.79 387.45 151.58 387.44 151.58C383.941 154.764 381.016 158.526 378.79 162.7C375.6 168.4 373.4 172.83 372.91 184.11C372.09 202.87 372.14 226.57 371.56 237.21C381.94 243.6 414.67 247.73 430.39 240.4L430.31 224.77L434 239.09C436.524 238.041 438.815 236.502 440.74 234.56Z" fill="#455A64"/>
<path d="M395.79 176.5C395.36 179.37 395.08 182.25 394.79 185.14C394.27 190.92 394 196.71 393.79 202.5C393.58 208.29 393.51 214.09 393.56 219.88C393.56 222.78 393.62 225.67 393.7 228.57C393.78 231.47 393.9 234.36 394.06 237.25L394.33 219.89C394.44 214.1 394.56 208.31 394.79 202.53C395.02 196.75 395.23 190.97 395.59 185.2C395.77 182.32 395.98 179.43 396.3 176.56C396.517 173.677 396.992 170.818 397.72 168.02C396.796 170.776 396.15 173.616 395.79 176.5Z" fill="#37474F"/>
<path d="M308 164.5L309.55 163.05C309.786 162.882 310.059 162.772 310.345 162.728C310.632 162.685 310.925 162.709 311.2 162.8L359.11 173.89C359.999 174.145 360.823 174.59 361.524 175.194C362.225 175.799 362.786 176.548 363.17 177.39L377.17 213.08C377.337 213.369 377.411 213.702 377.383 214.035C377.354 214.368 377.224 214.684 377.01 214.94L375.41 216.44C375.172 216.613 374.897 216.727 374.606 216.772C374.316 216.817 374.019 216.792 373.74 216.7L325.83 205.61C324.94 205.355 324.117 204.91 323.416 204.306C322.715 203.701 322.153 202.952 321.77 202.11L307.77 166.42C307.42 165.5 307.54 164.82 308 164.5Z" fill="#F1371C"/>
<path opacity="0.35" d="M308 164.5L309.55 163.05C309.786 162.882 310.059 162.772 310.345 162.728C310.632 162.685 310.925 162.709 311.2 162.8L359.11 173.89C359.999 174.145 360.823 174.59 361.524 175.194C362.225 175.799 362.786 176.548 363.17 177.39L377.17 213.08C377.337 213.369 377.411 213.702 377.383 214.035C377.354 214.368 377.224 214.684 377.01 214.94L375.41 216.44C375.172 216.613 374.897 216.727 374.606 216.772C374.316 216.817 374.019 216.792 373.74 216.7L325.83 205.61C324.94 205.355 324.117 204.91 323.416 204.306C322.715 203.701 322.153 202.952 321.77 202.11L307.77 166.42C307.42 165.5 307.54 164.82 308 164.5Z" fill="white"/>
<path d="M359.46 176.25C360.391 176.901 361.127 177.793 361.59 178.83L375.59 214.51C375.743 214.793 375.815 215.113 375.797 215.434C375.78 215.755 375.673 216.066 375.49 216.33L377 214.93C377.212 214.675 377.341 214.361 377.369 214.03C377.398 213.699 377.325 213.368 377.16 213.08L363.16 177.39C362.714 176.415 362.026 175.572 361.16 174.94L359.46 176.25Z" fill="#F1371C"/>
<path d="M375.57 214.5L361.57 178.82C361.183 177.977 360.619 177.228 359.917 176.622C359.214 176.017 358.39 175.569 357.5 175.31L309.59 164.23C307.96 163.85 307.13 164.81 307.74 166.37L321.74 202.06C322.123 202.902 322.685 203.651 323.386 204.256C324.087 204.86 324.91 205.305 325.8 205.56L373.71 216.65C375.36 217.03 376.19 216.07 375.57 214.5Z" fill="#F1371C"/>
<path opacity="0.15" d="M375.57 214.5L361.57 178.82C361.183 177.977 360.619 177.228 359.917 176.622C359.214 176.017 358.39 175.569 357.5 175.31L309.59 164.23C307.96 163.85 307.13 164.81 307.74 166.37L321.74 202.06C322.123 202.902 322.685 203.651 323.386 204.256C324.087 204.86 324.91 205.305 325.8 205.56L373.71 216.65C375.36 217.03 376.19 216.07 375.57 214.5Z" fill="black"/>
<path d="M361.87 186.42L359.25 179.74C359.176 179.583 359.071 179.443 358.94 179.329C358.809 179.216 358.656 179.131 358.49 179.08L355.19 178.33C354.89 178.26 354.73 178.44 354.84 178.73C355.36 180.04 356.95 184.09 357.46 185.41C357.534 185.566 357.64 185.704 357.771 185.816C357.902 185.928 358.055 186.011 358.22 186.06L361.52 186.82C361.83 186.89 362 186.71 361.87 186.42Z" fill="#F1371C"/>
<path d="M359.15 181.36C358.964 180.968 358.695 180.621 358.362 180.343C358.028 180.065 357.639 179.863 357.22 179.75C356.43 179.57 356.01 180 356.29 180.75C356.477 181.143 356.748 181.491 357.083 181.769C357.418 182.047 357.809 182.248 358.23 182.36C359 182.5 359.43 182.07 359.15 181.36Z" fill="#263238"/>
<path d="M360.43 184.74C360.245 184.346 359.977 183.997 359.643 183.718C359.31 183.438 358.92 183.234 358.5 183.12C357.71 182.94 357.29 183.37 357.57 184.12C357.757 184.513 358.028 184.861 358.363 185.139C358.698 185.417 359.089 185.618 359.51 185.73C360.3 185.88 360.71 185.5 360.43 184.74Z" fill="#263238"/>
<path d="M312.86 187.95C311.04 185.95 311.15 185.6 311.86 184.38C312.406 183.411 313.176 182.587 314.104 181.974C315.033 181.362 316.094 180.98 317.2 180.86C319.15 180.7 321.11 180.45 322.2 180.86C323.29 181.27 322.63 183.47 320.2 184.31C316.31 185.64 316.46 186.72 316.46 186.72C318.116 186.144 319.802 185.657 321.51 185.26C322.97 185.01 325.74 185.42 327.45 185.5C329.16 185.58 329.74 187.72 326.97 188.78L330.1 188.93C332.3 189.04 333.16 190.11 331.61 191.63C331.117 192.164 330.458 192.517 329.74 192.63C329.74 192.63 332.03 192.37 332.17 193.13C332.54 195.31 331.17 196.04 326.69 197.9C322.4 199.67 321.75 202.15 322.81 203.7C322.81 203.7 320.91 202.86 319.2 201.93C317.95 201.26 316.86 200.46 317.2 198.59C317.2 198.59 314.67 198.91 314.35 197.37C314.184 196.223 314.266 195.053 314.59 193.94C314.108 193.733 313.695 193.394 313.398 192.962C313.101 192.531 312.931 192.024 312.91 191.5C312.798 190.508 313.016 189.506 313.53 188.65L312.86 187.95Z" fill="#FBD2C0"/>
<path d="M326.93 188.78C325.986 188.685 325.034 188.685 324.09 188.78C323.164 189.025 322.283 189.417 321.48 189.94C319.86 190.853 318.321 191.904 316.88 193.08C318.613 192.414 320.286 191.601 321.88 190.65C322.63 190.162 323.423 189.743 324.25 189.4C325.07 189.17 326 189.05 326.93 188.78Z" fill="#9A4A4D"/>
<path d="M329.7 192.58C328.695 192.411 327.665 192.493 326.7 192.82C325.733 193.136 324.799 193.545 323.91 194.04C322.127 194.993 320.451 196.132 318.91 197.44C320.738 196.643 322.524 195.751 324.26 194.77C325.921 193.707 327.766 192.964 329.7 192.58Z" fill="#9A4A4D"/>
<path d="M394.74 179.24C391.12 176.54 389.29 175.49 387.6 175.01C385.91 174.53 379.99 172.07 377.72 171.5C376.28 171.15 375.72 173.44 377.53 175.01C378.94 176.23 382.61 177.82 384.23 178.7C385.85 179.58 389 183.43 389 183.43L394.74 179.24Z" fill="#9A4A4D"/>
<path d="M445.64 161.62C442.05 153.97 440.72 154.35 432.03 153.34C425.81 160.66 428.75 178.03 428.75 178.03L433.13 199.5C433.13 199.5 411.48 193.68 409.03 192.11C406.58 190.54 400.03 183.48 397.8 181.36C394.8 178.48 393.31 178.87 391.8 179.1C386.8 179.85 385.71 180.27 384.66 180.94C384.343 181.153 384.085 181.442 383.91 181.781C383.735 182.12 383.649 182.498 383.66 182.88C382.34 183.05 380.35 183.01 380.1 185.19C379.989 185.763 379.962 186.349 380.02 186.93C379.683 186.988 379.378 187.166 379.16 187.43C378.05 188.71 379.94 193.13 381.16 194.21C382 194.97 383.21 195.06 384.79 194.85C386.13 194.67 385.5 193.3 385.5 193.3L387.38 193.41C391.45 196.29 391.65 202.01 397.02 203.27C399.241 203.498 401.436 203.926 403.58 204.55C415.14 208.43 434.1 220.2 444.4 221.09C454.46 221.95 454.17 216.59 454.32 210.44C454.45 204.95 449.22 169.25 445.64 161.62Z" fill="#FBD2C0"/>
<path d="M432.7 197.41L433.13 199.51C437.71 200.69 442.66 203.99 443.75 206.51C442.9 202.5 440.76 199.56 432.7 197.41Z" fill="#9A4A4D"/>
<path d="M430.59 152.37C436.92 153.14 441.06 153.06 443.75 156.94C446.44 160.82 447.05 161.94 449.01 171.47C450.97 181 454.5 201.81 454.01 205.47C449.92 201.38 433.17 199.47 433.17 199.47L432.74 199.36C432.74 199.36 430.39 188.12 429.31 184.36C428.23 180.6 425.19 161.71 430.59 152.37Z" fill="#37474F"/>
<path d="M431.9 195.63C431.28 195.94 431.09 196.42 431.33 197.41C431.47 197.959 431.548 198.523 431.56 199.09C431.56 199.09 431.22 199.04 433.13 199.51C435.04 199.98 444.77 204.38 448.53 208.96C450.715 211.53 452.377 214.502 453.42 217.71C453.114 218.486 452.619 219.174 451.98 219.71C452.98 219.71 454.11 218.93 455.09 216.37C455.53 215.21 454.56 213.91 455.38 211.26C456.102 209.175 456.052 206.901 455.24 204.85C454.54 202.9 457.24 201.08 453.56 198.85C449.88 196.62 439.79 193.58 431.9 195.63Z" fill="#455A64"/>
<path d="M383.66 182.89L389.6 181.7L383.79 182.07C383.699 182.334 383.655 182.611 383.66 182.89Z" fill="#9A4A4D"/>
<path d="M380 186.94L386.82 186.06L379.99 186.15C379.963 186.413 379.967 186.678 380 186.94Z" fill="#9A4A4D"/>
<path d="M380.92 189.95C381.144 190.299 381.463 190.577 381.84 190.75C382.207 190.934 382.597 191.068 383 191.15L382.91 191.08C383.1 191.44 383.29 191.79 383.49 192.14L383.63 191.95C383.439 191.917 383.244 191.924 383.056 191.97C382.869 192.016 382.693 192.102 382.54 192.22C382.259 192.451 382.053 192.761 381.95 193.11C382.117 192.812 382.354 192.558 382.64 192.37C382.921 192.208 383.25 192.148 383.57 192.2L383.83 192.25L383.71 192.02C383.53 191.66 383.34 191.31 383.14 190.96V190.9H383.08C382.691 190.832 382.31 190.728 381.94 190.59C381.554 190.461 381.204 190.242 380.92 189.95Z" fill="#9A4A4D"/>
<path d="M382.73 190.83C383.549 190.935 384.374 190.992 385.2 191C385.351 191.51 385.646 191.965 386.05 192.31C386.466 192.708 386.907 193.078 387.37 193.42L385.49 193.31C385.233 192.977 384.909 192.701 384.538 192.501C384.168 192.301 383.76 192.182 383.34 192.15L382.73 190.83Z" fill="#9A4A4D"/>
<path d="M408 94.05C406.85 91.14 409.12 88.84 411.05 89.51C410.787 88.8188 410.781 88.0563 411.032 87.3609C411.283 86.6655 411.776 86.0833 412.42 85.72C414.42 84.56 416.72 86.11 416.72 86.11C416.86 85.3661 417.221 84.6817 417.756 84.1464C418.292 83.6112 418.976 83.2499 419.72 83.11C422.23 82.72 423.51 83.48 424.6 85.05C424.6 85.05 428.6 84.05 434.19 88.3C437.45 90.76 438.67 92.66 438.14 95.2C437.78 96.95 435.57 96.99 435.57 96.99C435.57 96.99 438.34 98.55 437.39 101.32C436.44 104.09 434.14 102.87 434.14 102.87C434.629 103.358 434.935 103.999 435.006 104.686C435.077 105.372 434.909 106.063 434.53 106.64C434.155 107.147 433.641 107.536 433.05 107.757C432.459 107.979 431.816 108.025 431.2 107.89C431.66 107.95 431.71 112.54 427.41 111.23C423.55 111.14 408 94.05 408 94.05Z" fill="#263238"/>
<path d="M428.72 111.35C428.943 111.017 429.05 110.621 429.025 110.221C428.999 109.822 428.843 109.442 428.58 109.14C429.088 108.384 429.276 107.457 429.101 106.563C428.927 105.668 428.405 104.88 427.65 104.37C427.65 104.37 427.65 99.37 423.47 100.47L425.27 108.1L428.72 111.35Z" fill="black"/>
<path d="M424.59 85.08C426.783 83.4857 429.384 82.546 432.09 82.37C436.42 82.17 437.15 83.64 436.47 84.47C435.79 85.3 432.4 84.99 429.56 87.65C426.72 90.31 424.59 85.08 424.59 85.08Z" fill="#263238"/>
<path d="M424 85.7C423.812 83.7162 424.321 81.7289 425.44 80.08C427.32 77.38 429.02 78.94 428.44 80.85C428.102 82.3007 427.984 83.7941 428.09 85.28L424 85.7Z" fill="#263238"/>
<path d="M435.56 97.02C435.56 97.02 430.88 90.86 425.56 89.53C428.14 89.8598 430.57 90.9256 432.56 92.6C435.37 95.23 435.56 97.02 435.56 97.02Z" fill="black"/>
<path d="M417.31 84.74C417.04 85.1591 416.847 85.6231 416.74 86.11C417.33 88.74 421.26 93.02 424.02 94.5C424 94.5 418.22 89.26 417.31 84.74Z" fill="black"/>
<path d="M417.23 123.88C417.23 123.88 423.64 125.09 425.71 123.56C429.12 121.06 428.99 118.95 428.9 117.88C428.896 117.425 428.788 116.977 428.586 116.57C428.383 116.163 428.09 115.807 427.73 115.53C428.266 115.123 428.678 114.573 428.918 113.944C429.158 113.315 429.218 112.631 429.09 111.97C428.63 109.68 427.09 109.73 427.09 109.73C427.09 109.73 428.72 106.73 426.02 105.73C426.02 105.73 427.21 103.59 426.08 101.92C425.777 101.442 425.377 101.033 424.904 100.721C424.432 100.409 423.899 100.201 423.34 100.11C423.44 99.5247 423.402 98.924 423.229 98.3562C423.055 97.7883 422.751 97.269 422.34 96.84C421.815 96.3038 421.116 95.9721 420.368 95.9043C419.621 95.8365 418.873 96.037 418.26 96.47C418.484 95.8373 418.49 95.1476 418.276 94.5112C418.062 93.8749 417.641 93.3287 417.08 92.96C416.518 92.5217 415.842 92.2554 415.132 92.1933C414.422 92.1312 413.709 92.2759 413.08 92.61C412.883 91.8948 412.486 91.251 411.935 90.7548C411.384 90.2585 410.702 89.9307 409.97 89.81C409.216 89.7156 408.452 89.8812 407.805 90.2793C407.158 90.6775 406.666 91.2844 406.41 92C405.952 91.2406 405.282 90.6316 404.483 90.2478C403.683 89.8641 402.789 89.7223 401.91 89.84C401.136 89.891 400.389 90.1453 399.745 90.5772C399.1 91.0092 398.581 91.6034 398.24 92.3C397.603 91.8473 396.87 91.5477 396.098 91.4246C395.326 91.3014 394.536 91.358 393.79 91.59C391.06 92.59 390.91 94.59 390.91 94.59C390.3 94.3445 389.635 94.2707 388.986 94.3764C388.338 94.4822 387.73 94.7636 387.23 95.19C386.709 95.5346 386.303 96.0273 386.064 96.6048C385.825 97.1822 385.764 97.8179 385.89 98.43C385.392 98.5365 384.927 98.7622 384.535 99.0879C384.143 99.4136 383.836 99.8296 383.64 100.3C383.411 100.826 383.311 101.398 383.348 101.97C383.384 102.542 383.556 103.098 383.85 103.59C383.85 103.59 381.07 106.32 383.22 109.24C384.71 111.24 389.51 121.69 399.36 125.63C402.266 126.765 405.399 127.199 408.505 126.895C411.61 126.591 414.599 125.558 417.23 123.88Z" fill="#263238"/>
<path d="M384.52 101.11C381.69 100.93 380.05 105.11 379.36 109.92C378.67 114.73 375.26 118.02 376.81 119.31C378.36 120.6 380.45 118.23 381.81 115.82C383.17 113.41 384.22 106.61 385.81 105.59C387.4 104.57 384.52 101.11 384.52 101.11Z" fill="#263238"/>
<path d="M385.16 106.39C383.706 109.155 383.071 112.277 383.33 115.39C383.53 117.458 383.48 119.544 383.18 121.6C381.71 130.11 384.08 138.84 389.81 141.6C392.68 142.946 395.848 143.531 399.01 143.3L399.08 146.72C399.107 147.389 398.908 148.049 398.517 148.592C398.125 149.136 397.563 149.533 396.92 149.72L393.63 150.52C393.131 156.643 394.55 162.77 397.69 168.05C406.23 166.33 421.6 155.1 424.93 151.25C424.025 151.344 423.111 151.244 422.247 150.957C421.384 150.669 420.593 150.201 419.925 149.582C419.258 148.964 418.73 148.211 418.377 147.372C418.025 146.534 417.855 145.629 417.88 144.72L418.18 133.81C418.18 133.81 420.5 136.3 424.81 132.9C428.38 130.1 429.81 125.13 427.27 122.29C426.597 121.61 425.775 121.096 424.868 120.789C423.962 120.483 422.997 120.392 422.049 120.524C421.101 120.656 420.198 121.007 419.41 121.55C418.622 122.093 417.971 122.812 417.51 123.65C417.51 123.65 411.7 124.1 412.9 119.36L412.84 118.96V118.71C410.68 117.96 410.42 114.06 412.17 114.06C412.1 113.67 412.12 113.76 412.05 113.37C409.7 112.95 408.94 108.37 411.05 108.61C410.311 106.533 408.988 104.713 407.24 103.37L406.56 103.64C406.08 106.26 402.23 106.57 401.39 105.51C400.89 105.64 400.02 103.89 399.53 104.01C398.72 106.4 394.36 105.27 393.24 103.82C392.44 104.94 389.58 106.16 385.16 106.39Z" fill="#FBD2C0"/>
<path d="M399 143.28C408.61 142.06 412 136.68 413.56 133.21C413.56 133.21 413.37 138.62 409.76 141.67C406.782 144.308 403.018 145.893 399.05 146.18L399 143.28Z" fill="#9A4A4D"/>
<path d="M402.76 130.75L396.91 132.69C397.017 133.084 397.203 133.451 397.457 133.77C397.711 134.089 398.027 134.354 398.387 134.546C398.746 134.739 399.141 134.857 399.547 134.892C399.954 134.927 400.363 134.878 400.75 134.75C401.538 134.474 402.189 133.903 402.564 133.156C402.939 132.41 403.009 131.547 402.76 130.75Z" fill="#9A4A4D"/>
<path d="M402.4 132.11C401.617 132.101 400.855 132.363 400.243 132.852C399.631 133.34 399.206 134.025 399.04 134.79C399.597 134.959 400.193 134.959 400.75 134.79C401.308 134.597 401.801 134.253 402.174 133.795C402.547 133.338 402.784 132.785 402.86 132.2C402.709 132.159 402.555 132.129 402.4 132.11Z" fill="#F28F8F"/>
<path d="M385.66 115.69L389.98 113.69C389.866 113.402 389.694 113.141 389.476 112.922C389.257 112.703 388.996 112.531 388.709 112.416C388.422 112.301 388.114 112.245 387.805 112.253C387.496 112.26 387.191 112.331 386.91 112.46C386.323 112.731 385.865 113.219 385.631 113.822C385.398 114.425 385.408 115.095 385.66 115.69Z" fill="#263238"/>
<path d="M406.48 116.26L402.25 114C402.386 113.72 402.578 113.471 402.813 113.268C403.049 113.065 403.323 112.912 403.62 112.818C403.917 112.725 404.229 112.693 404.539 112.724C404.848 112.755 405.148 112.849 405.42 113C405.974 113.311 406.39 113.819 406.586 114.423C406.783 115.027 406.745 115.683 406.48 116.26Z" fill="#263238"/>
<path d="M396.26 116.91L395.75 129.38L389.32 126.81L396.26 116.91Z" fill="#9A4A4D"/>
<path d="M390.81 119.17C390.86 119.698 390.699 120.224 390.361 120.633C390.024 121.041 389.538 121.299 389.01 121.35C388.755 121.382 388.496 121.362 388.249 121.292C388.002 121.221 387.772 121.102 387.572 120.94C387.372 120.779 387.207 120.578 387.086 120.352C386.966 120.125 386.892 119.876 386.87 119.62C386.823 119.094 386.985 118.57 387.322 118.164C387.66 117.757 388.144 117.501 388.67 117.45C388.924 117.419 389.181 117.44 389.427 117.51C389.673 117.581 389.902 117.7 390.102 117.86C390.301 118.02 390.466 118.218 390.588 118.443C390.71 118.668 390.785 118.915 390.81 119.17Z" fill="#263238"/>
<path d="M405.12 119.36C405.167 119.885 405.006 120.407 404.671 120.813C404.336 121.219 403.854 121.477 403.33 121.53C403.076 121.563 402.817 121.545 402.57 121.476C402.323 121.406 402.093 121.288 401.893 121.127C401.693 120.966 401.527 120.767 401.406 120.54C401.286 120.314 401.212 120.066 401.19 119.81C401.143 119.284 401.305 118.76 401.643 118.354C401.98 117.947 402.464 117.691 402.99 117.64C403.244 117.607 403.502 117.625 403.748 117.695C403.995 117.764 404.224 117.883 404.424 118.043C404.623 118.204 404.787 118.404 404.907 118.63C405.027 118.857 405.099 119.105 405.12 119.36Z" fill="#263238"/>
<path d="M407.43 103.86C406.64 99.86 405.19 96.3 398.26 92.25C398.26 92.25 406.37 96.44 406.54 104.71L407.43 103.86Z" fill="#FBD2C0"/>
<path d="M390.93 94.57C393.629 95.2747 396.067 96.7429 397.953 98.7987C399.838 100.854 401.091 103.41 401.56 106.16L399.46 104.87C399.59 103.03 398.09 97.34 390.93 94.57Z" fill="#FBD2C0"/>
<path d="M385.91 98.41C387.616 98.297 389.304 98.8123 390.657 99.8587C392.009 100.905 392.931 102.41 393.25 104.09L392.44 104.71C392.44 104.71 392.12 100.19 385.91 98.41Z" fill="#FBD2C0"/>
<path d="M410 107.72C410 107.72 418.36 109.35 424.75 106.16C424.75 106.16 420.85 109.36 410.13 108.48L410 107.72Z" fill="#FBD2C0"/>
<path d="M410.78 113.18C410.78 113.18 418.72 114.37 425.58 110.58C425.58 110.58 421.93 114.07 411.18 113.99L410.78 113.18Z" fill="#FBD2C0"/>
<path d="M411.14 118.55C411.14 118.55 419.49 119.61 425.99 115.87C425.99 115.87 422.34 119.36 411.58 119.28L411.14 118.55Z" fill="#FBD2C0"/>
<path d="M397.69 167.98C397.69 167.98 407.07 162.05 410.69 158.92C417.45 153.03 418.22 148.53 418.22 148.53C418.22 148.53 418.14 147.33 417.95 145.75C418.87 145.87 419.03 146.59 420.07 147.89C421.458 149.425 423.239 150.552 425.22 151.15C425.22 151.15 424.94 154.79 419.86 161.64C415.79 167.12 406.04 172.69 404.8 173C403.56 173.31 397.69 167.98 397.69 167.98Z" fill="#37474F"/>
<path d="M397.69 167.98C394.26 161.61 395.96 155.3 396.58 153.27C397.2 151.24 397.69 149.45 397.69 149.45C398.136 149.147 398.497 148.736 398.74 148.255C398.983 147.774 399.1 147.239 399.08 146.7V145.87C398.2 146.23 397.42 146.8 396.81 147.53C395.191 149.287 393.067 150.5 390.73 151C387.73 157.13 387.53 164.85 390.18 170C390.58 170.76 397.69 167.98 397.69 167.98Z" fill="#37474F"/>
<path d="M422.38 134.26C422.64 138.02 422.76 150 421 158.52C419.35 166.52 414 180.52 413.3 184.2C412.6 187.88 409.4 187.53 409.81 183.2C410.22 178.87 413.22 169.63 415.33 162.97C416.529 159.405 417.318 155.714 417.68 151.97L418.18 133.77C418.793 134.173 419.493 134.428 420.222 134.513C420.951 134.598 421.69 134.511 422.38 134.26Z" fill="#263238"/>
<path d="M411.83 174.23C411.83 174.23 414.59 172.82 416 175.45L417.1 172.11C417.1 172.11 416.49 169.5 413 170.5L411.83 174.23Z" fill="#F1371C"/>
<path d="M464.68 68.42C463.74 76.1 460.06 80.48 455.38 82.72L450.9 80.13C452.027 78.6656 452.781 76.9499 453.1 75.13C453.437 73.4059 453.474 71.6367 453.21 69.9L460.21 65.9C459.91 68.26 464.68 68.42 464.68 68.42Z" fill="#F1371C"/>
<path opacity="0.2" d="M464.68 68.42C463.74 76.1 460.06 80.48 455.38 82.72L450.9 80.13C452.027 78.6656 452.781 76.9499 453.1 75.13C453.437 73.4059 453.474 71.6367 453.21 69.9L460.21 65.9C459.91 68.26 464.68 68.42 464.68 68.42Z" fill="black"/>
<path d="M475.32 20.55V59.8C475.28 60.529 475.069 61.2384 474.705 61.8707C474.34 62.5031 473.831 63.0407 473.22 63.44L464.68 68.44C463.74 76.12 460.06 80.5 455.38 82.74C458 79.5 458.08 74.8 457.69 72.5L453.1 75.1L447 78.61C446.349 78.9403 445.63 79.1124 444.9 79.1124C444.17 79.1124 443.451 78.9403 442.8 78.61L441.08 77.61C440.474 77.2089 439.971 76.6718 439.61 76.0415C439.249 75.4112 439.04 74.7053 439 73.98V34.73C439.04 34.001 439.251 33.2916 439.615 32.6592C439.98 32.0268 440.489 31.4892 441.1 31.09L467.32 15.93C467.971 15.5997 468.69 15.4276 469.42 15.4276C470.15 15.4276 470.869 15.5997 471.52 15.93L473.23 16.93C473.836 17.329 474.341 17.864 474.704 18.4925C475.066 19.121 475.278 19.8255 475.32 20.55Z" fill="#F1371C"/>
<path opacity="0.2" d="M439 73.98C439.04 74.709 439.251 75.4184 439.615 76.0507C439.98 76.6831 440.489 77.2207 441.1 77.62L442.81 78.62C443.401 78.9192 444.05 79.0891 444.712 79.1184C445.374 79.1477 446.035 79.0357 446.65 78.79C445.65 79.16 444.91 78.61 444.91 77.41V38.14C444.935 37.4095 445.145 36.6973 445.52 36.07L439.61 32.66C439.234 33.2867 439.024 33.9993 439 34.73V73.98Z" fill="black"/>
<path opacity="0.3" d="M475.25 19.96C475.01 19.06 474.2 18.78 473.25 19.34L447 34.5C446.375 34.8814 445.864 35.4236 445.52 36.07L439.61 32.66C439.957 32.0156 440.467 31.474 441.09 31.09L467.31 15.92C467.961 15.5897 468.68 15.4175 469.41 15.4175C470.14 15.4175 470.859 15.5897 471.51 15.92L473.23 16.92C473.756 17.262 474.207 17.7082 474.554 18.231C474.902 18.7538 475.138 19.3422 475.25 19.96Z" fill="white"/>
<path d="M468.83 39.74C468.83 33.65 464.83 31.03 459.83 33.88C454.83 36.73 450.83 44 450.83 50.09V51.5C450.83 56.19 456.15 61.63 458.59 63.89C458.729 64.0182 458.896 64.1122 459.077 64.1644C459.259 64.2166 459.45 64.2256 459.636 64.1906C459.821 64.1556 459.996 64.0776 460.146 63.9629C460.296 63.8482 460.418 63.6999 460.5 63.53C462.61 59.21 468.76 46.19 468.76 41.15L468.83 39.74ZM459.83 49.74C457.21 51.26 455.08 50.03 455.08 47C455.169 45.3499 455.645 43.7441 456.471 42.3125C457.296 40.8809 458.447 39.6639 459.83 38.76C462.46 37.24 464.59 38.47 464.59 41.51C464.501 43.1536 464.027 44.7532 463.205 46.1794C462.383 47.6057 461.237 48.8186 459.86 49.72L459.83 49.74Z" fill="#FAFAFA"/>
</svg>
