<svg width="250" height="250" viewBox="0 0 250 250" fill="none" xmlns="http://www.w3.org/2000/svg">
<path d="M35.5481 157.981C35.6003 160.159 35.2011 162.324 34.3771 164.332C33.7587 165.823 32.7067 167.083 31.3648 167.937L31.2633 168L23.7226 172.46L20.6629 166.208L20.4531 165.791C18.7323 164.413 17.1961 162.808 15.884 161.018C15.5455 160.58 15.2071 160.128 14.9228 159.663C13.0432 156.862 11.5787 153.79 10.577 150.547C9.79819 148.096 9.3562 145.545 9.26383 142.968L9.20967 142.863L8.438 141.293L6.79312 138.063L6.11621 136.673L12.8379 132.678L13.2914 132.407L13.481 132.296C14.5126 131.696 15.6797 131.384 16.8655 131.393C18.8095 131.46 20.7024 132.049 22.3552 133.102C29.6523 137.458 35.5481 148.581 35.5481 157.981Z" fill="#263238"/>
<path d="M1.58301 146.916C1.58301 155.024 5.96936 164.41 11.8381 169.6C12.7341 170.395 13.6994 171.105 14.7218 171.719C21.9985 176.04 27.9011 171.906 27.8944 162.499C27.8944 155.399 24.5098 147.305 19.7715 141.92C19.7715 141.92 19.7715 141.92 19.7309 141.879C18.2893 140.222 16.6092 138.803 14.7488 137.668C7.44502 133.389 1.58301 137.516 1.58301 146.916Z" fill="#37474F"/>
<path d="M14.7131 143.371C10.0898 140.627 6.33301 143.483 6.33301 149.756C6.33301 156.03 10.0898 163.332 14.7131 166.076C19.3364 168.821 23.1 165.958 23.1 159.692C23.1 153.425 19.3432 146.116 14.7131 143.371Z" fill="#455A64"/>
<path d="M1.58301 146.915C1.58301 155.023 5.96936 164.409 11.8381 169.599C7.7623 164.861 4.8926 159.161 3.48512 153.008C2.36822 147.589 2.80821 139.807 7.32318 137.841C11.8381 135.875 17.8423 140.016 19.7309 141.905C18.2893 140.249 16.6092 138.829 14.7488 137.695C7.44502 133.387 1.58301 137.514 1.58301 146.915Z" fill="#455A64"/>
<path d="M14.7139 148.833C12.3109 147.409 10.3682 148.888 10.3682 152.147C10.3682 155.405 12.3109 159.192 14.7139 160.616C17.1169 162.04 19.0664 160.554 19.0664 157.302C19.0664 154.051 17.1508 150.257 14.7139 148.833Z" fill="#E0E0E0"/>
<path d="M13.326 148.769C13.0281 148.59 12.7066 148.457 12.3715 148.373C11.1666 148.707 10.3408 150.061 10.3408 152.146C10.4183 154.616 11.2866 156.992 12.8115 158.906C12.9755 159.037 13.1473 159.158 13.326 159.267C15.465 160.531 17.1911 159.218 17.1911 156.321C17.1911 153.424 15.465 150.04 13.326 148.769Z" fill="#F5F5F5"/>
<path d="M5.53027 127.822V131.102L99.5594 186.822V183.543L5.53027 127.822Z" fill="#455A64"/>
<path d="M34.5469 148.304L29.4092 145.254V163.172C29.4092 164.138 30.0861 164.527 30.8781 164.04L34.9395 161.643L34.5537 161.407L34.5469 148.304Z" fill="#005EB8"/>
<path opacity="0.7" d="M34.5469 148.304L29.4092 145.254V163.172C29.4092 164.138 30.0861 164.527 30.8781 164.04L34.9395 161.643L34.5537 161.407L34.5469 148.304Z" fill="white"/>
<path d="M34.5479 148.305V158.136L58.0704 172.073V162.242L34.5479 148.305Z" fill="#37474F"/>
<path d="M58.0705 172.072L34.548 158.135L33.1807 158.968L58.0705 173.698V172.072Z" fill="#263238"/>
<path d="M33.1865 160.609V158.977L58.0696 173.699V175.352L33.1865 160.609Z" fill="#455A64"/>
<path d="M58.0693 158.961V178.63L77.4289 190.1V170.432L58.0693 158.961Z" fill="#37474F"/>
<path d="M77.4326 170.434V190.102L96.7921 201.573V181.911L77.4326 170.434Z" fill="#37474F"/>
<path d="M96.79 201.573L102.32 198.294V181.904L99.5586 183.544L96.79 181.911V201.573Z" fill="#263238"/>
<path d="M76.7314 189.685V170.023L78.1123 170.843V190.505L76.7314 189.685Z" fill="#263238"/>
<path d="M86.4131 182.314V179.035L87.794 179.855L87.8007 183.134L86.4131 182.314Z" fill="#E0E0E0"/>
<path d="M67.0537 170.85V167.57L68.4346 168.383L68.4414 171.669L67.0537 170.85Z" fill="#E0E0E0"/>
<path opacity="0.2" d="M56.6566 158.121V171.238L55.3096 172.065V173.712L58.0714 175.351V158.962L56.6566 158.121Z" fill="black"/>
<path d="M-0.000976562 124.55L99.5585 183.543L99.5652 177.012L-0.000976562 118.02V124.55Z" fill="#005EB8"/>
<g opacity="0.6">
<path d="M-0.000976562 124.55L99.5585 183.543L99.5652 177.012L-0.000976562 118.02V124.55Z" fill="white"/>
</g>
<path d="M99.5576 183.543L102.319 181.903V175.352L99.5576 176.991V183.543Z" fill="#005EB8"/>
<g opacity="0.5">
<path d="M99.5596 183.543L102.321 181.903V175.352L99.5596 176.991V183.543Z" fill="white"/>
</g>
<g opacity="0.1">
<path d="M99.5596 183.543L102.321 181.903V175.352L99.5596 176.991V183.543Z" fill="black"/>
</g>
<path d="M69.1383 77.0215L-0.000976562 118.02L99.5585 176.992L168.698 136.021L69.1383 77.0215Z" fill="#005EB8"/>
<g opacity="0.8">
<path d="M69.1383 77.0215L-0.000976562 118.02L99.5585 176.992L168.698 136.021L69.1383 77.0215Z" fill="white"/>
</g>
<path d="M8.29004 37.6911L96.7888 90.1321L160.398 52.441L71.899 0L8.29004 37.6911Z" fill="#455A64"/>
<path d="M96.7888 172.073V90.1324L8.29004 37.6914V119.632L96.7888 172.073Z" fill="#37474F"/>
<path d="M96.79 172.073L160.399 134.382V52.4414L96.79 90.1325V172.073Z" fill="#263238"/>
<path d="M71.2426 146.916C70.7424 146.556 70.3329 146.079 70.048 145.524C69.7632 144.97 69.6111 144.354 69.6045 143.727V138.863L72.9349 140.871L73.1515 140.829V141.156V145.519C73.1753 145.805 73.1253 146.092 73.0065 146.352C72.8876 146.612 72.7042 146.835 72.4746 146.999C72.3149 147.089 72.1357 147.137 71.9534 147.138C71.7021 147.126 71.4578 147.049 71.2426 146.916ZM71.6149 141.663L71.3712 143.372H70.1392V143.727C70.1486 144.255 70.2754 144.775 70.51 145.246C70.7446 145.716 71.0808 146.126 71.4931 146.443C71.596 146.519 71.7162 146.565 71.842 146.579C71.9678 146.592 72.0947 146.572 72.2106 146.52C72.3526 146.4 72.4627 146.246 72.5302 146.071C72.5977 145.896 72.6205 145.706 72.5964 145.519V141.476L71.6149 141.663ZM71.1411 141.191L72.1226 141.01L70.1392 139.808V142.823H70.9109L71.1411 141.191Z" fill="#E0E0E0"/>
<path d="M71.3783 150.618C71.4136 150.619 71.4485 150.611 71.481 150.597C71.5134 150.583 71.5428 150.563 71.5674 150.537C71.5921 150.511 71.6114 150.48 71.6242 150.446C71.6371 150.413 71.6432 150.377 71.6423 150.341V146.679C71.6423 146.607 71.6145 146.538 71.565 146.488C71.5155 146.437 71.4484 146.408 71.3783 146.408C71.3083 146.408 71.2412 146.437 71.1917 146.488C71.1422 146.538 71.1143 146.607 71.1143 146.679V150.341C71.1134 150.377 71.1196 150.413 71.1325 150.446C71.1453 150.48 71.1646 150.511 71.1892 150.537C71.2138 150.563 71.2432 150.583 71.2757 150.597C71.3082 150.611 71.3431 150.619 71.3783 150.618Z" fill="#E0E0E0"/>
<path d="M72.9289 151.535C72.9759 151.536 73.0223 151.523 73.0629 151.499C73.1035 151.474 73.1367 151.439 73.159 151.396C73.1772 151.366 73.1892 151.331 73.1943 151.295C73.1993 151.26 73.1974 151.223 73.1886 151.188C73.1797 151.153 73.1642 151.121 73.1428 151.092C73.1215 151.063 73.0948 151.039 73.0643 151.021L69.9505 149.18C69.9212 149.161 69.8882 149.148 69.8537 149.142C69.8192 149.136 69.7839 149.138 69.7501 149.147C69.7163 149.156 69.6848 149.173 69.6575 149.195C69.6302 149.218 69.6078 149.246 69.5917 149.277C69.5735 149.308 69.5616 149.343 69.5565 149.378C69.5514 149.414 69.5533 149.451 69.5622 149.485C69.571 149.52 69.5865 149.553 69.6079 149.582C69.6292 149.611 69.656 149.635 69.6865 149.653L72.7935 151.494C72.8348 151.518 72.8812 151.533 72.9289 151.535Z" fill="#E0E0E0"/>
<path d="M82.2363 157.197C82.3384 157.2 82.4392 157.174 82.5274 157.121C82.6353 157.052 82.7224 156.954 82.7786 156.838C82.8349 156.721 82.8581 156.59 82.8455 156.461V155.71C82.8354 155.645 82.8029 155.586 82.7539 155.543C82.7049 155.5 82.6426 155.476 82.5781 155.476C82.5137 155.476 82.4514 155.5 82.4024 155.543C82.3534 155.586 82.3209 155.645 82.3108 155.71V156.461C82.3108 156.572 82.3108 156.634 82.2566 156.648C82.1961 156.656 82.1353 156.638 82.0874 156.6C81.9219 156.441 81.7915 156.248 81.7051 156.034C81.6186 155.819 81.5782 155.588 81.5865 155.356V150.493C81.5874 150.457 81.5812 150.421 81.5684 150.387C81.5555 150.353 81.5362 150.323 81.5116 150.297C81.487 150.271 81.4576 150.25 81.4251 150.236C81.3926 150.222 81.3577 150.215 81.3225 150.215C81.2507 150.215 81.1818 150.244 81.131 150.296C81.0802 150.348 81.0517 150.419 81.0517 150.493V155.356C81.0379 155.683 81.0993 156.009 81.2311 156.307C81.3628 156.605 81.5611 156.867 81.8099 157.072C81.9391 157.151 82.086 157.194 82.2363 157.197Z" fill="#E0E0E0"/>
<path d="M77.9422 148.729V148.569C77.8608 148.1 77.9223 147.616 78.1183 147.183C78.3144 146.751 78.6354 146.391 79.0379 146.153C79.4403 145.914 79.9045 145.809 80.3674 145.851C80.8302 145.893 81.2692 146.08 81.6246 146.388C82.6204 147.053 83.4491 147.951 84.0431 149.007C84.6371 150.063 84.9797 151.249 85.043 152.467V152.939L77.9422 148.729ZM79.296 146.645C79.0224 146.846 78.8031 147.116 78.6587 147.428C78.5143 147.74 78.4494 148.085 78.4702 148.43L84.4812 151.994C84.3487 150.961 84.0007 149.97 83.4611 149.087C82.9214 148.205 82.2026 147.452 81.3538 146.881C80.9464 146.621 80.4796 146.475 80 146.457C79.7577 146.452 79.5181 146.509 79.3028 146.624L79.296 146.645Z" fill="#E0E0E0"/>
<path d="M92.9631 163.353C92.9984 163.353 93.0333 163.346 93.0658 163.332C93.0982 163.318 93.1276 163.297 93.1523 163.272C93.1769 163.246 93.1962 163.215 93.209 163.181C93.2219 163.148 93.228 163.112 93.2271 163.075V153.745C93.228 153.709 93.2219 153.673 93.209 153.639C93.1962 153.605 93.1769 153.574 93.1523 153.549C93.1276 153.523 93.0982 153.502 93.0658 153.488C93.0333 153.474 92.9984 153.467 92.9631 153.467C92.8913 153.467 92.8225 153.496 92.7717 153.548C92.7209 153.6 92.6924 153.671 92.6924 153.745V163.075C92.6924 163.149 92.7209 163.22 92.7717 163.272C92.8225 163.324 92.8913 163.353 92.9631 163.353Z" fill="#E0E0E0"/>
<path d="M93.7569 155.871C93.7927 155.879 93.8295 155.879 93.8652 155.871C93.8975 155.857 93.9266 155.836 93.9509 155.81C93.9752 155.784 93.9943 155.753 94.0069 155.72C94.0195 155.686 94.0254 155.65 94.0244 155.614C94.0233 155.578 94.0152 155.543 94.0006 155.51L93.053 153.252L91.9902 154.516C91.9444 154.572 91.9219 154.643 91.9276 154.716C91.9333 154.788 91.9668 154.855 92.0207 154.902C92.0745 154.949 92.1444 154.972 92.2148 154.966C92.2853 154.96 92.3506 154.926 92.3964 154.871L92.8973 154.273L93.5132 155.725C93.5363 155.771 93.5714 155.809 93.6145 155.834C93.6576 155.86 93.707 155.873 93.7569 155.871Z" fill="#E0E0E0"/>
<path d="M90.5056 161.909C90.5762 161.907 90.6434 161.877 90.6927 161.825C90.742 161.773 90.7696 161.703 90.7696 161.631V152.3C90.7758 152.261 90.7735 152.22 90.7629 152.181C90.7523 152.143 90.7336 152.107 90.7082 152.076C90.6828 152.045 90.6512 152.021 90.6156 152.004C90.5801 151.987 90.5414 151.979 90.5022 151.979C90.463 151.979 90.4243 151.987 90.3888 152.004C90.3532 152.021 90.3216 152.045 90.2962 152.076C90.2708 152.107 90.2521 152.143 90.2415 152.181C90.2309 152.22 90.2287 152.261 90.2348 152.3V161.631C90.2348 161.705 90.2634 161.775 90.3141 161.827C90.3649 161.88 90.4338 161.909 90.5056 161.909Z" fill="#E0E0E0"/>
<path d="M91.2863 154.426C91.3221 154.433 91.3588 154.433 91.3946 154.426C91.4269 154.412 91.456 154.391 91.4803 154.365C91.5047 154.339 91.5237 154.308 91.5363 154.274C91.5489 154.241 91.5548 154.205 91.5538 154.169C91.5527 154.133 91.5446 154.097 91.53 154.065L90.5823 151.807L89.5196 153.064C89.4828 153.12 89.4673 153.189 89.476 153.256C89.4848 153.323 89.5171 153.385 89.5671 153.429C89.617 153.474 89.681 153.498 89.7471 153.497C89.8131 153.496 89.8767 153.471 89.9257 153.425L90.4267 152.828L91.0427 154.28C91.0657 154.325 91.1008 154.363 91.1439 154.389C91.187 154.415 91.2364 154.428 91.2863 154.426Z" fill="#E0E0E0"/>
<path d="M36.83 113.914V128.942C36.83 129.519 36.4306 129.755 35.9432 129.463L13.0908 115.915C12.8322 115.744 12.6168 115.513 12.4626 115.24C12.3084 114.967 12.2198 114.66 12.2041 114.345V99.3102C12.2041 98.7266 12.6035 98.4973 13.0908 98.7822L35.95 112.358C36.2045 112.529 36.4166 112.759 36.5693 113.029C36.7221 113.299 36.8113 113.602 36.83 113.914Z" fill="#FAFAFA"/>
<path d="M13.6182 100.936L14.356 101.373V115.032L13.6182 114.595V100.936Z" fill="#455A64"/>
<path d="M16.6221 102.715L17.8947 103.486V117.145L16.6221 116.381V102.715Z" fill="#455A64"/>
<path d="M19.6279 104.492L20.3658 104.93V118.596L19.6279 118.158V104.492Z" fill="#455A64"/>
<path d="M21.8936 105.812L23.3692 106.716V120.375L21.8936 119.479V105.812Z" fill="#455A64"/>
<path d="M25.6396 108.057L26.3775 108.494V122.153L25.6396 121.716V108.057Z" fill="#455A64"/>
<path d="M27.7979 109.309L29.3818 110.274V123.933L27.7979 122.975V109.309Z" fill="#455A64"/>
<path d="M31.6494 111.613L32.3872 112.051L32.3805 125.717L31.6494 125.272V111.613Z" fill="#455A64"/>
<path d="M33.3623 112.615L33.7272 112.838V126.497L33.3623 126.281V112.615Z" fill="#455A64"/>
<path d="M30.2764 110.871L30.6487 111.086V124.753L30.2764 124.53V110.871Z" fill="#455A64"/>
<path d="M24.2236 107.23L24.5959 107.453V121.112L24.2236 120.897V107.23Z" fill="#455A64"/>
<path d="M20.9072 105.277L21.2795 105.5V119.159L20.9072 118.943V105.277Z" fill="#455A64"/>
<path d="M18.5312 103.93L18.8967 104.152V117.811L18.5244 117.589L18.5312 103.93Z" fill="#455A64"/>
<path d="M15.3018 101.916L15.6666 102.138V115.797L15.3018 115.582V101.916Z" fill="#455A64"/>
<path d="M34.6542 113.393L35.3853 113.83V127.496L34.6475 127.059L34.6542 113.393Z" fill="#455A64"/>
<path d="M229.838 121.647L234.928 118.61C235.098 118.483 235.298 118.405 235.508 118.385C235.717 118.364 235.928 118.401 236.119 118.492C236.417 118.673 237.019 119.048 237.317 119.187C237.491 119.31 237.629 119.479 237.717 119.676C237.805 119.873 237.84 120.09 237.818 120.306V132.853C237.787 133.45 237.618 134.03 237.326 134.547C237.035 135.064 236.628 135.502 236.14 135.827L231.056 138.898C230.887 139.024 230.688 139.102 230.48 139.124C230.272 139.146 230.062 139.111 229.871 139.023C229.567 138.842 228.964 138.46 228.66 138.286C228.488 138.162 228.352 137.992 228.265 137.796C228.178 137.599 228.144 137.382 228.166 137.168V124.62C228.196 124.024 228.364 123.444 228.654 122.928C228.945 122.411 229.35 121.972 229.838 121.647Z" fill="#FAFAFA"/>
<path d="M228.16 124.62V137.167C228.138 137.382 228.172 137.599 228.258 137.796C228.345 137.993 228.482 138.162 228.654 138.286C228.952 138.453 229.406 138.751 229.832 138.981C229.674 138.852 229.55 138.685 229.47 138.494C229.391 138.304 229.36 138.096 229.379 137.89V125.356C229.397 124.76 229.565 124.179 229.866 123.668L228.654 122.932C228.351 123.441 228.181 124.023 228.16 124.62Z" fill="#E0E0E0"/>
<path d="M236.143 135.861L231.06 138.897C230.132 139.446 229.388 139.001 229.388 137.911V125.356C229.419 124.761 229.587 124.181 229.877 123.664C230.168 123.147 230.573 122.708 231.06 122.383L236.15 119.346C237.077 118.798 237.829 119.242 237.829 120.34V132.887C237.796 133.485 237.627 134.065 237.334 134.582C237.041 135.099 236.633 135.537 236.143 135.861Z" fill="#F0F0F0"/>
<path d="M229.54 146.29C229.466 146.288 229.393 146.267 229.329 146.228C229.265 146.189 229.212 146.134 229.175 146.068C229.147 146.019 229.129 145.964 229.122 145.908C229.115 145.851 229.118 145.794 229.133 145.739C229.147 145.684 229.172 145.633 229.206 145.588C229.24 145.543 229.282 145.505 229.33 145.477L232.877 143.393C232.942 143.355 232.995 143.3 233.032 143.234C233.068 143.168 233.088 143.094 233.087 143.018V129.254C233.08 129.193 233.085 129.13 233.103 129.071C233.121 129.011 233.15 128.957 233.19 128.91C233.23 128.863 233.28 128.826 233.335 128.801C233.39 128.775 233.45 128.762 233.51 128.762C233.571 128.762 233.631 128.775 233.686 128.801C233.741 128.826 233.79 128.863 233.83 128.91C233.87 128.957 233.9 129.011 233.918 129.071C233.936 129.13 233.941 129.193 233.933 129.254V142.997C233.933 143.226 233.874 143.452 233.762 143.65C233.651 143.849 233.49 144.014 233.297 144.129L229.75 146.214C229.689 146.259 229.616 146.286 229.54 146.29Z" fill="#263238"/>
<path d="M124 217.434L138.384 210.612C138.384 210.612 137.26 196.716 127.763 200.044C118.266 203.372 124 217.434 124 217.434Z" fill="#005EB8"/>
<g opacity="0.5">
<path d="M123.996 217.434L138.38 210.612C138.38 210.612 137.256 196.716 127.759 200.044C118.262 203.372 123.996 217.434 123.996 217.434Z" fill="black"/>
</g>
<path d="M131.911 215.698L128.845 209.389L136.209 205.012C138.558 203.623 141.672 203.79 145.097 205.818C152.374 210.133 158.27 221.249 158.27 230.656C158.27 235.575 156.652 239.056 154.066 240.633L153.958 240.696L146.41 245.17L143.141 238.514C136.92 233.665 132.148 224.091 131.911 215.698Z" fill="#263238"/>
<path d="M124.228 219.581C124.228 227.689 128.614 237.075 134.489 242.265C135.389 243.063 136.356 243.777 137.38 244.398C144.657 248.706 150.559 244.579 150.552 235.172C150.552 228.071 147.168 219.977 142.43 214.593L142.389 214.551C140.949 212.893 139.269 211.472 137.407 210.341C130.123 206.054 124.228 210.181 124.228 219.581Z" fill="#37474F"/>
<path d="M137.401 216.039C132.771 213.26 129.021 216.15 129.021 222.424C129.021 228.697 132.771 235.999 137.401 238.744C142.031 241.488 145.781 238.625 145.781 232.359C145.781 226.092 142.031 218.783 137.401 216.039Z" fill="#455A64"/>
<path d="M137.401 221.5C134.998 220.11 133.056 221.555 133.056 224.814C133.056 228.072 134.998 231.859 137.401 233.283C139.804 234.707 141.754 233.22 141.754 229.969C141.754 226.717 139.804 222.924 137.401 221.5Z" fill="#E0E0E0"/>
<path d="M136.012 221.437C135.713 221.26 135.392 221.126 135.057 221.041C133.852 221.375 133.026 222.729 133.026 224.814C133.103 227.27 133.959 229.634 135.463 231.546C135.631 231.676 135.805 231.796 135.984 231.907C138.123 233.172 139.85 231.859 139.85 228.961C139.85 226.064 138.151 222.702 136.012 221.437Z" fill="#F5F5F5"/>
<path d="M124.228 219.581C124.228 227.689 128.614 237.075 134.489 242.265C130.414 237.527 127.544 231.827 126.136 225.674C125.02 220.255 125.46 212.473 129.974 210.507C134.489 208.541 140.494 212.682 142.382 214.571C140.943 212.913 139.262 211.493 137.4 210.361C130.123 206.053 124.228 210.18 124.228 219.581Z" fill="#455A64"/>
<path d="M175.089 247.691L162.059 239.965L160.346 238.951L157.063 236.992L155.506 236.061C155.562 235.91 155.585 235.749 155.574 235.588C155.628 235.345 155.648 235.094 155.635 234.845C155.635 224.5 148.561 211.918 139.788 206.749C138.965 206.258 138.108 205.831 137.223 205.47C136.837 205.317 136.472 205.185 136.106 205.074C129.174 202.92 124.01 207.242 124.01 216.093V217.434L102.349 204.588V103.242L129.269 119.222L152.771 136.987L163.426 190.171L171.691 202.636L172.131 203.296L177.181 210.896L178.819 231.58L179.225 236.102L179.401 237.964L179.807 242.439L179.997 244.523C180.047 245.135 179.933 245.75 179.666 246.3C179.399 246.85 178.989 247.314 178.483 247.641C177.976 247.968 177.391 248.146 176.793 248.155C176.194 248.163 175.605 248.003 175.089 247.691Z" fill="#005EB8"/>
<g opacity="0.15">
<path d="M175.089 247.691L162.059 239.965L160.346 238.951L157.063 236.992L155.506 236.061C155.562 235.91 155.585 235.749 155.574 235.588C155.628 235.345 155.648 235.094 155.635 234.845C155.635 224.5 148.561 211.918 139.788 206.749C138.965 206.258 138.108 205.831 137.223 205.47C136.837 205.317 136.472 205.185 136.106 205.074C129.174 202.92 124.01 207.242 124.01 216.093V217.434L102.349 204.588V103.242L129.269 119.222L152.771 136.987L163.426 190.171L171.691 202.636L172.131 203.296L177.181 210.896L178.819 231.58L179.225 236.102L179.401 237.964L179.807 242.439L179.997 244.523C180.047 245.135 179.933 245.75 179.666 246.3C179.399 246.85 178.989 247.314 178.483 247.641C177.976 247.968 177.391 248.146 176.793 248.155C176.194 248.163 175.605 248.003 175.089 247.691Z" fill="black"/>
</g>
<path d="M139.809 138.627V171.413C139.809 172.622 138.99 173.108 137.975 172.504L111.481 156.823C110.945 156.465 110.498 155.982 110.178 155.413C109.858 154.844 109.674 154.206 109.64 153.551V119.041C109.64 117.839 110.459 117.353 111.481 117.951L127.408 127.393C128.424 127.997 130.015 129.06 130.955 129.776L138.097 135.16C138.601 135.584 139.014 136.112 139.309 136.709C139.603 137.305 139.774 137.959 139.809 138.627Z" fill="#455A64"/>
<path d="M148.325 178.61C147.433 178.014 146.69 177.21 146.157 176.263C145.624 175.317 145.316 174.255 145.259 173.163V144.171C145.259 142.163 145.983 141.093 146.877 141.781L148.494 143.024C149.699 144.057 150.552 145.456 150.931 147.019L157.457 181.827C157.721 183.217 156.976 183.738 155.805 183.036L148.325 178.61Z" fill="#455A64"/>
<g opacity="0.15">
<path d="M141.155 133.597L130.453 125.593C129.654 124.996 128.307 124.093 127.454 123.592L108.467 112.358C108.26 112.207 108.017 112.117 107.764 112.098C107.511 112.078 107.258 112.13 107.032 112.247C106.82 112.391 106.65 112.591 106.54 112.826C106.429 113.06 106.381 113.321 106.402 113.581V201.983C106.43 202.594 106.6 203.189 106.898 203.718C107.196 204.248 107.613 204.696 108.115 205.026L120.577 212.405C120.836 212.572 121.136 212.664 121.443 212.669C121.63 212.672 121.815 212.631 121.985 212.55C122.214 212.441 122.408 212.268 122.546 212.05C122.698 211.815 122.799 211.55 122.844 211.272C123.291 208.938 124.672 204.755 128.936 202.997C131.172 202.155 133.615 202.081 135.895 202.789C137.096 203.115 138.261 203.565 139.374 204.13C139.862 204.373 140.308 204.616 140.728 204.825C140.934 204.977 141.175 205.07 141.427 205.095C141.68 205.119 141.934 205.074 142.163 204.964C142.304 204.875 142.422 204.754 142.508 204.609C142.676 204.325 142.759 203.996 142.745 203.664V136.779C142.715 136.163 142.558 135.561 142.283 135.013C142.009 134.464 141.624 133.981 141.155 133.597ZM141.662 204.38C141.495 204.401 141.326 204.364 141.182 204.276L141.067 204.22C139.262 203.134 137.302 202.346 135.259 201.886C133.072 201.359 130.783 201.508 128.679 202.317C124.577 204.012 122.973 207.75 122.35 210.292C122.269 210.591 122.208 210.855 122.161 211.119C122.147 211.274 122.097 211.424 122.016 211.555C121.935 211.687 121.824 211.797 121.694 211.877C121.567 211.921 121.432 211.934 121.3 211.913C121.168 211.893 121.043 211.84 120.935 211.758L108.467 204.387C108.075 204.12 107.748 203.763 107.513 203.345C107.279 202.927 107.141 202.458 107.113 201.976V113.567C107.099 113.437 107.117 113.306 107.164 113.185C107.211 113.064 107.287 112.957 107.384 112.872C107.454 112.833 107.534 112.814 107.614 112.817C107.792 112.827 107.965 112.884 108.115 112.983L127.102 124.239C127.941 124.732 129.255 125.628 130.033 126.191L140.742 134.202C141.118 134.52 141.427 134.914 141.648 135.36C141.869 135.806 141.998 136.294 142.028 136.793V203.692C142.049 203.818 142.039 203.948 141.998 204.069C141.958 204.191 141.889 204.3 141.798 204.387C141.762 204.406 141.723 204.418 141.683 204.422L141.662 204.38Z" fill="black"/>
</g>
<path d="M248.107 201.893C248.107 201.893 238.285 215.83 216.861 228.989C199.078 239.897 179.699 242.447 179.699 242.447L177.167 210.89L245.575 170.344L248.107 201.893Z" fill="#005EB8"/>
<g opacity="0.3">
<path d="M248.107 201.893C248.107 201.893 238.285 215.83 216.861 228.989C199.078 239.897 179.699 242.447 179.699 242.447L177.167 210.89L245.575 170.344L248.107 201.893Z" fill="black"/>
</g>
<path d="M245.576 170.33C245.576 170.33 235.755 184.274 214.33 197.426C196.548 208.334 177.168 210.883 177.168 210.883L163.454 190.172L231.876 149.633L245.576 170.33Z" fill="#005EB8"/>
<path d="M249.333 197.245C249.211 197.113 249.103 197.134 248.974 197.357C248.974 197.357 239.152 211.294 217.722 224.452C199.919 235.333 180.553 237.903 180.553 237.903C172.24 238.681 162.06 229.67 162.06 229.67L163.461 228.621C163.461 228.621 173.113 236.125 178.021 236.125C182.252 236.125 197.374 234.151 217.891 222.229C238.408 210.307 247.675 195.891 247.675 195.891C248.042 195.95 248.387 196.107 248.678 196.344C248.968 196.581 249.194 196.892 249.333 197.245Z" fill="#37474F"/>
<path d="M248.968 197.355C248.968 197.355 239.139 211.292 217.715 224.451C199.939 235.359 180.553 237.909 180.553 237.909C172.24 238.687 162.06 229.69 162.06 229.69V241.723C162.06 241.723 172.213 250.755 180.553 249.949C180.553 249.949 199.939 247.393 217.715 236.492C239.139 223.347 248.968 209.396 248.968 209.396C250.687 206.415 249.956 195.57 248.968 197.355Z" fill="#455A64"/>
<path d="M186.225 217.191C189.285 216.447 192.053 218.58 192.405 221.936C192.563 223.584 192.145 225.236 191.226 226.598C190.308 227.959 188.948 228.942 187.389 229.37C186.673 229.555 185.925 229.573 185.201 229.423C184.476 229.274 183.794 228.96 183.202 228.506C182.611 228.051 182.126 227.467 181.782 226.795C181.438 226.124 181.245 225.383 181.216 224.625C180.925 221.262 183.165 217.962 186.225 217.191Z" fill="white"/>
<path d="M240.66 185.212C238.799 187.115 237.608 191.194 237.993 194.327C238.379 197.46 240.126 198.447 241.886 196.529C243.646 194.612 244.837 190.533 244.553 187.414C244.268 184.294 242.515 183.308 240.66 185.212Z" fill="white"/>
<path d="M197.637 213.1C203.552 211.188 209.231 208.576 214.559 205.318C215.405 204.811 216.082 205.207 216.082 206.208V207.479C216.058 208.028 215.907 208.562 215.642 209.039C215.377 209.516 215.006 209.922 214.559 210.223C209.231 213.482 203.552 216.093 197.637 218.005C197.437 218.082 197.222 218.105 197.011 218.074C196.8 218.043 196.601 217.957 196.431 217.826C196.26 217.694 196.125 217.52 196.038 217.321C195.951 217.122 195.914 216.903 195.931 216.685V215.413C195.952 214.895 196.127 214.397 196.432 213.983C196.737 213.57 197.157 213.262 197.637 213.1Z" fill="#37474F"/>
<path d="M234.44 192.437V193.709C234.381 194.849 233.896 195.922 233.086 196.703C229.037 200.183 224.805 203.43 220.407 206.43C219.595 206.979 218.925 206.604 218.925 205.603V204.346C218.961 203.8 219.112 203.269 219.368 202.789C219.624 202.309 219.979 201.892 220.407 201.567C224.804 198.565 229.036 195.318 233.086 191.84C233.857 191.152 234.44 191.437 234.44 192.437Z" fill="#37474F"/>
<path d="M197.637 221.979C203.553 220.069 209.232 217.46 214.56 214.204C215.406 213.697 216.083 214.086 216.083 215.094V216.365C216.055 216.913 215.903 217.446 215.639 217.923C215.374 218.399 215.005 218.806 214.56 219.109C209.23 222.363 203.552 224.971 197.637 226.884C197.438 226.963 197.222 226.988 197.011 226.957C196.799 226.927 196.598 226.842 196.428 226.71C196.257 226.577 196.122 226.403 196.035 226.203C195.949 226.002 195.913 225.782 195.932 225.564V224.292C195.956 223.775 196.132 223.278 196.436 222.865C196.741 222.452 197.159 222.143 197.637 221.979Z" fill="#37474F"/>
<path d="M234.44 201.352V202.623C234.38 203.761 233.895 204.831 233.086 205.611C229.037 209.09 224.805 212.337 220.407 215.337C219.595 215.893 218.925 215.518 218.925 214.511V213.239C218.961 212.693 219.112 212.162 219.368 211.682C219.624 211.202 219.979 210.785 220.407 210.46C224.8 207.454 229.033 204.207 233.086 200.733C233.857 200.06 234.44 200.344 234.44 201.352Z" fill="#37474F"/>
<g opacity="0.15">
<path d="M200.184 177.36C191.085 182.409 181.664 186.819 171.984 190.561C171.781 190.629 171.596 190.745 171.445 190.9C171.293 191.055 171.18 191.245 171.114 191.454C171.048 191.662 171.031 191.884 171.065 192.101C171.098 192.318 171.181 192.523 171.307 192.701L171.355 192.77C171.66 193.199 172.073 193.534 172.551 193.739C173.028 193.943 173.551 194.01 174.062 193.931C178.219 193 189.455 189.998 203.42 182.293C203.62 182.187 203.795 182.038 203.934 181.856C204.073 181.674 204.172 181.463 204.224 181.239C204.277 181.014 204.282 180.78 204.239 180.553C204.196 180.327 204.106 180.112 203.975 179.924L202.709 177.993C202.434 177.592 202.026 177.307 201.562 177.191C201.098 177.074 200.608 177.135 200.184 177.36Z" fill="black"/>
</g>
<g opacity="0.15">
<path d="M229.398 156.572C222.131 162.996 214.346 168.774 206.126 173.844C205.929 173.962 205.757 174.12 205.623 174.309C205.488 174.498 205.393 174.714 205.344 174.942C205.295 175.171 205.293 175.408 205.338 175.637C205.383 175.867 205.474 176.084 205.605 176.276L206.884 178.221C207.158 178.623 207.568 178.906 208.034 179.012C208.5 179.119 208.988 179.043 209.402 178.798C222.06 170.968 228.829 164.076 231.93 160.324C232.238 159.909 232.416 159.407 232.439 158.886C232.462 158.364 232.329 157.848 232.058 157.406L231.713 156.878C231.595 156.684 231.436 156.519 231.248 156.395C231.06 156.272 230.847 156.192 230.626 156.163C230.405 156.134 230.18 156.155 229.967 156.226C229.755 156.297 229.561 156.415 229.398 156.572Z" fill="black"/>
</g>
<path d="M231.875 149.598C231.875 149.598 220.57 161.263 201.942 172.393C183.313 183.523 163.46 190.131 163.46 190.131L152.765 136.932L195.518 111.608L215.182 99.9637L221.18 96.3926L231.875 149.598Z" fill="#455A64"/>
<path d="M221.18 96.3789L215.182 99.9431L195.518 111.608L152.765 136.932L163.46 190.131L164.191 189.881L164.34 189.832L165.084 189.568L165.396 189.478H165.463H165.531L166.039 189.29L166.831 189.005L167.616 188.713L168.13 188.519L168.807 188.262L171.095 187.373L171.61 187.171C173.444 186.442 175.522 185.594 177.776 184.628L179.997 183.662L180.355 183.503L180.762 183.329C181.229 183.107 181.716 182.898 182.203 182.676L182.623 182.488L183.598 182.037L184.715 181.523C185.527 181.147 186.353 180.751 187.185 180.348C188.018 179.945 188.857 179.536 189.703 179.119C190.34 178.799 190.976 178.48 191.612 178.146L193.156 177.354L193.318 177.271L194.895 176.43L195.024 176.36L196.412 175.61L197.522 174.999C198.424 174.503 199.302 174.003 200.155 173.498L201.908 172.47L203.506 171.414C203.959 171.143 204.406 170.858 204.859 170.58C205.029 170.476 205.205 170.372 205.367 170.26C205.875 169.948 206.389 169.621 206.883 169.302L207.066 169.184L207.79 168.711C208.109 168.503 208.413 168.294 208.731 168.093L209.632 167.481L210.525 166.884C210.897 166.634 211.27 166.384 211.628 166.127C212.366 165.612 213.084 165.112 213.788 164.605L213.93 164.501L214.742 163.924C215.812 163.146 216.841 162.382 217.815 161.645L218.546 161.083L219.223 160.541L219.9 159.999C220.361 159.644 220.801 159.304 221.254 158.95L221.308 158.908L221.857 158.47L223.109 157.442L223.901 156.796C224.063 156.657 224.219 156.518 224.375 156.393C224.53 156.268 224.686 156.122 224.835 156.004L225.288 155.622C225.287 155.61 225.287 155.598 225.288 155.587L226.317 154.739C227.583 153.642 228.646 152.655 229.485 151.891C229.591 151.779 229.704 151.675 229.824 151.578L229.891 151.509L230.243 151.175C231.238 150.237 231.78 149.681 231.854 149.605L221.18 96.3789ZM198.131 170.719C198.134 170.733 198.134 170.747 198.131 170.761C198.117 170.868 198.097 170.975 198.07 171.08V171.171C198.036 171.254 198.009 171.344 197.975 171.428C197.962 171.466 197.946 171.503 197.928 171.539C197.892 171.643 197.847 171.743 197.792 171.838C197.612 172.173 197.368 172.469 197.075 172.706C196.979 172.785 196.875 172.853 196.764 172.907C194.245 174.297 191.727 175.645 189.27 176.875L187.977 177.528C186.944 178.033 185.922 178.524 184.911 179.001L183.503 179.695L181.093 180.793C180.694 180.981 180.301 181.154 179.915 181.321L178.771 181.828C177.255 182.523 175.807 183.107 174.439 183.676C173.715 183.982 173.004 184.267 172.327 184.545L171.332 184.941C169.701 185.587 168.266 186.143 167.054 186.594C166.663 186.758 166.227 186.771 165.827 186.632C165.427 186.493 165.089 186.211 164.875 185.837C164.771 185.641 164.696 185.43 164.651 185.212L158.072 151.571C157.977 150.957 158.058 150.328 158.306 149.76C158.553 149.193 158.956 148.712 159.466 148.375L187.219 131.93C187.428 131.784 187.67 131.694 187.921 131.67C188.173 131.645 188.427 131.687 188.658 131.79C188.89 131.894 189.093 132.056 189.247 132.261C189.402 132.467 189.503 132.709 189.541 132.965L196.114 161.131L198.104 169.663L198.138 169.802V169.906C198.145 169.945 198.145 169.985 198.138 170.024C198.141 170.063 198.141 170.103 198.138 170.142C198.145 170.226 198.145 170.309 198.138 170.392C198.144 170.501 198.142 170.61 198.131 170.719ZM222.581 155.101L222.093 155.524C220.476 156.865 218.634 158.303 216.61 159.881C215.934 160.409 215.209 160.937 214.471 161.479L213.679 162.069C212.603 162.861 211.486 163.653 210.295 164.466L209.144 165.258C208.758 165.529 208.359 165.793 207.96 166.057C207.56 166.321 207.154 166.606 206.748 166.87C205.293 167.836 203.783 168.801 202.226 169.753C202.022 169.902 201.783 169.995 201.533 170.022C201.284 170.049 201.032 170.01 200.801 169.908C200.571 169.806 200.369 169.645 200.217 169.44C200.065 169.236 199.966 168.994 199.932 168.739L199.884 168.53L197.887 160.027L191.375 131.93C191.261 131.318 191.33 130.686 191.571 130.114C191.812 129.543 192.216 129.06 192.729 128.727L197.989 125.622L219.399 112.907L220.354 112.352L220.435 112.31C220.639 112.181 220.872 112.107 221.112 112.094C221.351 112.082 221.59 112.133 221.806 112.241C222.021 112.349 222.207 112.512 222.345 112.713C222.482 112.915 222.568 113.149 222.594 113.394L229.14 146.743C229.289 147.768 229.065 148.815 228.511 149.681C228.436 149.8 228.355 149.918 228.274 150.022C228.193 150.117 228.107 150.208 228.016 150.293L227.671 150.612C227.515 150.765 227.353 150.911 227.191 151.057L225.728 152.363C225.207 152.829 224.632 153.329 224.023 153.85L222.743 154.934L222.588 155.059L222.581 155.101Z" fill="#005EB8"/>
<g opacity="0.3">
<path d="M221.178 96.3789L215.18 99.9431L195.516 111.608L152.763 136.932L163.458 190.131L164.189 189.881L164.338 189.832L165.082 189.568L165.394 189.478H165.461H165.529L166.037 189.29L166.829 189.005L167.614 188.713L168.128 188.519L168.805 188.262L171.093 187.373L171.608 187.171C173.442 186.442 175.52 185.594 177.774 184.628L179.995 183.662L180.353 183.503L180.76 183.329C181.227 183.107 181.714 182.898 182.201 182.676L182.621 182.488L183.596 182.037L184.713 181.523C185.525 181.147 186.351 180.751 187.183 180.348C188.016 179.945 188.855 179.536 189.701 179.119C190.338 178.799 190.974 178.48 191.61 178.146L193.154 177.354L193.316 177.271L194.893 176.43L195.022 176.36L196.41 175.61L197.52 174.999C198.422 174.503 199.3 174.003 200.153 173.498L201.906 172.47L203.504 171.414C203.957 171.143 204.404 170.858 204.857 170.58C205.027 170.476 205.203 170.372 205.365 170.26C205.873 169.948 206.387 169.621 206.881 169.302L207.064 169.184L207.788 168.711C208.107 168.503 208.411 168.294 208.729 168.093L209.63 167.481L210.523 166.884C210.895 166.634 211.268 166.384 211.626 166.127C212.364 165.612 213.082 165.112 213.786 164.605L213.928 164.501L214.74 163.924C215.81 163.146 216.839 162.382 217.813 161.645L218.544 161.083L219.221 160.541L219.898 159.999C220.359 159.644 220.799 159.304 221.252 158.95L221.306 158.908L221.855 158.47L223.107 157.442L223.899 156.796C224.061 156.657 224.217 156.518 224.373 156.393C224.528 156.268 224.684 156.122 224.833 156.004L225.286 155.622C225.285 155.61 225.285 155.598 225.286 155.587L226.315 154.739C227.581 153.642 228.644 152.655 229.483 151.891C229.589 151.779 229.702 151.675 229.822 151.578L229.889 151.509L230.241 151.175C231.236 150.237 231.778 149.681 231.852 149.605L221.178 96.3789ZM198.129 170.719C198.132 170.733 198.132 170.747 198.129 170.761C198.115 170.868 198.095 170.975 198.068 171.08V171.171C198.034 171.254 198.007 171.344 197.973 171.428C197.96 171.466 197.945 171.503 197.926 171.539C197.891 171.643 197.845 171.743 197.791 171.838C197.61 172.173 197.366 172.469 197.073 172.706C196.977 172.785 196.873 172.853 196.762 172.907C194.244 174.297 191.725 175.645 189.268 176.875L187.975 177.528C186.942 178.033 185.92 178.524 184.909 179.001L183.501 179.695L181.091 180.793C180.692 180.981 180.299 181.154 179.913 181.321L178.769 181.828C177.253 182.523 175.805 183.107 174.437 183.676C173.713 183.982 173.002 184.267 172.325 184.545L171.33 184.941C169.699 185.587 168.264 186.143 167.052 186.594C166.661 186.758 166.225 186.771 165.825 186.632C165.425 186.493 165.087 186.211 164.873 185.837C164.769 185.641 164.694 185.43 164.649 185.212L158.07 151.571C157.975 150.957 158.056 150.328 158.304 149.76C158.551 149.193 158.954 148.712 159.464 148.375L187.217 131.93C187.426 131.784 187.668 131.694 187.919 131.67C188.171 131.645 188.425 131.687 188.656 131.79C188.888 131.894 189.091 132.056 189.245 132.261C189.4 132.467 189.501 132.709 189.539 132.965L196.112 161.131L198.102 169.663L198.136 169.802V169.906C198.143 169.945 198.143 169.985 198.136 170.024C198.139 170.063 198.139 170.103 198.136 170.142C198.143 170.226 198.143 170.309 198.136 170.392C198.142 170.501 198.14 170.61 198.129 170.719ZM222.579 155.101L222.091 155.524C220.474 156.865 218.632 158.303 216.609 159.881C215.932 160.409 215.207 160.937 214.47 161.479L213.678 162.069C212.601 162.861 211.484 163.653 210.293 164.466L209.142 165.258C208.756 165.529 208.357 165.793 207.958 166.057C207.558 166.321 207.152 166.606 206.746 166.87C205.291 167.836 203.781 168.801 202.224 169.753C202.02 169.902 201.781 169.995 201.531 170.022C201.282 170.049 201.03 170.01 200.799 169.908C200.569 169.806 200.367 169.645 200.215 169.44C200.063 169.236 199.965 168.994 199.93 168.739L199.882 168.53L197.885 160.027L191.373 131.93C191.259 131.318 191.328 130.686 191.569 130.114C191.811 129.543 192.214 129.06 192.727 128.727L197.987 125.622L219.397 112.907L220.352 112.352L220.433 112.31C220.637 112.181 220.87 112.107 221.11 112.094C221.349 112.082 221.588 112.133 221.804 112.241C222.019 112.349 222.205 112.512 222.343 112.713C222.48 112.915 222.566 113.149 222.592 113.394L229.138 146.743C229.287 147.768 229.063 148.815 228.509 149.681C228.434 149.8 228.353 149.918 228.272 150.022C228.191 150.117 228.105 150.208 228.014 150.293L227.669 150.612C227.514 150.765 227.351 150.911 227.189 151.057L225.726 152.363C225.205 152.829 224.63 153.329 224.021 153.85L222.741 154.934L222.586 155.059L222.579 155.101Z" fill="black"/>
</g>
<path d="M158.43 145.541L220.157 108.947C220.555 108.686 220.871 108.312 221.065 107.871C221.26 107.429 221.326 106.939 221.254 106.46L220.13 100.742C220.111 100.545 220.041 100.356 219.928 100.195C219.815 100.034 219.663 99.9065 219.487 99.8249C219.31 99.7433 219.117 99.7106 218.924 99.7301C218.732 99.7496 218.548 99.8206 218.391 99.9361L156.67 136.529C156.271 136.79 155.954 137.165 155.759 137.608C155.564 138.052 155.5 138.543 155.574 139.024L156.691 144.735C156.71 144.932 156.78 145.121 156.893 145.282C157.006 145.442 157.158 145.57 157.334 145.652C157.511 145.733 157.704 145.766 157.897 145.747C158.089 145.727 158.273 145.656 158.43 145.541Z" fill="#455A64"/>
<path d="M198.091 169.773C198.21 170.375 198.143 171 197.901 171.562C197.658 172.123 197.252 172.593 196.737 172.907C187.162 178.182 177.231 182.747 167.021 186.566C166.775 186.667 166.51 186.711 166.246 186.693C165.982 186.675 165.725 186.597 165.494 186.463C165.263 186.33 165.065 186.145 164.913 185.922C164.762 185.7 164.661 185.445 164.618 185.176L164.185 182.96C170.182 178.486 184.749 167.807 195.931 161.179C195.975 161.149 196.02 161.121 196.067 161.096L198.091 169.773Z" fill="#37474F"/>
<path d="M228.539 149.703C228.397 149.937 228.224 150.15 228.025 150.335C220.037 157.63 211.403 164.143 202.235 169.788C202.03 169.938 201.791 170.03 201.542 170.057C201.292 170.085 201.04 170.045 200.809 169.943C200.579 169.841 200.378 169.68 200.226 169.476C200.073 169.271 199.975 169.029 199.94 168.774L197.909 160.041C206.621 155.109 215.689 150.87 225.033 147.361L228.539 149.703Z" fill="#37474F"/>
<path opacity="0.1" d="M224.235 142.483L216.755 138.065C215.861 137.468 215.118 136.663 214.585 135.715C214.052 134.767 213.745 133.703 213.688 132.611V116.318L219.422 112.914L220.37 112.351C220.397 112.331 220.426 112.315 220.458 112.303L225.873 141.268C226.15 142.636 225.406 143.178 224.235 142.483Z" fill="white"/>
<path opacity="0.1" d="M208.236 119.549V130.832C208.236 132.041 207.416 132.527 206.394 131.923L196.884 126.288L198.014 125.593L208.236 119.549Z" fill="white"/>
<path d="M221.18 96.3854L152.765 136.925L129.25 119.188L102.329 103.236L170.744 62.7031L197.665 78.655L221.18 96.3854Z" fill="#005EB8"/>
<path d="M145.766 170.754L150.863 167.718C151.032 167.591 151.231 167.513 151.439 167.492C151.648 167.471 151.858 167.508 152.047 167.6L153.252 168.336C153.424 168.459 153.561 168.627 153.648 168.823C153.735 169.018 153.769 169.234 153.746 169.448V181.996C153.716 182.591 153.548 183.171 153.258 183.688C152.967 184.205 152.562 184.644 152.074 184.969L146.977 188.005C146.809 188.133 146.61 188.212 146.402 188.234C146.193 188.256 145.983 188.22 145.793 188.13C145.495 187.95 144.886 187.568 144.588 187.394C144.416 187.27 144.279 187.101 144.192 186.904C144.105 186.707 144.071 186.49 144.094 186.275V173.728C144.125 173.132 144.293 172.552 144.583 172.036C144.874 171.519 145.279 171.08 145.766 170.754Z" fill="#FAFAFA"/>
<path d="M144.074 173.727V186.281C144.052 186.495 144.086 186.711 144.173 186.906C144.26 187.102 144.396 187.27 144.568 187.393C144.859 187.56 145.319 187.858 145.739 188.088C145.581 187.959 145.457 187.792 145.377 187.601C145.298 187.411 145.267 187.203 145.286 186.997V174.463C145.308 173.877 145.473 173.306 145.766 172.803L144.548 172.066C144.258 172.571 144.095 173.142 144.074 173.727Z" fill="#E0E0E0"/>
<path d="M152.053 184.969L146.956 188.006C146.036 188.554 145.284 188.11 145.284 187.019V174.471C145.316 173.875 145.484 173.294 145.774 172.777C146.065 172.259 146.47 171.819 146.956 171.491L152.053 168.455C152.974 167.913 153.725 168.351 153.725 169.448V181.996C153.694 182.592 153.527 183.172 153.236 183.688C152.946 184.205 152.54 184.644 152.053 184.969Z" fill="#F0F0F0"/>
<path d="M156.594 187.053C157.094 187.389 157.509 187.84 157.807 188.371C158.104 188.903 158.276 189.498 158.307 190.11C158.307 191.236 157.542 191.694 156.594 191.131C156.094 190.797 155.678 190.345 155.381 189.814C155.083 189.283 154.912 188.686 154.882 188.074C154.882 186.949 155.647 186.49 156.594 187.053Z" fill="#37474F"/>
<path d="M150.573 192.951C150.349 192.948 150.13 192.886 149.937 192.77C149.743 192.657 149.583 192.493 149.472 192.296C149.362 192.098 149.305 191.873 149.307 191.645V178.917C149.299 178.855 149.305 178.792 149.323 178.733C149.34 178.674 149.37 178.619 149.41 178.572C149.45 178.526 149.499 178.488 149.555 178.463C149.61 178.437 149.67 178.424 149.73 178.424C149.791 178.424 149.851 178.437 149.906 178.463C149.961 178.488 150.01 178.526 150.05 178.572C150.09 178.619 150.12 178.674 150.138 178.733C150.156 178.792 150.161 178.855 150.153 178.917V191.659C150.151 191.735 150.169 191.811 150.206 191.877C150.243 191.943 150.297 191.998 150.363 192.034C150.426 192.073 150.499 192.094 150.573 192.094C150.647 192.094 150.719 192.073 150.783 192.034L156.388 188.713C156.435 188.684 156.488 188.666 156.543 188.658C156.598 188.651 156.654 188.655 156.708 188.67C156.761 188.684 156.811 188.71 156.855 188.745C156.899 188.78 156.936 188.823 156.963 188.873C157.018 188.973 157.032 189.092 157.003 189.204C156.974 189.315 156.904 189.411 156.807 189.47L151.182 192.784C150.996 192.89 150.786 192.948 150.573 192.951Z" fill="#263238"/>
</svg>
